<svg xmlns="http://www.w3.org/2000/svg">
  <symbol id="fishy-menu" viewBox="0 0 24 24">
    <g fill="none"><path d="m12.593 23.258l-.011.002l-.071.035l-.02.004l-.014-.004l-.071-.035q-.016-.005-.024.005l-.004.01l-.017.428l.005.02l.01.013l.104.074l.015.004l.012-.004l.104-.074l.012-.016l.004-.017l-.017-.427q-.004-.016-.017-.018m.265-.113l-.013.002l-.185.093l-.01.01l-.003.011l.018.43l.005.012l.008.007l.201.093q.019.005.029-.008l.004-.014l-.034-.614q-.005-.018-.02-.022m-.715.002a.02.02 0 0 0-.027.006l-.006.014l-.034.614q.001.018.017.024l.015-.002l.201-.093l.01-.008l.004-.011l.017-.43l-.003-.012l-.01-.01z"/><path fill="currentColor" d="M20 17.5a1.5 1.5 0 0 1 .144 2.993L20 20.5H4a1.5 1.5 0 0 1-.144-2.993L4 17.5zm0-7a1.5 1.5 0 0 1 0 3H4a1.5 1.5 0 0 1 0-3zm0-7a1.5 1.5 0 0 1 0 3H4a1.5 1.5 0 1 1 0-3z"/></g>
  </symbol>
  <symbol id="fishy-caret-down" viewBox="0 0 24 24">
    <g fill="none" fill-rule="evenodd"><path d="M24 0v24H0V0zM12.593 23.258l-.011.002l-.071.035l-.02.004l-.014-.004l-.071-.035q-.016-.005-.024.005l-.004.01l-.017.428l.005.02l.01.013l.104.074l.015.004l.012-.004l.104-.074l.012-.016l.004-.017l-.017-.427q-.004-.016-.017-.018m.265-.113l-.013.002l-.185.093l-.01.01l-.003.011l.018.43l.005.012l.008.007l.201.093q.019.005.029-.008l.004-.014l-.034-.614q-.005-.019-.02-.022m-.715.002a.02.02 0 0 0-.027.006l-.006.014l-.034.614q.001.018.017.024l.015-.002l.201-.093l.01-.008l.004-.011l.017-.43l-.003-.012l-.01-.01z"/><path fill="currentColor" d="M13.06 16.06a1.5 1.5 0 0 1-2.12 0l-5.658-5.656a1.5 1.5 0 1 1 2.122-2.121L12 12.879l4.596-4.596a1.5 1.5 0 0 1 2.122 2.12l-5.657 5.658Z"/></g>
  </symbol>
  <symbol id="fishy-academic-cap" viewBox="0 0 24 24">
    <g fill="none" fill-rule="evenodd"><path d="m12.593 23.258l-.011.002l-.071.035l-.02.004l-.014-.004l-.071-.035q-.016-.005-.024.005l-.004.01l-.017.428l.005.02l.01.013l.104.074l.015.004l.012-.004l.104-.074l.012-.016l.004-.017l-.017-.427q-.004-.016-.017-.018m.265-.113l-.013.002l-.185.093l-.01.01l-.003.011l.018.43l.005.012l.008.007l.201.093q.019.005.029-.008l.004-.014l-.034-.614q-.005-.018-.02-.022m-.715.002a.02.02 0 0 0-.027.006l-.006.014l-.034.614q.001.018.017.024l.015-.002l.201-.093l.01-.008l.004-.011l.017-.43l-.003-.012l-.01-.01z"/><path fill="currentColor" d="M14.085 5H14a8 8 0 0 0-8 7.9l-3.614 2.81a1.01 1.01 0 0 0-.093 1.497a1.52 1.52 0 0 0 1.1.457c.22.001.436-.042.655-.066c.272-.03.717-.052 1.546.316c1.064.473 2.143 1.008 3.128 1.393c1.018.397 2.072.693 3.215.693c2.224 0 4.477-1.112 7.334-3.864a39 39 0 0 0 1.828-.141A1 1 0 0 0 22 15v-2a8 8 0 0 0-5-7.418V5.5a1.5 1.5 0 0 0-2.915-.5M5.563 15.774L7.5 14.266c3.087 1.155 5.845 1.743 8.73 1.882C14.415 17.573 13.08 18 11.936 18c-.793 0-1.584-.204-2.488-.557c-.936-.365-1.857-.83-3.043-1.357a7 7 0 0 0-.843-.312Z"/></g>
  </symbol>
  <symbol id="fishy-map-pin" viewBox="0 0 24 24">
    <g fill="none" fill-rule="evenodd"><path d="m12.593 23.258l-.011.002l-.071.035l-.02.004l-.014-.004l-.071-.035q-.016-.005-.024.005l-.004.01l-.017.428l.005.02l.01.013l.104.074l.015.004l.012-.004l.104-.074l.012-.016l.004-.017l-.017-.427q-.004-.016-.017-.018m.265-.113l-.013.002l-.185.093l-.01.01l-.003.011l.018.43l.005.012l.008.007l.201.093q.019.005.029-.008l.004-.014l-.034-.614q-.005-.018-.02-.022m-.715.002a.02.02 0 0 0-.027.006l-.006.014l-.034.614q.001.018.017.024l.015-.002l.201-.093l.01-.008l.004-.011l.017-.43l-.003-.012l-.01-.01z"/><path fill="currentColor" d="M7 7a5 5 0 1 1 6 4.9V17a1 1 0 1 1-2 0v-5.1A5 5 0 0 1 7 7m2.489 9.1a1 1 0 0 1-.838 1.14c-1.278.195-2.293.489-2.96.815c-.335.164-.534.313-.637.422l-.021.023c.033.039.09.096.19.169c.28.207.749.435 1.418.644C7.968 19.728 9.863 20 12 20s4.032-.272 5.359-.687c.67-.209 1.138-.437 1.418-.644c.1-.073.157-.13.19-.169l-.021-.023c-.103-.109-.302-.258-.637-.422c-.667-.326-1.682-.62-2.96-.815a1 1 0 1 1 .301-1.977c1.388.21 2.622.547 3.539.996c.457.224.884.5 1.208.842c.33.347.603.82.603 1.399c0 .811-.524 1.4-1.034 1.777c-.53.392-1.233.702-2.01.945c-1.57.49-3.674.778-5.956.778s-4.387-.288-5.955-.778c-.778-.243-1.48-.553-2.01-.945C3.524 19.9 3 19.311 3 18.5c0-.58.273-1.052.603-1.4c.325-.342.751-.617 1.208-.84c.917-.45 2.152-.786 3.538-.997a1 1 0 0 1 1.14.838Z"/></g>
  </symbol>
  <symbol id="fishy-magnifying-glass" viewBox="0 0 24 24">
    <g fill="none"><path d="M0 0h24v24H0z"/><path fill="currentColor" d="M10.5 2a8.5 8.5 0 0 1 6.676 13.762l3.652 3.652a1 1 0 0 1-1.414 1.414l-3.652-3.652A8.5 8.5 0 1 1 10.5 2m0 2a6.5 6.5 0 1 0 0 13a6.5 6.5 0 0 0 0-13m0 1a5.5 5.5 0 1 1 0 11a5.5 5.5 0 0 1 0-11"/></g>
  </symbol>
  <symbol id="fishy-link" viewBox="0 0 24 24">
    <g fill="none"><path d="m12.593 23.258l-.011.002l-.071.035l-.02.004l-.014-.004l-.071-.035q-.016-.005-.024.005l-.004.01l-.017.428l.005.02l.01.013l.104.074l.015.004l.012-.004l.104-.074l.012-.016l.004-.017l-.017-.427q-.004-.016-.017-.018m.265-.113l-.013.002l-.185.093l-.01.01l-.003.011l.018.43l.005.012l.008.007l.201.093q.019.005.029-.008l.004-.014l-.034-.614q-.005-.018-.02-.022m-.715.002a.02.02 0 0 0-.027.006l-.006.014l-.034.614q.001.018.017.024l.015-.002l.201-.093l.01-.008l.004-.011l.017-.43l-.003-.012l-.01-.01z"/><path fill="currentColor" d="m17.303 9.524l3.182 3.182a5.5 5.5 0 1 1-7.778 7.778l-1.06-1.06a1.5 1.5 0 1 1 2.12-2.122l1.062 1.061a2.5 2.5 0 0 0 3.535-3.536l-3.182-3.182a2.5 2.5 0 0 0-2.681-.56q-.242.096-.454.196l-.464.217c-.62.28-1.097.4-1.704-.206c-.872-.872-.646-1.677.417-2.41a5.5 5.5 0 0 1 7.007.642m-6.01-6.01l1.06 1.06a1.5 1.5 0 0 1-2.12 2.122l-1.061-1.06A2.5 2.5 0 1 0 5.636 9.17l3.182 3.182a2.5 2.5 0 0 0 2.681.56q.242-.096.454-.196l.464-.217c.62-.28 1.098-.4 1.704.206c.872.872.646 1.677-.417 2.41a5.5 5.5 0 0 1-7.007-.642l-3.182-3.182a5.5 5.5 0 1 1 7.778-7.778Z"/></g>
  </symbol>
  <symbol id="fishy-share-nodes" viewBox="0 0 24 24">
    <g fill="none" fill-rule="evenodd"><path d="m12.593 23.258l-.011.002l-.071.035l-.02.004l-.014-.004l-.071-.035q-.016-.005-.024.005l-.004.01l-.017.428l.005.02l.01.013l.104.074l.015.004l.012-.004l.104-.074l.012-.016l.004-.017l-.017-.427q-.004-.016-.017-.018m.265-.113l-.013.002l-.185.093l-.01.01l-.003.011l.018.43l.005.012l.008.007l.201.093q.019.005.029-.008l.004-.014l-.034-.614q-.005-.018-.02-.022m-.715.002a.02.02 0 0 0-.027.006l-.006.014l-.034.614q.001.018.017.024l.015-.002l.201-.093l.01-.008l.004-.011l.017-.43l-.003-.012l-.01-.01z"/><path fill="currentColor" d="M15 5.5a3.5 3.5 0 1 1 .994 2.443L11.67 10.21c.213.555.33 1.16.33 1.79a5 5 0 0 1-.33 1.79l4.324 2.267a3.5 3.5 0 1 1-.93 1.771l-4.475-2.346a5 5 0 1 1 0-6.963l4.475-2.347A3.5 3.5 0 0 1 15 5.5"/></g>
  </symbol>
  <symbol id="fishy-x-circle" viewBox="0 0 24 24">
    <g fill="none"><path d="m12.593 23.258l-.011.002l-.071.035l-.02.004l-.014-.004l-.071-.035q-.016-.005-.024.005l-.004.01l-.017.428l.005.02l.01.013l.104.074l.015.004l.012-.004l.104-.074l.012-.016l.004-.017l-.017-.427q-.004-.016-.017-.018m.265-.113l-.013.002l-.185.093l-.01.01l-.003.011l.018.43l.005.012l.008.007l.201.093q.019.005.029-.008l.004-.014l-.034-.614q-.005-.018-.02-.022m-.715.002a.02.02 0 0 0-.027.006l-.006.014l-.034.614q.001.018.017.024l.015-.002l.201-.093l.01-.008l.004-.011l.017-.43l-.003-.012l-.01-.01z"/><path fill="currentColor" d="M12 2c5.523 0 10 4.477 10 10s-4.477 10-10 10S2 17.523 2 12S6.477 2 12 2M9.879 8.464a1 1 0 0 0-1.498 1.32l.084.095l2.12 2.12l-2.12 2.122a1 1 0 0 0 1.32 1.498l.094-.083L12 13.414l2.121 2.122a1 1 0 0 0 1.498-1.32l-.083-.095L13.414 12l2.122-2.121a1 1 0 0 0-1.32-1.498l-.095.083L12 10.586z"/></g>
  </symbol>
  <symbol id="fishy-book-open" viewBox="0 0 24 24">
    <g fill="none" fill-rule="evenodd"><path d="m12.593 23.258l-.011.002l-.071.035l-.02.004l-.014-.004l-.071-.035q-.016-.005-.024.005l-.004.01l-.017.428l.005.02l.01.013l.104.074l.015.004l.012-.004l.104-.074l.012-.016l.004-.017l-.017-.427q-.004-.016-.017-.018m.265-.113l-.013.002l-.185.093l-.01.01l-.003.011l.018.43l.005.012l.008.007l.201.093q.019.005.029-.008l.004-.014l-.034-.614q-.005-.018-.02-.022m-.715.002a.02.02 0 0 0-.027.006l-.006.014l-.034.614q.001.018.017.024l.015-.002l.201-.093l.01-.008l.004-.011l.017-.43l-.003-.012l-.01-.01z"/><path fill="currentColor" d="M4 5a3 3 0 0 1 3-3h11a2 2 0 0 1 2 2v12.99c0 .168-.038.322-.113.472l-.545 1.09a1 1 0 0 0 0 .895l.543 1.088A1 1 0 0 1 19 22H7a3 3 0 0 1-3-3zm3 13h10.408a3 3 0 0 0 0 2H7a1 1 0 1 1 0-2m3-11a1 1 0 0 0 0 2h4a1 1 0 1 0 0-2z"/></g>
  </symbol>
  <symbol id="fishy-nav-guides" viewBox="0 0 24 24">
    <g fill="none" fill-rule="evenodd"><path d="m12.593 23.258l-.011.002l-.071.035l-.02.004l-.014-.004l-.071-.035q-.016-.005-.024.005l-.004.01l-.017.428l.005.02l.01.013l.104.074l.015.004l.012-.004l.104-.074l.012-.016l.004-.017l-.017-.427q-.004-.016-.017-.018m.265-.113l-.013.002l-.185.093l-.01.01l-.003.011l.018.43l.005.012l.008.007l.201.093q.019.005.029-.008l.004-.014l-.034-.614q-.005-.018-.02-.022m-.715.002a.02.02 0 0 0-.027.006l-.006.014l-.034.614q.001.018.017.024l.015-.002l.201-.093l.01-.008l.004-.011l.017-.43l-.003-.012l-.01-.01z"/><path fill="currentColor" d="M4 5a3 3 0 0 1 3-3h11a2 2 0 0 1 2 2v12.99c0 .168-.038.322-.113.472l-.545 1.09a1 1 0 0 0 0 .895l.543 1.088A1 1 0 0 1 19 22H7a3 3 0 0 1-3-3zm3 13h10.408a3 3 0 0 0 0 2H7a1 1 0 1 1 0-2m3-11a1 1 0 0 0 0 2h4a1 1 0 1 0 0-2z"/></g>
  </symbol>
  <symbol id="fishy-nav-map" viewBox="0 0 24 24">
    <g fill="none" fill-rule="evenodd"><path d="m12.593 23.258l-.011.002l-.071.035l-.02.004l-.014-.004l-.071-.035q-.016-.005-.024.005l-.004.01l-.017.428l.005.02l.01.013l.104.074l.015.004l.012-.004l.104-.074l.012-.016l.004-.017l-.017-.427q-.004-.016-.017-.018m.265-.113l-.013.002l-.185.093l-.01.01l-.003.011l.018.43l.005.012l.008.007l.201.093q.019.005.029-.008l.004-.014l-.034-.614q-.005-.018-.02-.022m-.715.002a.02.02 0 0 0-.027.006l-.006.014l-.034.614q.001.018.017.024l.015-.002l.201-.093l.01-.008l.004-.011l.017-.43l-.003-.012l-.01-.01z"/><path fill="currentColor" d="M7 7a5 5 0 1 1 6 4.9V17a1 1 0 1 1-2 0v-5.1A5 5 0 0 1 7 7m2.489 9.1a1 1 0 0 1-.838 1.14c-1.278.195-2.293.489-2.96.815c-.335.164-.534.313-.637.422l-.021.023c.033.039.09.096.19.169c.28.207.749.435 1.418.644C7.968 19.728 9.863 20 12 20s4.032-.272 5.359-.687c.67-.209 1.138-.437 1.418-.644c.1-.073.157-.13.19-.169l-.021-.023c-.103-.109-.302-.258-.637-.422c-.667-.326-1.682-.62-2.96-.815a1 1 0 1 1 .301-1.977c1.388.21 2.622.547 3.539.996c.457.224.884.5 1.208.842c.33.347.603.82.603 1.399c0 .811-.524 1.4-1.034 1.777c-.53.392-1.233.702-2.01.945c-1.57.49-3.674.778-5.956.778s-4.387-.288-5.955-.778c-.778-.243-1.48-.553-2.01-.945C3.524 19.9 3 19.311 3 18.5c0-.58.273-1.052.603-1.4c.325-.342.751-.617 1.208-.84c.917-.45 2.152-.786 3.538-.997a1 1 0 0 1 1.14.838Z"/></g>
  </symbol>
  <symbol id="fishy-nav-dex" viewBox="0 0 24 24">
    <g fill="none" fill-rule="evenodd"><path d="m12.593 23.258l-.011.002l-.071.035l-.02.004l-.014-.004l-.071-.035q-.016-.005-.024.005l-.004.01l-.017.428l.005.02l.01.013l.104.074l.015.004l.012-.004l.104-.074l.012-.016l.004-.017l-.017-.427q-.004-.016-.017-.018m.265-.113l-.013.002l-.185.093l-.01.01l-.003.011l.018.43l.005.012l.008.007l.201.093q.019.005.029-.008l.004-.014l-.034-.614q-.005-.018-.02-.022m-.715.002a.02.02 0 0 0-.027.006l-.006.014l-.034.614q.001.018.017.024l.015-.002l.201-.093l.01-.008l.004-.011l.017-.43l-.003-.012l-.01-.01z"/><path fill="currentColor" d="M16.202 2.074c1.04.05 1.958.272 2.673.535c.675.249 1.28.575 1.61.906c.33.33.657.935.905 1.61a9 9 0 0 1 .536 2.673c.085 1.79-.345 3.927-1.92 5.969l-.018.047l-1.437 2.876a1 1 0 0 1-1.855-.169a11.7 11.7 0 0 1-4.14 1.178l-.51.042l-.583.039l-.976.053l-1.052.05c-.503.024-1.014.048-1.508.074a21 21 0 0 1-.184 1.653a5 5 0 0 1-.231.952c-.191.502-.597.923-1.169.923c-.752 0-1.436-.53-1.993-1.057l-.268-.26l-.38-.381c-.564-.58-1.187-1.315-1.187-2.13c0-.46.267-.758.436-.897c.297-.245.681-.36 1.062-.437l.376-.066a21 21 0 0 1 1.654-.184l.14-2.896l.037-.64l.038-.583q.02-.275.043-.51c.138-1.454.541-2.88 1.178-4.14a1 1 0 0 1-.168-1.855l2.828-1.415a1 1 0 0 1 .094-.04c2.041-1.575 4.179-2.006 5.969-1.92m.748 4.976a1.5 1.5 0 1 0-2.122 2.121a1.5 1.5 0 0 0 2.122-2.12Z"/></g>
  </symbol>
  <symbol id="fishy-nav-calculator" viewBox="0 0 24 24">
    <g fill="none" fill-rule="evenodd"><path d="m12.593 23.258l-.011.002l-.071.035l-.02.004l-.014-.004l-.071-.035q-.016-.005-.024.005l-.004.01l-.017.428l.005.02l.01.013l.104.074l.015.004l.012-.004l.104-.074l.012-.016l.004-.017l-.017-.427q-.004-.016-.017-.018m.265-.113l-.013.002l-.185.093l-.01.01l-.003.011l.018.43l.005.012l.008.007l.201.093q.019.005.029-.008l.004-.014l-.034-.614q-.005-.018-.02-.022m-.715.002a.02.02 0 0 0-.027.006l-.006.014l-.034.614q.001.018.017.024l.015-.002l.201-.093l.01-.008l.004-.011l.017-.43l-.003-.012l-.01-.01z"/><path fill="currentColor" d="M4.5 4.5a2 2 0 0 1 2-2h11a2 2 0 0 1 2 2V5a1.5 1.5 0 0 1-2.915.5H7.722l6.166 5.285a1.6 1.6 0 0 1 0 2.43L7.722 18.5h8.863a1.5 1.5 0 0 1 2.915.5v.5a2 2 0 0 1-2 2h-11a2 2 0 0 1-2-2v-1.27a2 2 0 0 1 .698-1.518L10.695 12L5.198 7.289A2 2 0 0 1 4.5 5.77z"/></g>
  </symbol>
  <symbol id="fishy-nav-community" viewBox="0 0 24 24">
    <g fill="none"><path d="m12.594 23.258l-.012.002l-.071.035l-.02.004l-.014-.004l-.071-.036q-.016-.004-.024.006l-.004.01l-.017.428l.005.02l.01.013l.104.074l.015.004l.012-.004l.104-.074l.012-.016l.004-.017l-.017-.427q-.004-.016-.016-.018m.264-.113l-.014.002l-.184.093l-.01.01l-.003.011l.018.43l.005.012l.008.008l.201.092q.019.005.029-.008l.004-.014l-.034-.614q-.005-.019-.02-.022m-.715.002a.02.02 0 0 0-.027.006l-.006.014l-.034.614q.001.018.017.024l.015-.002l.201-.093l.01-.008l.003-.011l.018-.43l-.003-.012l-.01-.01z"/><path fill="currentColor" d="M12 12c1.873 0 3.57.62 4.815 1.487c1.183.825 2.185 2.051 2.185 3.37c0 .724-.309 1.324-.796 1.77c-.458.421-1.056.694-1.672.88C15.301 19.88 13.68 20 12 20s-3.301-.12-4.532-.493c-.616-.186-1.214-.459-1.673-.88C5.31 18.182 5 17.582 5 16.858c0-1.319 1.002-2.545 2.185-3.37C8.43 12.62 10.127 12 12 12m7 1c1.044 0 1.992.345 2.693.833c.64.447 1.307 1.19 1.307 2.096c0 .517-.225.946-.56 1.253c-.306.281-.684.446-1.029.55c-.47.142-1.025.215-1.601.247c.122-.345.19-.72.19-1.122c0-1.535-.959-2.839-2.032-3.744A4.8 4.8 0 0 1 19 13M5 13q.537.002 1.032.113C4.96 14.018 4 15.322 4 16.857c0 .402.068.777.19 1.122c-.576-.032-1.13-.105-1.601-.247c-.345-.104-.723-.269-1.03-.55A1.68 1.68 0 0 1 1 15.93c0-.905.666-1.649 1.307-2.096A4.76 4.76 0 0 1 5 13m13.5-6a2.5 2.5 0 1 1 0 5a2.5 2.5 0 0 1 0-5m-13 0a2.5 2.5 0 1 1 0 5a2.5 2.5 0 0 1 0-5M12 3a4 4 0 1 1 0 8a4 4 0 0 1 0-8"/></g>
  </symbol>
  <symbol id="fishy-nav-log" viewBox="0 0 24 24">
    <g fill="none"><path d="m12.593 23.258l-.011.002l-.071.035l-.02.004l-.014-.004l-.071-.035q-.016-.005-.024.005l-.004.01l-.017.428l.005.02l.01.013l.104.074l.015.004l.012-.004l.104-.074l.012-.016l.004-.017l-.017-.427q-.004-.016-.017-.018m.265-.113l-.013.002l-.185.093l-.01.01l-.003.011l.018.43l.005.012l.008.007l.201.093q.019.005.029-.008l.004-.014l-.034-.614q-.005-.018-.02-.022m-.715.002a.02.02 0 0 0-.027.006l-.006.014l-.034.614q.001.018.017.024l.015-.002l.201-.093l.01-.008l.004-.011l.017-.43l-.003-.012l-.01-.01z"/><path fill="currentColor" d="M8 2v19H6c-1.054 0-2-.95-2-2V4c0-1.054.95-2 2-2zm9 0c1.598 0 3 1.3 3 3v13c0 1.7-1.4 3-3 3h-7V2z"/></g>
  </symbol>
  <symbol id="fishy-adjustments-horizontal" viewBox="0 0 24 24">
    <g fill="none" fill-rule="evenodd"><path d="m12.593 23.258l-.011.002l-.071.035l-.02.004l-.014-.004l-.071-.035q-.016-.005-.024.005l-.004.01l-.017.428l.005.02l.01.013l.104.074l.015.004l.012-.004l.104-.074l.012-.016l.004-.017l-.017-.427q-.004-.016-.017-.018m.265-.113l-.013.002l-.185.093l-.01.01l-.003.011l.018.43l.005.012l.008.007l.201.093q.019.005.029-.008l.004-.014l-.034-.614q-.005-.018-.02-.022m-.715.002a.02.02 0 0 0-.027.006l-.006.014l-.034.614q.001.018.017.024l.015-.002l.201-.093l.01-.008l.004-.011l.017-.43l-.003-.012l-.01-.01z"/><path fill="currentColor" d="M9.965 2.809a1.51 1.51 0 0 0-1.401-.203a10 10 0 0 0-2.982 1.725a1.51 1.51 0 0 0-.524 1.313c.075.753-.058 1.48-.42 2.106c-.361.627-.925 1.106-1.615 1.417a1.51 1.51 0 0 0-.875 1.113a10 10 0 0 0 0 3.44c.093.537.46.926.875 1.114c.69.31 1.254.79 1.616 1.416c.361.627.494 1.353.419 2.106c-.045.452.107.964.524 1.313a10 10 0 0 0 2.982 1.725a1.51 1.51 0 0 0 1.4-.203c.615-.442 1.312-.691 2.036-.691s1.42.249 2.035.691c.37.266.89.39 1.401.203a10 10 0 0 0 2.982-1.725c.417-.349.57-.86.524-1.313c-.075-.753.057-1.48.42-2.106c.361-.627.925-1.105 1.615-1.416c.414-.187.782-.577.875-1.114a10 10 0 0 0 0-3.44a1.51 1.51 0 0 0-.875-1.113c-.69-.311-1.254-.79-1.616-1.417c-.362-.626-.494-1.353-.419-2.106a1.51 1.51 0 0 0-.524-1.313a10 10 0 0 0-2.982-1.725a1.51 1.51 0 0 0-1.4.203C13.42 3.25 12.723 3.5 12 3.5s-1.42-.249-2.035-.691M9 12a3 3 0 1 1 6 0a3 3 0 0 1-6 0"/></g>
  </symbol>
  <symbol id="fishy-information-circle" viewBox="0 0 24 24">
    <g fill="none"><path d="m12.593 23.258l-.011.002l-.071.035l-.02.004l-.014-.004l-.071-.035q-.016-.005-.024.005l-.004.01l-.017.428l.005.02l.01.013l.104.074l.015.004l.012-.004l.104-.074l.012-.016l.004-.017l-.017-.427q-.004-.016-.017-.018m.265-.113l-.013.002l-.185.093l-.01.01l-.003.011l.018.43l.005.012l.008.007l.201.093q.019.005.029-.008l.004-.014l-.034-.614q-.005-.018-.02-.022m-.715.002a.02.02 0 0 0-.027.006l-.006.014l-.034.614q.001.018.017.024l.015-.002l.201-.093l.01-.008l.004-.011l.017-.43l-.003-.012l-.01-.01z"/><path fill="currentColor" d="M4 16a1 1 0 0 1 .993.883L5 17v2h2a1 1 0 0 1 .117 1.993L7 21H5a2 2 0 0 1-1.995-1.85L3 19v-2a1 1 0 0 1 1-1m16 0a1 1 0 0 1 1 1v2a2 2 0 0 1-2 2h-2a1 1 0 1 1 0-2h2v-2a1 1 0 0 1 1-1m-4.358-8.955a1 1 0 0 1 1.357 1.186l-.044.127l-4.243 9.9a1 1 0 0 1-1.86-.057l-.034-.112l-.92-3.988l-3.987-.92a1 1 0 0 1-.273-1.841l.104-.052zM7 3a1 1 0 0 1 0 2H5v2a1 1 0 0 1-2 0V5a2 2 0 0 1 2-2zm12 0a2 2 0 0 1 2 2v2a1 1 0 1 1-2 0V5h-2a1 1 0 1 1 0-2z"/></g>
  </symbol>
  <symbol id="fishy-squares-2x2" viewBox="0 0 24 24">
    <g fill="none"><path d="m12.594 23.258l-.012.002l-.071.035l-.02.004l-.014-.004l-.071-.036q-.016-.004-.024.006l-.004.01l-.017.428l.005.02l.01.013l.104.074l.015.004l.012-.004l.104-.074l.012-.016l.004-.017l-.017-.427q-.004-.016-.016-.018m.264-.113l-.014.002l-.184.093l-.01.01l-.003.011l.018.43l.005.012l.008.008l.201.092q.019.005.029-.008l.004-.014l-.034-.614q-.005-.019-.02-.022m-.715.002a.02.02 0 0 0-.027.006l-.006.014l-.034.614q.001.018.017.024l.015-.002l.201-.093l.01-.008l.003-.011l.018-.43l-.003-.012l-.01-.01z"/><path fill="currentColor" d="M18.01 9.378a2.5 2.5 0 0 1 2.985 2.29l.005.162v5.53a3 3 0 0 1-2.239 2.902l-.173.04l-5.598 1.12a2.5 2.5 0 0 1-2.985-2.29L10 18.97v-5.53a3 3 0 0 1 2.239-2.902l.173-.04zm-3.5-3.299a2.5 2.5 0 0 1 2.985 2.29l.005.162v.132L12.216 9.72a4 4 0 0 0-3.21 3.719L9 13.642v4.53a2.5 2.5 0 0 1-2.495-2.333l-.005-.168v-5.53a3 3 0 0 1 2.238-2.902l.174-.04zm-3.5-3.5a2.5 2.5 0 0 1 2.985 2.289L14 5.03v.132L8.716 6.218a4 4 0 0 0-3.21 3.72l-.006.203v4.53a2.5 2.5 0 0 1-2.495-2.333L3 12.17V6.64a3 3 0 0 1 2.238-2.902l.174-.04z"/></g>
  </symbol>
  <symbol id="fishy-search-field" viewBox="0 0 24 24">
    <g fill="none"><path d="M0 0h24v24H0z"/><path fill="currentColor" d="M10.5 2a8.5 8.5 0 0 1 6.676 13.762l3.652 3.652a1 1 0 0 1-1.414 1.414l-3.652-3.652A8.5 8.5 0 1 1 10.5 2m0 2a6.5 6.5 0 1 0 0 13a6.5 6.5 0 0 0 0-13m0 1a5.5 5.5 0 1 1 0 11a5.5 5.5 0 0 1 0-11"/></g>
  </symbol>
  <symbol id="fishy-map-view" viewBox="0 0 24 24">
    <g fill="none" fill-rule="evenodd"><path d="m12.593 23.258l-.011.002l-.071.035l-.02.004l-.014-.004l-.071-.035q-.016-.005-.024.005l-.004.01l-.017.428l.005.02l.01.013l.104.074l.015.004l.012-.004l.104-.074l.012-.016l.004-.017l-.017-.427q-.004-.016-.017-.018m.265-.113l-.013.002l-.185.093l-.01.01l-.003.011l.018.43l.005.012l.008.007l.201.093q.019.005.029-.008l.004-.014l-.034-.614q-.005-.018-.02-.022m-.715.002a.02.02 0 0 0-.027.006l-.006.014l-.034.614q.001.018.017.024l.015-.002l.201-.093l.01-.008l.004-.011l.017-.43l-.003-.012l-.01-.01z"/><path fill="currentColor" d="M9 5.054c-.065 1.642 0 11.973 0 11.973q.242 0 .474.077L15 18.946V6.973a1.5 1.5 0 0 1-.474-.077zm-.474-1.95a1.5 1.5 0 0 1 .948 0L15 4.946l5.289-1.763A1.3 1.3 0 0 1 22 4.416V17.64a1.5 1.5 0 0 1-1.026 1.423l-5.5 1.833c-.308.103-.64.103-.948 0L9 19.054l-5.289 1.763A1.3 1.3 0 0 1 2 19.584V6.36a1.5 1.5 0 0 1 1.026-1.423z"/></g>
  </symbol>
  <symbol id="fishy-cube-view" viewBox="0 0 24 24">
    <g fill="none" fill-rule="evenodd"><path d="m12.594 23.258l-.012.002l-.071.035l-.02.004l-.014-.004l-.071-.036q-.016-.004-.024.006l-.004.01l-.017.428l.005.02l.01.013l.104.074l.015.004l.012-.004l.104-.074l.012-.016l.004-.017l-.017-.427q-.004-.016-.016-.018m.264-.113l-.014.002l-.184.093l-.01.01l-.003.011l.018.43l.005.012l.008.008l.201.092q.019.005.029-.008l.004-.014l-.034-.614q-.005-.019-.02-.022m-.715.002a.02.02 0 0 0-.027.006l-.006.014l-.034.614q.001.018.017.024l.015-.002l.201-.093l.01-.008l.003-.011l.018-.43l-.003-.012l-.01-.01z"/><path fill="currentColor" d="M11.25 1.701a1.5 1.5 0 0 1 1.5 0l2 1.155a1.5 1.5 0 0 1-1.25 2.713V6a1.5 1.5 0 0 1-3 0v-.43a1.5 1.5 0 0 1-1.25-2.714zM7.18 7.487a1.5 1.5 0 0 0-1.724-2.44l-2 1.154a1.5 1.5 0 0 0-.75 1.299v2.31a1.5 1.5 0 0 0 2.975.272A1.5 1.5 0 0 0 7.18 7.487m9.315-1.892a1.5 1.5 0 0 1 2.05-.549l2 1.155a1.5 1.5 0 0 1 .75 1.3v2.308a1.5 1.5 0 0 1-2.976.273a1.5 1.5 0 0 1-1.498-2.595a1.5 1.5 0 0 1-.326-1.892M8.536 10a1.5 1.5 0 0 1 2.05-.55l1.414.818l1.415-.817a1.5 1.5 0 1 1 1.5 2.598l-1.415.817V14.5a1.5 1.5 0 1 1-3 0v-1.634l-1.415-.817a1.5 1.5 0 0 1-.549-2.05Zm-2.855 3.916a1.5 1.5 0 0 0-2.975.275V16.5a1.5 1.5 0 0 0 .75 1.299l2 1.155a1.5 1.5 0 0 0 1.725-2.44l.373-.215a1.5 1.5 0 1 0-1.5-2.598zm14.113-1.225a1.5 1.5 0 0 1 1.5 1.5v2.31a1.5 1.5 0 0 1-.75 1.298l-2 1.155a1.5 1.5 0 0 1-1.725-2.44l-.373-.215a1.5 1.5 0 1 1 1.5-2.598l.373.215a1.5 1.5 0 0 1 1.475-1.225M12 17a1.5 1.5 0 0 1 1.499 1.431a1.5 1.5 0 0 1 1.251 2.713l-2 1.155a1.5 1.5 0 0 1-1.5 0l-2-1.155a1.5 1.5 0 0 1 1.252-2.713A1.5 1.5 0 0 1 12 17"/></g>
  </symbol>
  <symbol id="fishy-hover-zone" viewBox="0 0 24 24">
    <g fill="none"><path d="m12.593 23.258l-.011.002l-.071.035l-.02.004l-.014-.004l-.071-.035q-.016-.005-.024.005l-.004.01l-.017.428l.005.02l.01.013l.104.074l.015.004l.012-.004l.104-.074l.012-.016l.004-.017l-.017-.427q-.004-.016-.017-.018m.265-.113l-.013.002l-.185.093l-.01.01l-.003.011l.018.43l.005.012l.008.007l.201.093q.019.005.029-.008l.004-.014l-.034-.614q-.005-.018-.02-.022m-.715.002a.02.02 0 0 0-.027.006l-.006.014l-.034.614q.001.018.017.024l.015-.002l.201-.093l.01-.008l.004-.011l.017-.43l-.003-.012l-.01-.01z"/><path fill="currentColor" d="M4 15a1 1 0 0 1 1 1v3h3a1 1 0 1 1 0 2H5a2 2 0 0 1-2-2v-3a1 1 0 0 1 1-1m16 0a1 1 0 0 1 .993.883L21 16v3a2 2 0 0 1-1.85 1.995L19 21h-3a1 1 0 0 1-.117-1.993L16 19h3v-3a1 1 0 0 1 1-1M19 3a2 2 0 0 1 1.995 1.85L21 5v3a1 1 0 0 1-1.993.117L19 8V5h-3a1 1 0 0 1-.117-1.993L16 3zM8 3a1 1 0 0 1 .117 1.993L8 5H5v3a1 1 0 0 1-1.993.117L3 8V5a2 2 0 0 1 1.85-1.995L5 3z"/></g>
  </symbol>
  <symbol id="fishy-hover-origin" viewBox="0 0 24 24">
    <g fill="none" fill-rule="evenodd"><path d="m12.593 23.258l-.011.002l-.071.035l-.02.004l-.014-.004l-.071-.035q-.016-.005-.024.005l-.004.01l-.017.428l.005.02l.01.013l.104.074l.015.004l.012-.004l.104-.074l.012-.016l.004-.017l-.017-.427q-.004-.016-.017-.018m.265-.113l-.013.002l-.185.093l-.01.01l-.003.011l.018.43l.005.012l.008.007l.201.093q.019.005.029-.008l.004-.014l-.034-.614q-.005-.018-.02-.022m-.715.002a.02.02 0 0 0-.027.006l-.006.014l-.034.614q.001.018.017.024l.015-.002l.201-.093l.01-.008l.004-.011l.017-.43l-.003-.012l-.01-.01z"/><path fill="currentColor" d="M7 7a5 5 0 1 1 6 4.9V17a1 1 0 1 1-2 0v-5.1A5 5 0 0 1 7 7m2.489 9.1a1 1 0 0 1-.838 1.14c-1.278.195-2.293.489-2.96.815c-.335.164-.534.313-.637.422l-.021.023c.033.039.09.096.19.169c.28.207.749.435 1.418.644C7.968 19.728 9.863 20 12 20s4.032-.272 5.359-.687c.67-.209 1.138-.437 1.418-.644c.1-.073.157-.13.19-.169l-.021-.023c-.103-.109-.302-.258-.637-.422c-.667-.326-1.682-.62-2.96-.815a1 1 0 1 1 .301-1.977c1.388.21 2.622.547 3.539.996c.457.224.884.5 1.208.842c.33.347.603.82.603 1.399c0 .811-.524 1.4-1.034 1.777c-.53.392-1.233.702-2.01.945c-1.57.49-3.674.778-5.956.778s-4.387-.288-5.955-.778c-.778-.243-1.48-.553-2.01-.945C3.524 19.9 3 19.311 3 18.5c0-.58.273-1.052.603-1.4c.325-.342.751-.617 1.208-.84c.917-.45 2.152-.786 3.538-.997a1 1 0 0 1 1.14.838Z"/></g>
  </symbol>
  <symbol id="fishy-hover-resources" viewBox="0 0 24 24">
    <g fill="none"><path d="m12.593 23.258l-.011.002l-.071.035l-.02.004l-.014-.004l-.071-.035q-.016-.005-.024.005l-.004.01l-.017.428l.005.02l.01.013l.104.074l.015.004l.012-.004l.104-.074l.012-.016l.004-.017l-.017-.427q-.004-.016-.017-.018m.265-.113l-.013.002l-.185.093l-.01.01l-.003.011l.018.43l.005.012l.008.007l.201.093q.019.005.029-.008l.004-.014l-.034-.614q-.005-.018-.02-.022m-.715.002a.02.02 0 0 0-.027.006l-.006.014l-.034.614q.001.018.017.024l.015-.002l.201-.093l.01-.008l.004-.011l.017-.43l-.003-.012l-.01-.01z"/><path fill="currentColor" d="M13 3a2 2 0 0 1 1.995 1.85L15 5v16H9V5a2 2 0 0 1 1.85-1.995L11 3zm7 5a2 2 0 0 1 2 2v9a2 2 0 0 1-2 2h-3V8zM7 11v10H4a2 2 0 0 1-2-2v-6a2 2 0 0 1 2-2z"/></g>
  </symbol>
  <symbol id="fishy-question-mark" viewBox="0 0 24 24">
    <g fill="none"><path d="m12.594 23.258l-.012.002l-.071.035l-.02.004l-.014-.004l-.071-.036q-.016-.004-.024.006l-.004.01l-.017.428l.005.02l.01.013l.104.074l.015.004l.012-.004l.104-.074l.012-.016l.004-.017l-.017-.427q-.004-.016-.016-.018m.264-.113l-.014.002l-.184.093l-.01.01l-.003.011l.018.43l.005.012l.008.008l.201.092q.019.005.029-.008l.004-.014l-.034-.614q-.005-.019-.02-.022m-.715.002a.02.02 0 0 0-.027.006l-.006.014l-.034.614q.001.018.017.024l.015-.002l.201-.093l.01-.008l.003-.011l.018-.43l-.003-.012l-.01-.01z"/><path fill="currentColor" d="M12.004 18.5a1.5 1.5 0 0 1 0 3H12a1.5 1.5 0 0 1 0-3zM12 2.5A6.5 6.5 0 0 1 18.5 9c0 1.896-1.174 3.605-2.88 4.578c-.637.364-1.2.782-1.589 1.23c-.38.437-.531.828-.531 1.192a1.5 1.5 0 0 1-3 0c0-1.293.567-2.354 1.266-3.16c.69-.795 1.566-1.41 2.368-1.867C15.093 10.425 15.5 9.618 15.5 9a3.5 3.5 0 1 0-7 0a1.5 1.5 0 1 1-3 0A6.5 6.5 0 0 1 12 2.5"/></g>
  </symbol>
  <symbol id="fishy-bookmarks" viewBox="0 0 24 24">
    <g fill="none" fill-rule="evenodd"><path d="m12.594 23.258l-.012.002l-.071.035l-.02.004l-.014-.004l-.071-.036q-.016-.004-.024.006l-.004.01l-.017.428l.005.02l.01.013l.104.074l.015.004l.012-.004l.104-.074l.012-.016l.004-.017l-.017-.427q-.004-.016-.016-.018m.264-.113l-.014.002l-.184.093l-.01.01l-.003.011l.018.43l.005.012l.008.008l.201.092q.019.005.029-.008l.004-.014l-.034-.614q-.005-.019-.02-.022m-.715.002a.02.02 0 0 0-.027.006l-.006.014l-.034.614q.001.018.017.024l.015-.002l.201-.093l.01-.008l.003-.011l.018-.43l-.003-.012l-.01-.01z"/><path fill="currentColor" d="M10 2a3 3 0 0 0-3 3a3 3 0 0 0-3 3v13.018c0 1.226 1.39 1.934 2.382 1.213l4.118-2.995l4.118 2.995c.991.721 2.382.013 2.382-1.213v-2.236l.618.45c.991.72 2.382.012 2.382-1.214V5a3 3 0 0 0-3-3zm7 14.309l1 .727V5a1 1 0 0 0-1-1h-7a1 1 0 0 0-1 1h5a3 3 0 0 1 3 3z"/></g>
  </symbol>
  <symbol id="fishy-bookmark-add" viewBox="0 0 24 24">
    <g fill="none"><path d="m12.594 23.258l-.012.002l-.071.035l-.02.004l-.014-.004l-.071-.036q-.016-.004-.024.006l-.004.01l-.017.428l.005.02l.01.013l.104.074l.015.004l.012-.004l.104-.074l.012-.016l.004-.017l-.017-.427q-.004-.016-.016-.018m.264-.113l-.014.002l-.184.093l-.01.01l-.003.011l.018.43l.005.012l.008.008l.201.092q.019.005.029-.008l.004-.014l-.034-.614q-.005-.019-.02-.022m-.715.002a.02.02 0 0 0-.027.006l-.006.014l-.034.614q.001.018.017.024l.015-.002l.201-.093l.01-.008l.003-.011l.018-.43l-.003-.012l-.01-.01z"/><path fill="currentColor" d="M19 15a1 1 0 0 1 .993.883L20 16v2h2a1 1 0 0 1 .117 1.993L22 20h-2v2a1 1 0 0 1-1.993.117L18 22v-2h-2a1 1 0 0 1-.117-1.993L16 18h2v-2a1 1 0 0 1 1-1M16 2a3 3 0 0 1 3 3v8a3 3 0 0 0-3 3a3 3 0 0 0-2.997 2.87L12 18.202l-4.668 3.112C6.335 21.978 5 21.264 5 20.066V5a3 3 0 0 1 3-3z"/></g>
  </symbol>
  <symbol id="fishy-copy" viewBox="0 0 24 24">
    <g fill="none" fill-rule="evenodd"><path d="m12.593 23.258l-.011.002l-.071.035l-.02.004l-.014-.004l-.071-.035q-.016-.005-.024.005l-.004.01l-.017.428l.005.02l.01.013l.104.074l.015.004l.012-.004l.104-.074l.012-.016l.004-.017l-.017-.427q-.004-.016-.017-.018m.265-.113l-.013.002l-.185.093l-.01.01l-.003.011l.018.43l.005.012l.008.007l.201.093q.019.005.029-.008l.004-.014l-.034-.614q-.005-.018-.02-.022m-.715.002a.02.02 0 0 0-.027.006l-.006.014l-.034.614q.001.018.017.024l.015-.002l.201-.093l.01-.008l.004-.011l.017-.43l-.003-.012l-.01-.01z"/><path fill="currentColor" d="M9 2a2 2 0 0 0-2 2v2h2V4h11v11h-2v2h2a2 2 0 0 0 2-2V4a2 2 0 0 0-2-2zM4 7a2 2 0 0 0-2 2v11a2 2 0 0 0 2 2h11a2 2 0 0 0 2-2V9a2 2 0 0 0-2-2z"/></g>
  </symbol>
  <symbol id="fishy-trash" viewBox="0 0 24 24">
    <g fill="none" fill-rule="evenodd"><path d="m12.593 23.258l-.011.002l-.071.035l-.02.004l-.014-.004l-.071-.035q-.016-.005-.024.005l-.004.01l-.017.428l.005.02l.01.013l.104.074l.015.004l.012-.004l.104-.074l.012-.016l.004-.017l-.017-.427q-.004-.016-.017-.018m.265-.113l-.013.002l-.185.093l-.01.01l-.003.011l.018.43l.005.012l.008.007l.201.093q.019.005.029-.008l.004-.014l-.034-.614q-.005-.018-.02-.022m-.715.002a.02.02 0 0 0-.027.006l-.006.014l-.034.614q.001.018.017.024l.015-.002l.201-.093l.01-.008l.004-.011l.017-.43l-.003-.012l-.01-.01z"/><path fill="currentColor" d="M14.28 2a2 2 0 0 1 1.897 1.368L16.72 5H20a1 1 0 1 1 0 2l-.003.071l-.867 12.143A3 3 0 0 1 16.138 22H7.862a3 3 0 0 1-2.992-2.786L4.003 7.07L4 7a1 1 0 0 1 0-2h3.28l.543-1.632A2 2 0 0 1 9.721 2zM9 10a1 1 0 0 0-.993.883L8 11v6a1 1 0 0 0 1.993.117L10 17v-6a1 1 0 0 0-1-1m6 0a1 1 0 0 0-1 1v6a1 1 0 1 0 2 0v-6a1 1 0 0 0-1-1m-.72-6H9.72l-.333 1h5.226z"/></g>
  </symbol>
  <symbol id="fishy-eye" viewBox="0 0 24 24">
    <g fill="none" fill-rule="evenodd"><path d="m12.593 23.258l-.011.002l-.071.035l-.02.004l-.014-.004l-.071-.035q-.016-.005-.024.005l-.004.01l-.017.428l.005.02l.01.013l.104.074l.015.004l.012-.004l.104-.074l.012-.016l.004-.017l-.017-.427q-.004-.016-.017-.018m.265-.113l-.013.002l-.185.093l-.01.01l-.003.011l.018.43l.005.012l.008.007l.201.093q.019.005.029-.008l.004-.014l-.034-.614q-.005-.018-.02-.022m-.715.002a.02.02 0 0 0-.027.006l-.006.014l-.034.614q.001.018.017.024l.015-.002l.201-.093l.01-.008l.004-.011l.017-.43l-.003-.012l-.01-.01z"/><path fill="currentColor" d="M12 4C9.213 4 6.737 5.257 4.974 6.813C4.09 7.594 3.36 8.47 2.846 9.344C2.34 10.201 2 11.13 2 12s.34 1.799.846 2.656c.514.873 1.243 1.75 2.128 2.531C6.737 18.743 9.214 20 12 20c2.787 0 5.263-1.257 7.026-2.813c.885-.781 1.614-1.658 2.128-2.531C21.66 13.799 22 12.87 22 12s-.34-1.799-.846-2.656c-.514-.873-1.243-1.75-2.128-2.531C17.263 5.257 14.786 4 12 4m2 8c.36 0 .697-.095.989-.261A3 3 0 1 1 12.26 9.01A2 2 0 0 0 14 12"/></g>
  </symbol>
  <symbol id="fishy-eye-slash" viewBox="0 0 24 24">
    <g fill="none" fill-rule="evenodd"><path d="m12.593 23.258l-.011.002l-.071.035l-.02.004l-.014-.004l-.071-.035q-.016-.005-.024.005l-.004.01l-.017.428l.005.02l.01.013l.104.074l.015.004l.012-.004l.104-.074l.012-.016l.004-.017l-.017-.427q-.004-.016-.017-.018m.265-.113l-.013.002l-.185.093l-.01.01l-.003.011l.018.43l.005.012l.008.007l.201.093q.019.005.029-.008l.004-.014l-.034-.614q-.005-.018-.02-.022m-.715.002a.02.02 0 0 0-.027.006l-.006.014l-.034.614q.001.018.017.024l.015-.002l.201-.093l.01-.008l.004-.011l.017-.43l-.003-.012l-.01-.01z"/><path fill="currentColor" d="M2.5 9a1.5 1.5 0 0 1 2.945-.404c1.947 6.502 11.158 6.503 13.109.005a1.5 1.5 0 1 1 2.877.85a10.1 10.1 0 0 1-1.623 3.236l.96.96a1.5 1.5 0 1 1-2.122 2.12l-1.01-1.01a9.6 9.6 0 0 1-1.67.915l.243.906a1.5 1.5 0 0 1-2.897.776l-.251-.935c-.705.073-1.417.073-2.122 0l-.25.935a1.5 1.5 0 0 1-2.898-.776l.242-.907a9.6 9.6 0 0 1-1.669-.914l-1.01 1.01a1.5 1.5 0 1 1-2.122-2.12l.96-.96a10.1 10.1 0 0 1-1.62-3.23A1.5 1.5 0 0 1 2.5 9"/></g>
  </symbol>
  <symbol id="fishy-drag-handle" viewBox="0 0 24 24">
    <g fill="none"><path d="M24 0v24H0V0zM12.593 23.258l-.011.002l-.071.035l-.02.004l-.014-.004l-.071-.035q-.016-.005-.024.005l-.004.01l-.017.428l.005.02l.01.013l.104.074l.015.004l.012-.004l.104-.074l.012-.016l.004-.017l-.017-.427q-.004-.016-.017-.018m.265-.113l-.013.002l-.185.093l-.01.01l-.003.011l.018.43l.005.012l.008.007l.201.093q.019.005.029-.008l.004-.014l-.034-.614q-.005-.019-.02-.022m-.715.002a.02.02 0 0 0-.027.006l-.006.014l-.034.614q.001.018.017.024l.015-.002l.201-.093l.01-.008l.004-.011l.017-.43l-.003-.012l-.01-.01z"/><path fill="currentColor" d="M8.11 7.06a1.5 1.5 0 0 1 0-2.12l2.758-2.758a1.6 1.6 0 0 1 2.263 0l2.758 2.757a1.5 1.5 0 1 1-2.121 2.122l-.268-.268V10.5h3.707l-.268-.268a1.5 1.5 0 0 1 2.122-2.121l2.757 2.758a1.6 1.6 0 0 1 0 2.262l-2.757 2.758a1.5 1.5 0 0 1-2.122-2.121l.268-.268H13.5v3.707l.268-.268a1.5 1.5 0 0 1 2.121 2.122l-2.758 2.757a1.6 1.6 0 0 1-2.263 0l-2.757-2.757a1.5 1.5 0 0 1 2.121-2.122l.268.268V13.5H6.793l.268.268a1.5 1.5 0 1 1-2.122 2.121l-2.757-2.758a1.6 1.6 0 0 1 0-2.262L4.939 8.11a1.5 1.5 0 1 1 2.122 2.121l-.268.268H10.5V6.793l-.268.268a1.5 1.5 0 0 1-2.121 0Z"/></g>
  </symbol>
  <symbol id="fishy-check-badge-outline" viewBox="0 0 24 24">
    <path fill="none" stroke="currentColor" stroke-linecap="round" stroke-linejoin="round" stroke-width="1.5" d="M9 12.75 11.25 15 15 9.75M21 12c0 1.268-.63 2.39-1.593 3.068a3.745 3.745 0 0 1-1.043 3.296 3.745 3.745 0 0 1-3.296 1.043A3.745 3.745 0 0 1 12 21c-1.268 0-2.39-.63-3.068-1.593a3.746 3.746 0 0 1-3.296-1.043 3.745 3.745 0 0 1-1.043-3.296A3.745 3.745 0 0 1 3 12c0-1.268.63-2.39 1.593-3.068a3.745 3.745 0 0 1 1.043-3.296 3.746 3.746 0 0 1 3.296-1.043A3.746 3.746 0 0 1 12 3c1.268 0 2.39.63 3.068 1.593a3.746 3.746 0 0 1 3.296 1.043 3.746 3.746 0 0 1 1.043 3.296A3.745 3.745 0 0 1 21 12Z"/>
  </symbol>
  <symbol id="fishy-check-badge-solid" viewBox="0 0 24 24">
    <path fill="currentColor" fill-rule="evenodd" clip-rule="evenodd" d="M8.603 3.799A4.49 4.49 0 0 1 12 2.25c1.357 0 2.573.6 3.397 1.549a4.49 4.49 0 0 1 3.498 1.307 4.491 4.491 0 0 1 1.307 3.497A4.49 4.49 0 0 1 21.75 12a4.49 4.49 0 0 1-1.549 3.397 4.491 4.491 0 0 1-1.307 3.497 4.491 4.491 0 0 1-3.497 1.307A4.49 4.49 0 0 1 12 21.75a4.49 4.49 0 0 1-3.397-1.549 4.49 4.49 0 0 1-3.498-1.306 4.491 4.491 0 0 1-1.307-3.498A4.49 4.49 0 0 1 2.25 12c0-1.357.6-2.573 1.549-3.397a4.49 4.49 0 0 1 1.307-3.497 4.49 4.49 0 0 1 3.497-1.307Zm7.007 6.387a.75.75 0 1 0-1.22-.872l-3.236 4.53L9.53 12.22a.75.75 0 0 0-1.06 1.06l2.25 2.25a.75.75 0 0 0 1.14-.094l3.75-5.25Z"/>
  </symbol>
  <symbol id="fishy-coin-stack" viewBox="0 0 24 24">
    <g fill="none"><path d="m12.593 23.258l-.011.002l-.071.035l-.02.004l-.014-.004l-.071-.035q-.016-.005-.024.005l-.004.01l-.017.428l.005.02l.01.013l.104.074l.015.004l.012-.004l.104-.074l.012-.016l.004-.017l-.017-.427q-.004-.016-.017-.018m.265-.113l-.013.002l-.185.093l-.01.01l-.003.011l.018.43l.005.012l.008.007l.201.093q.019.005.029-.008l.004-.014l-.034-.614q-.005-.018-.02-.022m-.715.002a.02.02 0 0 0-.027.006l-.006.014l-.034.614q.001.018.017.024l.015-.002l.201-.093l.01-.008l.004-.011l.017-.43l-.003-.012l-.01-.01z"/><path fill="currentColor" d="M21 16.143V17.5c0 .814-.381 1.51-.91 2.057c-.523.542-1.233.984-2.032 1.334C16.456 21.591 14.314 22 12 22s-4.456-.408-6.058-1.109c-.799-.35-1.509-.792-2.032-1.334c-.485-.5-.845-1.128-.902-1.856L3 17.5v-1.357q.697.398 1.494.695c2.03.751 4.685 1.17 7.506 1.17s5.476-.419 7.506-1.17q.598-.222 1.139-.503zm-18-5.5q.697.398 1.494.695c2.03.751 4.685 1.17 7.506 1.17s5.476-.419 7.506-1.17A10 10 0 0 0 21 10.643v3.105a8.3 8.3 0 0 1-2.188 1.214c-1.755.65-4.164 1.047-6.812 1.047c-2.647 0-5.056-.397-6.812-1.047A8.3 8.3 0 0 1 3 13.748zM12 3c2.314 0 4.456.408 6.058 1.109c.799.35 1.509.792 2.032 1.334c.485.5.845 1.128.902 1.856L21 7.5v.748a8.3 8.3 0 0 1-2.188 1.214c-1.755.65-4.164 1.047-6.812 1.047c-2.647 0-5.056-.397-6.812-1.047a8.3 8.3 0 0 1-1.905-1.006L3 8.248V7.5c0-.814.381-1.51.91-2.057c.523-.542 1.233-.984 2.032-1.334C7.544 3.409 9.686 3 12 3"/></g>
  </symbol>
</svg>
