<svg xmlns="http://www.w3.org/2000/svg">
  <symbol id="fishy-menu" viewBox="0 0 24 24">
    <g fill="none"><path d="m12.593 23.258l-.011.002l-.071.035l-.02.004l-.014-.004l-.071-.035q-.016-.005-.024.005l-.004.01l-.017.428l.005.02l.01.013l.104.074l.015.004l.012-.004l.104-.074l.012-.016l.004-.017l-.017-.427q-.004-.016-.017-.018m.265-.113l-.013.002l-.185.093l-.01.01l-.003.011l.018.43l.005.012l.008.007l.201.093q.019.005.029-.008l.004-.014l-.034-.614q-.005-.018-.02-.022m-.715.002a.02.02 0 0 0-.027.006l-.006.014l-.034.614q.001.018.017.024l.015-.002l.201-.093l.01-.008l.004-.011l.017-.43l-.003-.012l-.01-.01z"/><path fill="currentColor" d="M20 17.5a1.5 1.5 0 0 1 .144 2.993L20 20.5H4a1.5 1.5 0 0 1-.144-2.993L4 17.5zm0-7a1.5 1.5 0 0 1 0 3H4a1.5 1.5 0 0 1 0-3zm0-7a1.5 1.5 0 0 1 0 3H4a1.5 1.5 0 1 1 0-3z"/></g>
  </symbol>
  <symbol id="fishy-caret-down" viewBox="0 0 24 24">
    <g fill="none" fill-rule="evenodd"><path d="M24 0v24H0V0zM12.593 23.258l-.011.002l-.071.035l-.02.004l-.014-.004l-.071-.035q-.016-.005-.024.005l-.004.01l-.017.428l.005.02l.01.013l.104.074l.015.004l.012-.004l.104-.074l.012-.016l.004-.017l-.017-.427q-.004-.016-.017-.018m.265-.113l-.013.002l-.185.093l-.01.01l-.003.011l.018.43l.005.012l.008.007l.201.093q.019.005.029-.008l.004-.014l-.034-.614q-.005-.019-.02-.022m-.715.002a.02.02 0 0 0-.027.006l-.006.014l-.034.614q.001.018.017.024l.015-.002l.201-.093l.01-.008l.004-.011l.017-.43l-.003-.012l-.01-.01z"/><path fill="currentColor" d="M13.06 16.06a1.5 1.5 0 0 1-2.12 0l-5.658-5.656a1.5 1.5 0 1 1 2.122-2.121L12 12.879l4.596-4.596a1.5 1.5 0 0 1 2.122 2.12l-5.657 5.658Z"/></g>
  </symbol>
  <symbol id="fishy-academic-cap" viewBox="0 0 24 24">
    <g fill="none" fill-rule="evenodd"><path d="m12.593 23.258l-.011.002l-.071.035l-.02.004l-.014-.004l-.071-.035q-.016-.005-.024.005l-.004.01l-.017.428l.005.02l.01.013l.104.074l.015.004l.012-.004l.104-.074l.012-.016l.004-.017l-.017-.427q-.004-.016-.017-.018m.265-.113l-.013.002l-.185.093l-.01.01l-.003.011l.018.43l.005.012l.008.007l.201.093q.019.005.029-.008l.004-.014l-.034-.614q-.005-.018-.02-.022m-.715.002a.02.02 0 0 0-.027.006l-.006.014l-.034.614q.001.018.017.024l.015-.002l.201-.093l.01-.008l.004-.011l.017-.43l-.003-.012l-.01-.01z"/><path fill="currentColor" d="M14.085 5H14a8 8 0 0 0-8 7.9l-3.614 2.81a1.01 1.01 0 0 0-.093 1.497a1.52 1.52 0 0 0 1.1.457c.22.001.436-.042.655-.066c.272-.03.717-.052 1.546.316c1.064.473 2.143 1.008 3.128 1.393c1.018.397 2.072.693 3.215.693c2.224 0 4.477-1.112 7.334-3.864a39 39 0 0 0 1.828-.141A1 1 0 0 0 22 15v-2a8 8 0 0 0-5-7.418V5.5a1.5 1.5 0 0 0-2.915-.5M5.563 15.774L7.5 14.266c3.087 1.155 5.845 1.743 8.73 1.882C14.415 17.573 13.08 18 11.936 18c-.793 0-1.584-.204-2.488-.557c-.936-.365-1.857-.83-3.043-1.357a7 7 0 0 0-.843-.312Z"/></g>
  </symbol>
  <symbol id="fishy-map-pin" viewBox="0 0 24 24">
    <g fill="none" fill-rule="evenodd"><path d="m12.593 23.258l-.011.002l-.071.035l-.02.004l-.014-.004l-.071-.035q-.016-.005-.024.005l-.004.01l-.017.428l.005.02l.01.013l.104.074l.015.004l.012-.004l.104-.074l.012-.016l.004-.017l-.017-.427q-.004-.016-.017-.018m.265-.113l-.013.002l-.185.093l-.01.01l-.003.011l.018.43l.005.012l.008.007l.201.093q.019.005.029-.008l.004-.014l-.034-.614q-.005-.018-.02-.022m-.715.002a.02.02 0 0 0-.027.006l-.006.014l-.034.614q.001.018.017.024l.015-.002l.201-.093l.01-.008l.004-.011l.017-.43l-.003-.012l-.01-.01z"/><path fill="currentColor" d="M7 7a5 5 0 1 1 6 4.9V17a1 1 0 1 1-2 0v-5.1A5 5 0 0 1 7 7m2.489 9.1a1 1 0 0 1-.838 1.14c-1.278.195-2.293.489-2.96.815c-.335.164-.534.313-.637.422l-.021.023c.033.039.09.096.19.169c.28.207.749.435 1.418.644C7.968 19.728 9.863 20 12 20s4.032-.272 5.359-.687c.67-.209 1.138-.437 1.418-.644c.1-.073.157-.13.19-.169l-.021-.023c-.103-.109-.302-.258-.637-.422c-.667-.326-1.682-.62-2.96-.815a1 1 0 1 1 .301-1.977c1.388.21 2.622.547 3.539.996c.457.224.884.5 1.208.842c.33.347.603.82.603 1.399c0 .811-.524 1.4-1.034 1.777c-.53.392-1.233.702-2.01.945c-1.57.49-3.674.778-5.956.778s-4.387-.288-5.955-.778c-.778-.243-1.48-.553-2.01-.945C3.524 19.9 3 19.311 3 18.5c0-.58.273-1.052.603-1.4c.325-.342.751-.617 1.208-.84c.917-.45 2.152-.786 3.538-.997a1 1 0 0 1 1.14.838Z"/></g>
  </symbol>
  <symbol id="fishy-magnifying-glass" viewBox="0 0 24 24">
    <g fill="none"><path d="M0 0h24v24H0z"/><path fill="currentColor" d="M10.5 2a8.5 8.5 0 0 1 6.676 13.762l3.652 3.652a1 1 0 0 1-1.414 1.414l-3.652-3.652A8.5 8.5 0 1 1 10.5 2m0 2a6.5 6.5 0 1 0 0 13a6.5 6.5 0 0 0 0-13m0 1a5.5 5.5 0 1 1 0 11a5.5 5.5 0 0 1 0-11"/></g>
  </symbol>
  <symbol id="fishy-link" viewBox="0 0 24 24">
    <g fill="none"><path d="m12.593 23.258l-.011.002l-.071.035l-.02.004l-.014-.004l-.071-.035q-.016-.005-.024.005l-.004.01l-.017.428l.005.02l.01.013l.104.074l.015.004l.012-.004l.104-.074l.012-.016l.004-.017l-.017-.427q-.004-.016-.017-.018m.265-.113l-.013.002l-.185.093l-.01.01l-.003.011l.018.43l.005.012l.008.007l.201.093q.019.005.029-.008l.004-.014l-.034-.614q-.005-.018-.02-.022m-.715.002a.02.02 0 0 0-.027.006l-.006.014l-.034.614q.001.018.017.024l.015-.002l.201-.093l.01-.008l.004-.011l.017-.43l-.003-.012l-.01-.01z"/><path fill="currentColor" d="m17.303 9.524l3.182 3.182a5.5 5.5 0 1 1-7.778 7.778l-1.06-1.06a1.5 1.5 0 1 1 2.12-2.122l1.062 1.061a2.5 2.5 0 0 0 3.535-3.536l-3.182-3.182a2.5 2.5 0 0 0-2.681-.56q-.242.096-.454.196l-.464.217c-.62.28-1.097.4-1.704-.206c-.872-.872-.646-1.677.417-2.41a5.5 5.5 0 0 1 7.007.642m-6.01-6.01l1.06 1.06a1.5 1.5 0 0 1-2.12 2.122l-1.061-1.06A2.5 2.5 0 1 0 5.636 9.17l3.182 3.182a2.5 2.5 0 0 0 2.681.56q.242-.096.454-.196l.464-.217c.62-.28 1.098-.4 1.704.206c.872.872.646 1.677-.417 2.41a5.5 5.5 0 0 1-7.007-.642l-3.182-3.182a5.5 5.5 0 1 1 7.778-7.778Z"/></g>
  </symbol>
  <symbol id="fishy-share-nodes" viewBox="0 0 24 24">
    <g fill="none" fill-rule="evenodd"><path d="m12.593 23.258l-.011.002l-.071.035l-.02.004l-.014-.004l-.071-.035q-.016-.005-.024.005l-.004.01l-.017.428l.005.02l.01.013l.104.074l.015.004l.012-.004l.104-.074l.012-.016l.004-.017l-.017-.427q-.004-.016-.017-.018m.265-.113l-.013.002l-.185.093l-.01.01l-.003.011l.018.43l.005.012l.008.007l.201.093q.019.005.029-.008l.004-.014l-.034-.614q-.005-.018-.02-.022m-.715.002a.02.02 0 0 0-.027.006l-.006.014l-.034.614q.001.018.017.024l.015-.002l.201-.093l.01-.008l.004-.011l.017-.43l-.003-.012l-.01-.01z"/><path fill="currentColor" d="M15 5.5a3.5 3.5 0 1 1 .994 2.443L11.67 10.21c.213.555.33 1.16.33 1.79a5 5 0 0 1-.33 1.79l4.324 2.267a3.5 3.5 0 1 1-.93 1.771l-4.475-2.346a5 5 0 1 1 0-6.963l4.475-2.347A3.5 3.5 0 0 1 15 5.5"/></g>
  </symbol>
  <symbol id="fishy-x-circle" viewBox="0 0 24 24">
    <g fill="none"><path d="m12.593 23.258l-.011.002l-.071.035l-.02.004l-.014-.004l-.071-.035q-.016-.005-.024.005l-.004.01l-.017.428l.005.02l.01.013l.104.074l.015.004l.012-.004l.104-.074l.012-.016l.004-.017l-.017-.427q-.004-.016-.017-.018m.265-.113l-.013.002l-.185.093l-.01.01l-.003.011l.018.43l.005.012l.008.007l.201.093q.019.005.029-.008l.004-.014l-.034-.614q-.005-.018-.02-.022m-.715.002a.02.02 0 0 0-.027.006l-.006.014l-.034.614q.001.018.017.024l.015-.002l.201-.093l.01-.008l.004-.011l.017-.43l-.003-.012l-.01-.01z"/><path fill="currentColor" d="M12 2c5.523 0 10 4.477 10 10s-4.477 10-10 10S2 17.523 2 12S6.477 2 12 2M9.879 8.464a1 1 0 0 0-1.498 1.32l.084.095l2.12 2.12l-2.12 2.122a1 1 0 0 0 1.32 1.498l.094-.083L12 13.414l2.121 2.122a1 1 0 0 0 1.498-1.32l-.083-.095L13.414 12l2.122-2.121a1 1 0 0 0-1.32-1.498l-.095.083L12 10.586z"/></g>
  </symbol>
  <symbol id="fishy-book-open" viewBox="0 0 24 24">
    <g fill="none" fill-rule="evenodd"><path d="m12.593 23.258l-.011.002l-.071.035l-.02.004l-.014-.004l-.071-.035q-.016-.005-.024.005l-.004.01l-.017.428l.005.02l.01.013l.104.074l.015.004l.012-.004l.104-.074l.012-.016l.004-.017l-.017-.427q-.004-.016-.017-.018m.265-.113l-.013.002l-.185.093l-.01.01l-.003.011l.018.43l.005.012l.008.007l.201.093q.019.005.029-.008l.004-.014l-.034-.614q-.005-.018-.02-.022m-.715.002a.02.02 0 0 0-.027.006l-.006.014l-.034.614q.001.018.017.024l.015-.002l.201-.093l.01-.008l.004-.011l.017-.43l-.003-.012l-.01-.01z"/><path fill="currentColor" d="M4 5a3 3 0 0 1 3-3h11a2 2 0 0 1 2 2v12.99c0 .168-.038.322-.113.472l-.545 1.09a1 1 0 0 0 0 .895l.543 1.088A1 1 0 0 1 19 22H7a3 3 0 0 1-3-3zm3 13h10.408a3 3 0 0 0 0 2H7a1 1 0 1 1 0-2m3-11a1 1 0 0 0 0 2h4a1 1 0 1 0 0-2z"/></g>
  </symbol>
  <symbol id="fishy-adjustments-horizontal" viewBox="0 0 24 24">
    <g fill="none" fill-rule="evenodd"><path d="m12.593 23.258l-.011.002l-.071.035l-.02.004l-.014-.004l-.071-.035q-.016-.005-.024.005l-.004.01l-.017.428l.005.02l.01.013l.104.074l.015.004l.012-.004l.104-.074l.012-.016l.004-.017l-.017-.427q-.004-.016-.017-.018m.265-.113l-.013.002l-.185.093l-.01.01l-.003.011l.018.43l.005.012l.008.007l.201.093q.019.005.029-.008l.004-.014l-.034-.614q-.005-.018-.02-.022m-.715.002a.02.02 0 0 0-.027.006l-.006.014l-.034.614q.001.018.017.024l.015-.002l.201-.093l.01-.008l.004-.011l.017-.43l-.003-.012l-.01-.01z"/><path fill="currentColor" d="M9.965 2.809a1.51 1.51 0 0 0-1.401-.203a10 10 0 0 0-2.982 1.725a1.51 1.51 0 0 0-.524 1.313c.075.753-.058 1.48-.42 2.106c-.361.627-.925 1.106-1.615 1.417a1.51 1.51 0 0 0-.875 1.113a10 10 0 0 0 0 3.44c.093.537.46.926.875 1.114c.69.31 1.254.79 1.616 1.416c.361.627.494 1.353.419 2.106c-.045.452.107.964.524 1.313a10 10 0 0 0 2.982 1.725a1.51 1.51 0 0 0 1.4-.203c.615-.442 1.312-.691 2.036-.691s1.42.249 2.035.691c.37.266.89.39 1.401.203a10 10 0 0 0 2.982-1.725c.417-.349.57-.86.524-1.313c-.075-.753.057-1.48.42-2.106c.361-.627.925-1.105 1.615-1.416c.414-.187.782-.577.875-1.114a10 10 0 0 0 0-3.44a1.51 1.51 0 0 0-.875-1.113c-.69-.311-1.254-.79-1.616-1.417c-.362-.626-.494-1.353-.419-2.106a1.51 1.51 0 0 0-.524-1.313a10 10 0 0 0-2.982-1.725a1.51 1.51 0 0 0-1.4.203C13.42 3.25 12.723 3.5 12 3.5s-1.42-.249-2.035-.691M9 12a3 3 0 1 1 6 0a3 3 0 0 1-6 0"/></g>
  </symbol>
  <symbol id="fishy-information-circle" viewBox="0 0 24 24">
    <g fill="none"><path d="m12.593 23.258l-.011.002l-.071.035l-.02.004l-.014-.004l-.071-.035q-.016-.005-.024.005l-.004.01l-.017.428l.005.02l.01.013l.104.074l.015.004l.012-.004l.104-.074l.012-.016l.004-.017l-.017-.427q-.004-.016-.017-.018m.265-.113l-.013.002l-.185.093l-.01.01l-.003.011l.018.43l.005.012l.008.007l.201.093q.019.005.029-.008l.004-.014l-.034-.614q-.005-.018-.02-.022m-.715.002a.02.02 0 0 0-.027.006l-.006.014l-.034.614q.001.018.017.024l.015-.002l.201-.093l.01-.008l.004-.011l.017-.43l-.003-.012l-.01-.01z"/><path fill="currentColor" d="M12 2c5.523 0 10 4.477 10 10s-4.477 10-10 10S2 17.523 2 12S6.477 2 12 2m-.01 8H11a1 1 0 0 0-.117 1.993L11 12v4.99c0 .52.394.95.9 1.004l.11.006h.49a1 1 0 0 0 .596-1.803L13 16.134V11.01c0-.52-.394-.95-.9-1.004zM12 7a1 1 0 1 0 0 2a1 1 0 0 0 0-2"/></g>
  </symbol>
  <symbol id="fishy-squares-2x2" viewBox="0 0 24 24">
    <g fill="none" fill-rule="evenodd"><path d="m12.593 23.258l-.011.002l-.071.035l-.02.004l-.014-.004l-.071-.035q-.016-.005-.024.005l-.004.01l-.017.428l.005.02l.01.013l.104.074l.015.004l.012-.004l.104-.074l.012-.016l.004-.017l-.017-.427q-.004-.016-.017-.018m.265-.113l-.013.002l-.185.093l-.01.01l-.003.011l.018.43l.005.012l.008.007l.201.093q.019.005.029-.008l.004-.014l-.034-.614q-.005-.018-.02-.022m-.715.002a.02.02 0 0 0-.027.006l-.006.014l-.034.614q.001.018.017.024l.015-.002l.201-.093l.01-.008l.004-.011l.017-.43l-.003-.012l-.01-.01z"/><path fill="currentColor" d="M9 13a2 2 0 0 1 2 2v4a2 2 0 0 1-2 2H5a2 2 0 0 1-2-2v-4a2 2 0 0 1 2-2zm10 0a2 2 0 0 1 2 2v4a2 2 0 0 1-2 2h-4a2 2 0 0 1-2-2v-4a2 2 0 0 1 2-2zM9 3a2 2 0 0 1 2 2v4a2 2 0 0 1-2 2H5a2 2 0 0 1-2-2V5a2 2 0 0 1 2-2zm10 0a2 2 0 0 1 2 2v4a2 2 0 0 1-2 2h-4a2 2 0 0 1-2-2V5a2 2 0 0 1 2-2z"/></g>
  </symbol>
  <symbol id="fishy-search-field" viewBox="0 0 24 24">
    <g fill="none"><path d="M0 0h24v24H0z"/><path fill="currentColor" d="M10.5 2a8.5 8.5 0 0 1 6.676 13.762l3.652 3.652a1 1 0 0 1-1.414 1.414l-3.652-3.652A8.5 8.5 0 1 1 10.5 2m0 2a6.5 6.5 0 1 0 0 13a6.5 6.5 0 0 0 0-13m0 1a5.5 5.5 0 1 1 0 11a5.5 5.5 0 0 1 0-11"/></g>
  </symbol>
  <symbol id="fishy-map-view" viewBox="0 0 24 24">
    <g fill="none" fill-rule="evenodd"><path d="m12.593 23.258l-.011.002l-.071.035l-.02.004l-.014-.004l-.071-.035q-.016-.005-.024.005l-.004.01l-.017.428l.005.02l.01.013l.104.074l.015.004l.012-.004l.104-.074l.012-.016l.004-.017l-.017-.427q-.004-.016-.017-.018m.265-.113l-.013.002l-.185.093l-.01.01l-.003.011l.018.43l.005.012l.008.007l.201.093q.019.005.029-.008l.004-.014l-.034-.614q-.005-.018-.02-.022m-.715.002a.02.02 0 0 0-.027.006l-.006.014l-.034.614q.001.018.017.024l.015-.002l.201-.093l.01-.008l.004-.011l.017-.43l-.003-.012l-.01-.01z"/><path fill="currentColor" d="M9 5.054c-.065 1.642 0 11.973 0 11.973q.242 0 .474.077L15 18.946V6.973a1.5 1.5 0 0 1-.474-.077zm-.474-1.95a1.5 1.5 0 0 1 .948 0L15 4.946l5.289-1.763A1.3 1.3 0 0 1 22 4.416V17.64a1.5 1.5 0 0 1-1.026 1.423l-5.5 1.833c-.308.103-.64.103-.948 0L9 19.054l-5.289 1.763A1.3 1.3 0 0 1 2 19.584V6.36a1.5 1.5 0 0 1 1.026-1.423z"/></g>
  </symbol>
  <symbol id="fishy-cube-view" viewBox="0 0 24 24">
    <g fill="none" fill-rule="evenodd"><path d="m12.594 23.258l-.012.002l-.071.035l-.02.004l-.014-.004l-.071-.036q-.016-.004-.024.006l-.004.01l-.017.428l.005.02l.01.013l.104.074l.015.004l.012-.004l.104-.074l.012-.016l.004-.017l-.017-.427q-.004-.016-.016-.018m.264-.113l-.014.002l-.184.093l-.01.01l-.003.011l.018.43l.005.012l.008.008l.201.092q.019.005.029-.008l.004-.014l-.034-.614q-.005-.019-.02-.022m-.715.002a.02.02 0 0 0-.027.006l-.006.014l-.034.614q.001.018.017.024l.015-.002l.201-.093l.01-.008l.003-.011l.018-.43l-.003-.012l-.01-.01z"/><path fill="currentColor" d="M11.25 1.701a1.5 1.5 0 0 1 1.5 0l2 1.155a1.5 1.5 0 0 1-1.25 2.713V6a1.5 1.5 0 0 1-3 0v-.43a1.5 1.5 0 0 1-1.25-2.714zM7.18 7.487a1.5 1.5 0 0 0-1.724-2.44l-2 1.154a1.5 1.5 0 0 0-.75 1.299v2.31a1.5 1.5 0 0 0 2.975.272A1.5 1.5 0 0 0 7.18 7.487m9.315-1.892a1.5 1.5 0 0 1 2.05-.549l2 1.155a1.5 1.5 0 0 1 .75 1.3v2.308a1.5 1.5 0 0 1-2.976.273a1.5 1.5 0 0 1-1.498-2.595a1.5 1.5 0 0 1-.326-1.892M8.536 10a1.5 1.5 0 0 1 2.05-.55l1.414.818l1.415-.817a1.5 1.5 0 1 1 1.5 2.598l-1.415.817V14.5a1.5 1.5 0 1 1-3 0v-1.634l-1.415-.817a1.5 1.5 0 0 1-.549-2.05Zm-2.855 3.916a1.5 1.5 0 0 0-2.975.275V16.5a1.5 1.5 0 0 0 .75 1.299l2 1.155a1.5 1.5 0 0 0 1.725-2.44l.373-.215a1.5 1.5 0 1 0-1.5-2.598zm14.113-1.225a1.5 1.5 0 0 1 1.5 1.5v2.31a1.5 1.5 0 0 1-.75 1.298l-2 1.155a1.5 1.5 0 0 1-1.725-2.44l-.373-.215a1.5 1.5 0 1 1 1.5-2.598l.373.215a1.5 1.5 0 0 1 1.475-1.225M12 17a1.5 1.5 0 0 1 1.499 1.431a1.5 1.5 0 0 1 1.251 2.713l-2 1.155a1.5 1.5 0 0 1-1.5 0l-2-1.155a1.5 1.5 0 0 1 1.252-2.713A1.5 1.5 0 0 1 12 17"/></g>
  </symbol>
  <symbol id="fishy-eye" viewBox="0 0 24 24">
    <g fill="none" fill-rule="evenodd"><path d="m12.593 23.258l-.011.002l-.071.035l-.02.004l-.014-.004l-.071-.035q-.016-.005-.024.005l-.004.01l-.017.428l.005.02l.01.013l.104.074l.015.004l.012-.004l.104-.074l.012-.016l.004-.017l-.017-.427q-.004-.016-.017-.018m.265-.113l-.013.002l-.185.093l-.01.01l-.003.011l.018.43l.005.012l.008.007l.201.093q.019.005.029-.008l.004-.014l-.034-.614q-.005-.018-.02-.022m-.715.002a.02.02 0 0 0-.027.006l-.006.014l-.034.614q.001.018.017.024l.015-.002l.201-.093l.01-.008l.004-.011l.017-.43l-.003-.012l-.01-.01z"/><path fill="currentColor" d="M12 4C9.213 4 6.737 5.257 4.974 6.813C4.09 7.594 3.36 8.47 2.846 9.344C2.34 10.201 2 11.13 2 12s.34 1.799.846 2.656c.514.873 1.243 1.75 2.128 2.531C6.737 18.743 9.214 20 12 20c2.787 0 5.263-1.257 7.026-2.813c.885-.781 1.614-1.658 2.128-2.531C21.66 13.799 22 12.87 22 12s-.34-1.799-.846-2.656c-.514-.873-1.243-1.75-2.128-2.531C17.263 5.257 14.786 4 12 4m2 8c.36 0 .697-.095.989-.261A3 3 0 1 1 12.26 9.01A2 2 0 0 0 14 12"/></g>
  </symbol>
  <symbol id="fishy-eye-slash" viewBox="0 0 24 24">
    <g fill="none" fill-rule="evenodd"><path d="m12.593 23.258l-.011.002l-.071.035l-.02.004l-.014-.004l-.071-.035q-.016-.005-.024.005l-.004.01l-.017.428l.005.02l.01.013l.104.074l.015.004l.012-.004l.104-.074l.012-.016l.004-.017l-.017-.427q-.004-.016-.017-.018m.265-.113l-.013.002l-.185.093l-.01.01l-.003.011l.018.43l.005.012l.008.007l.201.093q.019.005.029-.008l.004-.014l-.034-.614q-.005-.018-.02-.022m-.715.002a.02.02 0 0 0-.027.006l-.006.014l-.034.614q.001.018.017.024l.015-.002l.201-.093l.01-.008l.004-.011l.017-.43l-.003-.012l-.01-.01z"/><path fill="currentColor" d="M2.5 9a1.5 1.5 0 0 1 2.945-.404c1.947 6.502 11.158 6.503 13.109.005a1.5 1.5 0 1 1 2.877.85a10.1 10.1 0 0 1-1.623 3.236l.96.96a1.5 1.5 0 1 1-2.122 2.12l-1.01-1.01a9.6 9.6 0 0 1-1.67.915l.243.906a1.5 1.5 0 0 1-2.897.776l-.251-.935c-.705.073-1.417.073-2.122 0l-.25.935a1.5 1.5 0 0 1-2.898-.776l.242-.907a9.6 9.6 0 0 1-1.669-.914l-1.01 1.01a1.5 1.5 0 1 1-2.122-2.12l.96-.96a10.1 10.1 0 0 1-1.62-3.23A1.5 1.5 0 0 1 2.5 9"/></g>
  </symbol>
  <symbol id="fishy-drag-handle" viewBox="0 0 24 24">
    <g fill="none"><path d="M24 0v24H0V0zM12.593 23.258l-.011.002l-.071.035l-.02.004l-.014-.004l-.071-.035q-.016-.005-.024.005l-.004.01l-.017.428l.005.02l.01.013l.104.074l.015.004l.012-.004l.104-.074l.012-.016l.004-.017l-.017-.427q-.004-.016-.017-.018m.265-.113l-.013.002l-.185.093l-.01.01l-.003.011l.018.43l.005.012l.008.007l.201.093q.019.005.029-.008l.004-.014l-.034-.614q-.005-.019-.02-.022m-.715.002a.02.02 0 0 0-.027.006l-.006.014l-.034.614q.001.018.017.024l.015-.002l.201-.093l.01-.008l.004-.011l.017-.43l-.003-.012l-.01-.01z"/><path fill="currentColor" d="M8.11 7.06a1.5 1.5 0 0 1 0-2.12l2.758-2.758a1.6 1.6 0 0 1 2.263 0l2.758 2.757a1.5 1.5 0 1 1-2.121 2.122l-.268-.268V10.5h3.707l-.268-.268a1.5 1.5 0 0 1 2.122-2.121l2.757 2.758a1.6 1.6 0 0 1 0 2.262l-2.757 2.758a1.5 1.5 0 0 1-2.122-2.121l.268-.268H13.5v3.707l.268-.268a1.5 1.5 0 0 1 2.121 2.122l-2.758 2.757a1.6 1.6 0 0 1-2.263 0l-2.757-2.757a1.5 1.5 0 0 1 2.121-2.122l.268.268V13.5H6.793l.268.268a1.5 1.5 0 1 1-2.122 2.121l-2.757-2.758a1.6 1.6 0 0 1 0-2.262L4.939 8.11a1.5 1.5 0 1 1 2.122 2.121l-.268.268H10.5V6.793l-.268.268a1.5 1.5 0 0 1-2.121 0Z"/></g>
  </symbol>
  <symbol id="fishy-check-badge-outline" viewBox="0 0 24 24">
    <path fill="none" stroke="currentColor" stroke-linecap="round" stroke-linejoin="round" stroke-width="1.5" d="M9 12.75 11.25 15 15 9.75M21 12c0 1.268-.63 2.39-1.593 3.068a3.745 3.745 0 0 1-1.043 3.296 3.745 3.745 0 0 1-3.296 1.043A3.745 3.745 0 0 1 12 21c-1.268 0-2.39-.63-3.068-1.593a3.746 3.746 0 0 1-3.296-1.043 3.745 3.745 0 0 1-1.043-3.296A3.745 3.745 0 0 1 3 12c0-1.268.63-2.39 1.593-3.068a3.745 3.745 0 0 1 1.043-3.296 3.746 3.746 0 0 1 3.296-1.043A3.746 3.746 0 0 1 12 3c1.268 0 2.39.63 3.068 1.593a3.746 3.746 0 0 1 3.296 1.043 3.746 3.746 0 0 1 1.043 3.296A3.745 3.745 0 0 1 21 12Z"/>
  </symbol>
  <symbol id="fishy-check-badge-solid" viewBox="0 0 24 24">
    <path fill="currentColor" fill-rule="evenodd" clip-rule="evenodd" d="M8.603 3.799A4.49 4.49 0 0 1 12 2.25c1.357 0 2.573.6 3.397 1.549a4.49 4.49 0 0 1 3.498 1.307 4.491 4.491 0 0 1 1.307 3.497A4.49 4.49 0 0 1 21.75 12a4.49 4.49 0 0 1-1.549 3.397 4.491 4.491 0 0 1-1.307 3.497 4.491 4.491 0 0 1-3.497 1.307A4.49 4.49 0 0 1 12 21.75a4.49 4.49 0 0 1-3.397-1.549 4.49 4.49 0 0 1-3.498-1.306 4.491 4.491 0 0 1-1.307-3.498A4.49 4.49 0 0 1 2.25 12c0-1.357.6-2.573 1.549-3.397a4.49 4.49 0 0 1 1.307-3.497 4.49 4.49 0 0 1 3.497-1.307Zm7.007 6.387a.75.75 0 1 0-1.22-.872l-3.236 4.53L9.53 12.22a.75.75 0 0 0-1.06 1.06l2.25 2.25a.75.75 0 0 0 1.14-.094l3.75-5.25Z"/>
  </symbol>
  <symbol id="fishy-coin-stack" viewBox="0 0 24 24">
    <g fill="none"><path d="m12.593 23.258l-.011.002l-.071.035l-.02.004l-.014-.004l-.071-.035q-.016-.005-.024.005l-.004.01l-.017.428l.005.02l.01.013l.104.074l.015.004l.012-.004l.104-.074l.012-.016l.004-.017l-.017-.427q-.004-.016-.017-.018m.265-.113l-.013.002l-.185.093l-.01.01l-.003.011l.018.43l.005.012l.008.007l.201.093q.019.005.029-.008l.004-.014l-.034-.614q-.005-.018-.02-.022m-.715.002a.02.02 0 0 0-.027.006l-.006.014l-.034.614q.001.018.017.024l.015-.002l.201-.093l.01-.008l.004-.011l.017-.43l-.003-.012l-.01-.01z"/><path fill="currentColor" d="M21 16.143V17.5c0 .814-.381 1.51-.91 2.057c-.523.542-1.233.984-2.032 1.334C16.456 21.591 14.314 22 12 22s-4.456-.408-6.058-1.109c-.799-.35-1.509-.792-2.032-1.334c-.485-.5-.845-1.128-.902-1.856L3 17.5v-1.357q.697.398 1.494.695c2.03.751 4.685 1.17 7.506 1.17s5.476-.419 7.506-1.17q.598-.222 1.139-.503zm-18-5.5q.697.398 1.494.695c2.03.751 4.685 1.17 7.506 1.17s5.476-.419 7.506-1.17A10 10 0 0 0 21 10.643v3.105a8.3 8.3 0 0 1-2.188 1.214c-1.755.65-4.164 1.047-6.812 1.047c-2.647 0-5.056-.397-6.812-1.047A8.3 8.3 0 0 1 3 13.748zM12 3c2.314 0 4.456.408 6.058 1.109c.799.35 1.509.792 2.032 1.334c.485.5.845 1.128.902 1.856L21 7.5v.748a8.3 8.3 0 0 1-2.188 1.214c-1.755.65-4.164 1.047-6.812 1.047c-2.647 0-5.056-.397-6.812-1.047a8.3 8.3 0 0 1-1.905-1.006L3 8.248V7.5c0-.814.381-1.51.91-2.057c.523-.542 1.233-.984 2.032-1.334C7.544 3.409 9.686 3 12 3"/></g>
  </symbol>
</svg>
