<svg xmlns="http://www.w3.org/2000/svg">
  <symbol id="fishy-menu" viewBox="0 0 24 24">
    <g fill="none"><path d="m12.593 23.258l-.011.002l-.071.035l-.02.004l-.014-.004l-.071-.035q-.016-.005-.024.005l-.004.01l-.017.428l.005.02l.01.013l.104.074l.015.004l.012-.004l.104-.074l.012-.016l.004-.017l-.017-.427q-.004-.016-.017-.018m.265-.113l-.013.002l-.185.093l-.01.01l-.003.011l.018.43l.005.012l.008.007l.201.093q.019.005.029-.008l.004-.014l-.034-.614q-.005-.018-.02-.022m-.715.002a.02.02 0 0 0-.027.006l-.006.014l-.034.614q.001.018.017.024l.015-.002l.201-.093l.01-.008l.004-.011l.017-.43l-.003-.012l-.01-.01z"/><path fill="currentColor" d="M20 17.5a1.5 1.5 0 0 1 .144 2.993L20 20.5H4a1.5 1.5 0 0 1-.144-2.993L4 17.5zm0-7a1.5 1.5 0 0 1 0 3H4a1.5 1.5 0 0 1 0-3zm0-7a1.5 1.5 0 0 1 0 3H4a1.5 1.5 0 1 1 0-3z"/></g>
  </symbol>
  <symbol id="fishy-caret-down" viewBox="0 0 24 24">
    <g fill="none" fill-rule="evenodd"><path d="M24 0v24H0V0zM12.593 23.258l-.011.002l-.071.035l-.02.004l-.014-.004l-.071-.035q-.016-.005-.024.005l-.004.01l-.017.428l.005.02l.01.013l.104.074l.015.004l.012-.004l.104-.074l.012-.016l.004-.017l-.017-.427q-.004-.016-.017-.018m.265-.113l-.013.002l-.185.093l-.01.01l-.003.011l.018.43l.005.012l.008.007l.201.093q.019.005.029-.008l.004-.014l-.034-.614q-.005-.019-.02-.022m-.715.002a.02.02 0 0 0-.027.006l-.006.014l-.034.614q.001.018.017.024l.015-.002l.201-.093l.01-.008l.004-.011l.017-.43l-.003-.012l-.01-.01z"/><path fill="currentColor" d="M13.06 16.06a1.5 1.5 0 0 1-2.12 0l-5.658-5.656a1.5 1.5 0 1 1 2.122-2.121L12 12.879l4.596-4.596a1.5 1.5 0 0 1 2.122 2.12l-5.657 5.658Z"/></g>
  </symbol>
  <symbol id="fishy-academic-cap" viewBox="0 0 24 24">
    <g fill="none" fill-rule="evenodd"><path d="m12.593 23.258l-.011.002l-.071.035l-.02.004l-.014-.004l-.071-.035q-.016-.005-.024.005l-.004.01l-.017.428l.005.02l.01.013l.104.074l.015.004l.012-.004l.104-.074l.012-.016l.004-.017l-.017-.427q-.004-.016-.017-.018m.265-.113l-.013.002l-.185.093l-.01.01l-.003.011l.018.43l.005.012l.008.007l.201.093q.019.005.029-.008l.004-.014l-.034-.614q-.005-.018-.02-.022m-.715.002a.02.02 0 0 0-.027.006l-.006.014l-.034.614q.001.018.017.024l.015-.002l.201-.093l.01-.008l.004-.011l.017-.43l-.003-.012l-.01-.01z"/><path fill="currentColor" d="M14.085 5H14a8 8 0 0 0-8 7.9l-3.614 2.81a1.01 1.01 0 0 0-.093 1.497a1.52 1.52 0 0 0 1.1.457c.22.001.436-.042.655-.066c.272-.03.717-.052 1.546.316c1.064.473 2.143 1.008 3.128 1.393c1.018.397 2.072.693 3.215.693c2.224 0 4.477-1.112 7.334-3.864a39 39 0 0 0 1.828-.141A1 1 0 0 0 22 15v-2a8 8 0 0 0-5-7.418V5.5a1.5 1.5 0 0 0-2.915-.5M5.563 15.774L7.5 14.266c3.087 1.155 5.845 1.743 8.73 1.882C14.415 17.573 13.08 18 11.936 18c-.793 0-1.584-.204-2.488-.557c-.936-.365-1.857-.83-3.043-1.357a7 7 0 0 0-.843-.312Z"/></g>
  </symbol>
  <symbol id="fishy-map-pin" viewBox="0 0 24 24">
    <g fill="none" fill-rule="evenodd"><path d="m12.593 23.258l-.011.002l-.071.035l-.02.004l-.014-.004l-.071-.035q-.016-.005-.024.005l-.004.01l-.017.428l.005.02l.01.013l.104.074l.015.004l.012-.004l.104-.074l.012-.016l.004-.017l-.017-.427q-.004-.016-.017-.018m.265-.113l-.013.002l-.185.093l-.01.01l-.003.011l.018.43l.005.012l.008.007l.201.093q.019.005.029-.008l.004-.014l-.034-.614q-.005-.018-.02-.022m-.715.002a.02.02 0 0 0-.027.006l-.006.014l-.034.614q.001.018.017.024l.015-.002l.201-.093l.01-.008l.004-.011l.017-.43l-.003-.012l-.01-.01z"/><path fill="currentColor" d="M7 7a5 5 0 1 1 6 4.9V17a1 1 0 1 1-2 0v-5.1A5 5 0 0 1 7 7m2.489 9.1a1 1 0 0 1-.838 1.14c-1.278.195-2.293.489-2.96.815c-.335.164-.534.313-.637.422l-.021.023c.033.039.09.096.19.169c.28.207.749.435 1.418.644C7.968 19.728 9.863 20 12 20s4.032-.272 5.359-.687c.67-.209 1.138-.437 1.418-.644c.1-.073.157-.13.19-.169l-.021-.023c-.103-.109-.302-.258-.637-.422c-.667-.326-1.682-.62-2.96-.815a1 1 0 1 1 .301-1.977c1.388.21 2.622.547 3.539.996c.457.224.884.5 1.208.842c.33.347.603.82.603 1.399c0 .811-.524 1.4-1.034 1.777c-.53.392-1.233.702-2.01.945c-1.57.49-3.674.778-5.956.778s-4.387-.288-5.955-.778c-.778-.243-1.48-.553-2.01-.945C3.524 19.9 3 19.311 3 18.5c0-.58.273-1.052.603-1.4c.325-.342.751-.617 1.208-.84c.917-.45 2.152-.786 3.538-.997a1 1 0 0 1 1.14.838Z"/></g>
  </symbol>
  <symbol id="fishy-magnifying-glass" viewBox="0 0 24 24">
    <g fill="none"><path d="M0 0h24v24H0z"/><path fill="currentColor" d="M10.5 2a8.5 8.5 0 0 1 6.676 13.762l3.652 3.652a1 1 0 0 1-1.414 1.414l-3.652-3.652A8.5 8.5 0 1 1 10.5 2m0 2a6.5 6.5 0 1 0 0 13a6.5 6.5 0 0 0 0-13m0 1a5.5 5.5 0 1 1 0 11a5.5 5.5 0 0 1 0-11"/></g>
  </symbol>
  <symbol id="fishy-link" viewBox="0 0 24 24">
    <g fill="none"><path d="m12.593 23.258l-.011.002l-.071.035l-.02.004l-.014-.004l-.071-.035q-.016-.005-.024.005l-.004.01l-.017.428l.005.02l.01.013l.104.074l.015.004l.012-.004l.104-.074l.012-.016l.004-.017l-.017-.427q-.004-.016-.017-.018m.265-.113l-.013.002l-.185.093l-.01.01l-.003.011l.018.43l.005.012l.008.007l.201.093q.019.005.029-.008l.004-.014l-.034-.614q-.005-.018-.02-.022m-.715.002a.02.02 0 0 0-.027.006l-.006.014l-.034.614q.001.018.017.024l.015-.002l.201-.093l.01-.008l.004-.011l.017-.43l-.003-.012l-.01-.01z"/><path fill="currentColor" d="m17.303 9.524l3.182 3.182a5.5 5.5 0 1 1-7.778 7.778l-1.06-1.06a1.5 1.5 0 1 1 2.12-2.122l1.062 1.061a2.5 2.5 0 0 0 3.535-3.536l-3.182-3.182a2.5 2.5 0 0 0-2.681-.56q-.242.096-.454.196l-.464.217c-.62.28-1.097.4-1.704-.206c-.872-.872-.646-1.677.417-2.41a5.5 5.5 0 0 1 7.007.642m-6.01-6.01l1.06 1.06a1.5 1.5 0 0 1-2.12 2.122l-1.061-1.06A2.5 2.5 0 1 0 5.636 9.17l3.182 3.182a2.5 2.5 0 0 0 2.681.56q.242-.096.454-.196l.464-.217c.62-.28 1.098-.4 1.704.206c.872.872.646 1.677-.417 2.41a5.5 5.5 0 0 1-7.007-.642l-3.182-3.182a5.5 5.5 0 1 1 7.778-7.778Z"/></g>
  </symbol>
  <symbol id="fishy-share-nodes" viewBox="0 0 24 24">
    <g fill="none" fill-rule="evenodd"><path d="m12.593 23.258l-.011.002l-.071.035l-.02.004l-.014-.004l-.071-.035q-.016-.005-.024.005l-.004.01l-.017.428l.005.02l.01.013l.104.074l.015.004l.012-.004l.104-.074l.012-.016l.004-.017l-.017-.427q-.004-.016-.017-.018m.265-.113l-.013.002l-.185.093l-.01.01l-.003.011l.018.43l.005.012l.008.007l.201.093q.019.005.029-.008l.004-.014l-.034-.614q-.005-.018-.02-.022m-.715.002a.02.02 0 0 0-.027.006l-.006.014l-.034.614q.001.018.017.024l.015-.002l.201-.093l.01-.008l.004-.011l.017-.43l-.003-.012l-.01-.01z"/><path fill="currentColor" d="M15 5.5a3.5 3.5 0 1 1 .994 2.443L11.67 10.21c.213.555.33 1.16.33 1.79a5 5 0 0 1-.33 1.79l4.324 2.267a3.5 3.5 0 1 1-.93 1.771l-4.475-2.346a5 5 0 1 1 0-6.963l4.475-2.347A3.5 3.5 0 0 1 15 5.5"/></g>
  </symbol>
  <symbol id="fishy-x-circle" viewBox="0 0 24 24">
    <g fill="none"><path d="m12.593 23.258l-.011.002l-.071.035l-.02.004l-.014-.004l-.071-.035q-.016-.005-.024.005l-.004.01l-.017.428l.005.02l.01.013l.104.074l.015.004l.012-.004l.104-.074l.012-.016l.004-.017l-.017-.427q-.004-.016-.017-.018m.265-.113l-.013.002l-.185.093l-.01.01l-.003.011l.018.43l.005.012l.008.007l.201.093q.019.005.029-.008l.004-.014l-.034-.614q-.005-.018-.02-.022m-.715.002a.02.02 0 0 0-.027.006l-.006.014l-.034.614q.001.018.017.024l.015-.002l.201-.093l.01-.008l.004-.011l.017-.43l-.003-.012l-.01-.01z"/><path fill="currentColor" d="M12 2c5.523 0 10 4.477 10 10s-4.477 10-10 10S2 17.523 2 12S6.477 2 12 2M9.879 8.464a1 1 0 0 0-1.498 1.32l.084.095l2.12 2.12l-2.12 2.122a1 1 0 0 0 1.32 1.498l.094-.083L12 13.414l2.121 2.122a1 1 0 0 0 1.498-1.32l-.083-.095L13.414 12l2.122-2.121a1 1 0 0 0-1.32-1.498l-.095.083L12 10.586z"/></g>
  </symbol>
  <symbol id="fishy-book-open" viewBox="0 0 24 24">
    <g fill="none" fill-rule="evenodd"><path d="m12.593 23.258l-.011.002l-.071.035l-.02.004l-.014-.004l-.071-.035q-.016-.005-.024.005l-.004.01l-.017.428l.005.02l.01.013l.104.074l.015.004l.012-.004l.104-.074l.012-.016l.004-.017l-.017-.427q-.004-.016-.017-.018m.265-.113l-.013.002l-.185.093l-.01.01l-.003.011l.018.43l.005.012l.008.007l.201.093q.019.005.029-.008l.004-.014l-.034-.614q-.005-.018-.02-.022m-.715.002a.02.02 0 0 0-.027.006l-.006.014l-.034.614q.001.018.017.024l.015-.002l.201-.093l.01-.008l.004-.011l.017-.43l-.003-.012l-.01-.01z"/><path fill="currentColor" d="M4 5a3 3 0 0 1 3-3h11a2 2 0 0 1 2 2v12.99c0 .168-.038.322-.113.472l-.545 1.09a1 1 0 0 0 0 .895l.543 1.088A1 1 0 0 1 19 22H7a3 3 0 0 1-3-3zm3 13h10.408a3 3 0 0 0 0 2H7a1 1 0 1 1 0-2m3-11a1 1 0 0 0 0 2h4a1 1 0 1 0 0-2z"/></g>
  </symbol>
  <symbol id="fishy-nav-guides" viewBox="0 0 24 24">
    <g fill="none" fill-rule="evenodd"><path d="m12.593 23.258l-.011.002l-.071.035l-.02.004l-.014-.004l-.071-.035q-.016-.005-.024.005l-.004.01l-.017.428l.005.02l.01.013l.104.074l.015.004l.012-.004l.104-.074l.012-.016l.004-.017l-.017-.427q-.004-.016-.017-.018m.265-.113l-.013.002l-.185.093l-.01.01l-.003.011l.018.43l.005.012l.008.007l.201.093q.019.005.029-.008l.004-.014l-.034-.614q-.005-.018-.02-.022m-.715.002a.02.02 0 0 0-.027.006l-.006.014l-.034.614q.001.018.017.024l.015-.002l.201-.093l.01-.008l.004-.011l.017-.43l-.003-.012l-.01-.01z"/><path fill="currentColor" d="M4 5a3 3 0 0 1 3-3h11a2 2 0 0 1 2 2v12.99c0 .168-.038.322-.113.472l-.545 1.09a1 1 0 0 0 0 .895l.543 1.088A1 1 0 0 1 19 22H7a3 3 0 0 1-3-3zm3 13h10.408a3 3 0 0 0 0 2H7a1 1 0 1 1 0-2m3-11a1 1 0 0 0 0 2h4a1 1 0 1 0 0-2z"/></g>
  </symbol>
  <symbol id="fishy-nav-map" viewBox="0 0 24 24">
    <g fill="none" fill-rule="evenodd"><path d="m12.593 23.258l-.011.002l-.071.035l-.02.004l-.014-.004l-.071-.035q-.016-.005-.024.005l-.004.01l-.017.428l.005.02l.01.013l.104.074l.015.004l.012-.004l.104-.074l.012-.016l.004-.017l-.017-.427q-.004-.016-.017-.018m.265-.113l-.013.002l-.185.093l-.01.01l-.003.011l.018.43l.005.012l.008.007l.201.093q.019.005.029-.008l.004-.014l-.034-.614q-.005-.018-.02-.022m-.715.002a.02.02 0 0 0-.027.006l-.006.014l-.034.614q.001.018.017.024l.015-.002l.201-.093l.01-.008l.004-.011l.017-.43l-.003-.012l-.01-.01z"/><path fill="currentColor" d="M7 7a5 5 0 1 1 6 4.9V17a1 1 0 1 1-2 0v-5.1A5 5 0 0 1 7 7m2.489 9.1a1 1 0 0 1-.838 1.14c-1.278.195-2.293.489-2.96.815c-.335.164-.534.313-.637.422l-.021.023c.033.039.09.096.19.169c.28.207.749.435 1.418.644C7.968 19.728 9.863 20 12 20s4.032-.272 5.359-.687c.67-.209 1.138-.437 1.418-.644c.1-.073.157-.13.19-.169l-.021-.023c-.103-.109-.302-.258-.637-.422c-.667-.326-1.682-.62-2.96-.815a1 1 0 1 1 .301-1.977c1.388.21 2.622.547 3.539.996c.457.224.884.5 1.208.842c.33.347.603.82.603 1.399c0 .811-.524 1.4-1.034 1.777c-.53.392-1.233.702-2.01.945c-1.57.49-3.674.778-5.956.778s-4.387-.288-5.955-.778c-.778-.243-1.48-.553-2.01-.945C3.524 19.9 3 19.311 3 18.5c0-.58.273-1.052.603-1.4c.325-.342.751-.617 1.208-.84c.917-.45 2.152-.786 3.538-.997a1 1 0 0 1 1.14.838Z"/></g>
  </symbol>
  <symbol id="fishy-nav-dex" viewBox="0 0 24 24">
    <g fill="none" fill-rule="evenodd"><path d="m12.593 23.258l-.011.002l-.071.035l-.02.004l-.014-.004l-.071-.035q-.016-.005-.024.005l-.004.01l-.017.428l.005.02l.01.013l.104.074l.015.004l.012-.004l.104-.074l.012-.016l.004-.017l-.017-.427q-.004-.016-.017-.018m.265-.113l-.013.002l-.185.093l-.01.01l-.003.011l.018.43l.005.012l.008.007l.201.093q.019.005.029-.008l.004-.014l-.034-.614q-.005-.018-.02-.022m-.715.002a.02.02 0 0 0-.027.006l-.006.014l-.034.614q.001.018.017.024l.015-.002l.201-.093l.01-.008l.004-.011l.017-.43l-.003-.012l-.01-.01z"/><path fill="currentColor" d="M16.202 2.074c1.04.05 1.958.272 2.673.535c.675.249 1.28.575 1.61.906c.33.33.657.935.905 1.61a9 9 0 0 1 .536 2.673c.085 1.79-.345 3.927-1.92 5.969l-.018.047l-1.437 2.876a1 1 0 0 1-1.855-.169a11.7 11.7 0 0 1-4.14 1.178l-.51.042l-.583.039l-.976.053l-1.052.05c-.503.024-1.014.048-1.508.074a21 21 0 0 1-.184 1.653a5 5 0 0 1-.231.952c-.191.502-.597.923-1.169.923c-.752 0-1.436-.53-1.993-1.057l-.268-.26l-.38-.381c-.564-.58-1.187-1.315-1.187-2.13c0-.46.267-.758.436-.897c.297-.245.681-.36 1.062-.437l.376-.066a21 21 0 0 1 1.654-.184l.14-2.896l.037-.64l.038-.583q.02-.275.043-.51c.138-1.454.541-2.88 1.178-4.14a1 1 0 0 1-.168-1.855l2.828-1.415a1 1 0 0 1 .094-.04c2.041-1.575 4.179-2.006 5.969-1.92m.748 4.976a1.5 1.5 0 1 0-2.122 2.121a1.5 1.5 0 0 0 2.122-2.12Z"/></g>
  </symbol>
  <symbol id="fishy-nav-calculator" viewBox="0 0 24 24">
    <g fill="none"><path d="m12.593 23.258l-.011.002l-.071.035l-.02.004l-.014-.004l-.071-.035q-.016-.005-.024.005l-.004.01l-.017.428l.005.02l.01.013l.104.074l.015.004l.012-.004l.104-.074l.012-.016l.004-.017l-.017-.427q-.004-.016-.017-.018m.265-.113l-.013.002l-.185.093l-.01.01l-.003.011l.018.43l.005.012l.008.007l.201.093q.019.005.029-.008l.004-.014l-.034-.614q-.005-.018-.02-.022m-.715.002a.02.02 0 0 0-.027.006l-.006.014l-.034.614q.001.018.017.024l.015-.002l.201-.093l.01-.008l.004-.011l.017-.43l-.003-.012l-.01-.01z"/><path fill="currentColor" d="M4 3.5a1.5 1.5 0 0 1 1.493 1.356L5.5 5v12.5H20a1.5 1.5 0 0 1 .144 2.993L20 20.5H4a1.5 1.5 0 0 1-1.493-1.356L2.5 19V5A1.5 1.5 0 0 1 4 3.5m16.193 2.818c1.346 0 2.02 1.627 1.068 2.578l-5.569 5.569a1.6 1.6 0 0 1-2.263 0l-2.404-2.404l-2.475 2.475a1.5 1.5 0 1 1-2.121-2.122L9.894 8.95a1.6 1.6 0 0 1 2.262 0l2.405 2.405l2.181-2.182a1.5 1.5 0 0 1 .647-2.854z"/></g>
  </symbol>
  <symbol id="fishy-nav-community" viewBox="0 0 24 24">
    <g fill="none"><path d="m12.594 23.258l-.012.002l-.071.035l-.02.004l-.014-.004l-.071-.036q-.016-.004-.024.006l-.004.01l-.017.428l.005.02l.01.013l.104.074l.015.004l.012-.004l.104-.074l.012-.016l.004-.017l-.017-.427q-.004-.016-.016-.018m.264-.113l-.014.002l-.184.093l-.01.01l-.003.011l.018.43l.005.012l.008.008l.201.092q.019.005.029-.008l.004-.014l-.034-.614q-.005-.019-.02-.022m-.715.002a.02.02 0 0 0-.027.006l-.006.014l-.034.614q.001.018.017.024l.015-.002l.201-.093l.01-.008l.003-.011l.018-.43l-.003-.012l-.01-.01z"/><path fill="currentColor" d="M12 12c1.873 0 3.57.62 4.815 1.487c1.183.825 2.185 2.051 2.185 3.37c0 .724-.309 1.324-.796 1.77c-.458.421-1.056.694-1.672.88C15.301 19.88 13.68 20 12 20s-3.301-.12-4.532-.493c-.616-.186-1.214-.459-1.673-.88C5.31 18.182 5 17.582 5 16.858c0-1.319 1.002-2.545 2.185-3.37C8.43 12.62 10.127 12 12 12m7 1c1.044 0 1.992.345 2.693.833c.64.447 1.307 1.19 1.307 2.096c0 .517-.225.946-.56 1.253c-.306.281-.684.446-1.029.55c-.47.142-1.025.215-1.601.247c.122-.345.19-.72.19-1.122c0-1.535-.959-2.839-2.032-3.744A4.8 4.8 0 0 1 19 13M5 13q.537.002 1.032.113C4.96 14.018 4 15.322 4 16.857c0 .402.068.777.19 1.122c-.576-.032-1.13-.105-1.601-.247c-.345-.104-.723-.269-1.03-.55A1.68 1.68 0 0 1 1 15.93c0-.905.666-1.649 1.307-2.096A4.76 4.76 0 0 1 5 13m13.5-6a2.5 2.5 0 1 1 0 5a2.5 2.5 0 0 1 0-5m-13 0a2.5 2.5 0 1 1 0 5a2.5 2.5 0 0 1 0-5M12 3a4 4 0 1 1 0 8a4 4 0 0 1 0-8"/></g>
  </symbol>
  <symbol id="fishy-nav-feedback" viewBox="0 0 24 24">
    <g fill="none"><path d="m12.593 23.258l-.011.002l-.071.035l-.02.004l-.014-.004l-.071-.035q-.016-.005-.024.005l-.004.01l-.017.428l.005.02l.01.013l.104.074l.015.004l.012-.004l.104-.074l.012-.016l.004-.017l-.017-.427q-.004-.016-.017-.018m.265-.113l-.013.002l-.185.093l-.01.01l-.003.011l.018.43l.005.012l.008.007l.201.093q.019.005.029-.008l.004-.014l-.034-.614q-.005-.018-.02-.022m-.715.002a.02.02 0 0 0-.027.006l-.006.014l-.034.614q.001.018.017.024l.015-.002l.201-.093l.01-.008l.004-.011l.017-.43l-.003-.012l-.01-.01z"/><path fill="currentColor" d="M19 3a3 3 0 0 1 3 3v10a3 3 0 0 1-3 3h-3.697l-2.61 1.74c-.42.28-.966.28-1.386 0L8.697 19H5a3 3 0 0 1-3-3V6a3 3 0 0 1 3-3zM8.5 10a1.5 1.5 0 1 0 0 3a1.5 1.5 0 0 0 0-3m7 0a1.5 1.5 0 1 0 0 3a1.5 1.5 0 0 0 0-3"/></g>
  </symbol>
  <symbol id="fishy-nav-log" viewBox="0 0 24 24">
    <g fill="none"><path d="m12.593 23.258l-.011.002l-.071.035l-.02.004l-.014-.004l-.071-.035q-.016-.005-.024.005l-.004.01l-.017.428l.005.02l.01.013l.104.074l.015.004l.012-.004l.104-.074l.012-.016l.004-.017l-.017-.427q-.004-.016-.017-.018m.265-.113l-.013.002l-.185.093l-.01.01l-.003.011l.018.43l.005.012l.008.007l.201.093q.019.005.029-.008l.004-.014l-.034-.614q-.005-.018-.02-.022m-.715.002a.02.02 0 0 0-.027.006l-.006.014l-.034.614q.001.018.017.024l.015-.002l.201-.093l.01-.008l.004-.011l.017-.43l-.003-.012l-.01-.01z"/><path fill="currentColor" d="M16 3a3 3 0 0 1 2.995 2.824L19 6v10h.75c.647 0 1.18.492 1.244 1.122l.006.128V19a3 3 0 0 1-2.824 2.995L18 22H8a3 3 0 0 1-2.995-2.824L5 19V9H3.25a1.25 1.25 0 0 1-1.244-1.122L2 7.75V6a3 3 0 0 1 2.824-2.995L5 3zm3 15h-9v1c0 .35-.06.687-.17 1H18a1 1 0 0 0 1-1zm-7-6h-2a1 1 0 0 0-.117 1.993L10 14h2a1 1 0 0 0 .117-1.993zm2-4h-4a1 1 0 0 0 0 2h4a1 1 0 1 0 0-2M5 5a1 1 0 0 0-1 1v1h1z"/></g>
  </symbol>
  <symbol id="fishy-nav-devlog" viewBox="0 0 24 24">
    <g fill="none"><path d="m12.594 23.258l-.012.002l-.071.035l-.02.004l-.014-.004l-.071-.036q-.016-.004-.024.006l-.004.01l-.017.428l.005.02l.01.013l.104.074l.015.004l.012-.004l.104-.074l.012-.016l.004-.017l-.017-.427q-.004-.016-.016-.018m.264-.113l-.014.002l-.184.093l-.01.01l-.003.011l.018.43l.005.012l.008.008l.201.092q.019.005.029-.008l.004-.014l-.034-.614q-.005-.019-.02-.022m-.715.002a.02.02 0 0 0-.027.006l-.006.014l-.034.614q.001.018.017.024l.015-.002l.201-.093l.01-.008l.003-.011l.018-.43l-.003-.012l-.01-.01z"/><path fill="currentColor" d="M5 17a2 2 0 1 1 0 4a2 2 0 0 1 0-4M5 3c8.837 0 16 7.163 16 16q0 .277-.01.55a1.5 1.5 0 1 1-2.997-.1A13 13 0 0 0 18 19c0-7.18-5.82-13-13-13q-.225 0-.45.008a1.5 1.5 0 0 1-.1-2.999Q4.722 3 5 3m0 7a9 9 0 0 1 8.98 9.599a1.5 1.5 0 1 1-2.993-.198a6 6 0 0 0-6.388-6.388a1.5 1.5 0 0 1-.197-2.993Q4.699 10 5 10"/></g>
  </symbol>
  <symbol id="fishy-theme-palette" viewBox="0 0 24 24">
    <g fill="none" fill-rule="evenodd"><path d="m12.593 23.258l-.011.002l-.071.035l-.02.004l-.014-.004l-.071-.035q-.016-.005-.024.005l-.004.01l-.017.428l.005.02l.01.013l.104.074l.015.004l.012-.004l.104-.074l.012-.016l.004-.017l-.017-.427q-.004-.016-.017-.018m.265-.113l-.013.002l-.185.093l-.01.01l-.003.011l.018.43l.005.012l.008.007l.201.093q.019.005.029-.008l.004-.014l-.034-.614q-.005-.018-.02-.022m-.715.002a.02.02 0 0 0-.027.006l-.006.014l-.034.614q.001.018.017.024l.015-.002l.201-.093l.01-.008l.004-.011l.017-.43l-.003-.012l-.01-.01z"/><path fill="currentColor" d="M10 3a2 2 0 0 1 2 2v14a2 2 0 0 1-2 2H5a2 2 0 0 1-2-2V5a2 2 0 0 1 2-2zm9.66 9.111c.731.256 1.27.924 1.334 1.727L21 19a2 2 0 0 1-1.85 1.995L19 21h-6v-2.23zM7.5 15a1.5 1.5 0 1 0 0 3a1.5 1.5 0 0 0 0-3m6.136-11a2 2 0 0 1 2.701-.117l.127.117L20 7.536a2 2 0 0 1 .204 2.589L13 17.357V4.636z"/></g>
  </symbol>
  <symbol id="fishy-edit-4-fill" viewBox="0 0 24 24">
    <g fill="none" fill-rule="evenodd"><path d="m12.594 23.258l-.012.002l-.071.035l-.02.004l-.014-.004l-.071-.036q-.016-.004-.024.006l-.004.01l-.017.428l.005.02l.01.013l.104.074l.015.004l.012-.004l.104-.074l.012-.016l.004-.017l-.017-.427q-.004-.016-.016-.018m.264-.113l-.014.002l-.184.093l-.01.01l-.003.011l.018.43l.005.012l.008.008l.201.092q.019.005.029-.008l.004-.014l-.034-.614q-.005-.019-.02-.022m-.715.002a.02.02 0 0 0-.027.006l-.006.014l-.034.614q.001.018.017.024l.015-.002l.201-.093l.01-.008l.003-.011l.018-.43l-.003-.012l-.01-.01z"/><path fill="currentColor" d="m14.535 12.225l4.242 4.243l-4.243 4.243a1 1 0 0 1-.707.293H11a1 1 0 0 1-1-1v-2.829a1 1 0 0 1 .293-.707zM17 2a2 2 0 0 1 1.995 1.85L19 4v4.02a5 5 0 0 0-4.27 1.192l-.196.185l-5.656 5.657a3 3 0 0 0-.872 1.923l-.007.198v2.829a3 3 0 0 0 .11.804l.06.192H5a2 2 0 0 1-1.995-1.85L3 19V4a2 2 0 0 1 1.85-1.995L5 2zm3.191 8.811a3 3 0 0 1 0 4.243L15.95 10.81a3 3 0 0 1 4.242 0ZM11 6H7a1 1 0 0 0 0 2h4a1 1 0 1 0 0-2"/></g>
  </symbol>
  <symbol id="fishy-alert-fill" viewBox="0 0 24 24">
    <g fill="none"><path d="m12.593 23.258l-.011.002l-.071.035l-.02.004l-.014-.004l-.071-.035q-.016-.005-.024.005l-.004.01l-.017.428l.005.02l.01.013l.104.074l.015.004l.012-.004l.104-.074l.012-.016l.004-.017l-.017-.427q-.004-.016-.017-.018m.265-.113l-.013.002l-.185.093l-.01.01l-.003.011l.018.43l.005.012l.008.007l.201.093q.019.005.029-.008l.004-.014l-.034-.614q-.005-.018-.02-.022m-.715.002a.02.02 0 0 0-.027.006l-.006.014l-.034.614q.001.018.017.024l.015-.002l.201-.093l.01-.008l.004-.011l.017-.43l-.003-.012l-.01-.01z"/><path fill="currentColor" d="m13.299 3.148l8.634 14.954a1.5 1.5 0 0 1-1.299 2.25H3.366a1.5 1.5 0 0 1-1.299-2.25l8.634-14.954c.577-1 2.02-1 2.598 0M12 15a1 1 0 1 0 0 2a1 1 0 0 0 0-2m0-7a1 1 0 0 0-.993.883L11 9v4a1 1 0 0 0 1.993.117L13 13V9a1 1 0 0 0-1-1"/></g>
  </symbol>
  <symbol id="fishy-alert-triangle" viewBox="0 0 24 24">
    <g fill="none"><path d="m12.593 23.258l-.011.002l-.071.035l-.02.004l-.014-.004l-.071-.035q-.016-.005-.024.005l-.004.01l-.017.428l.005.02l.01.013l.104.074l.015.004l.012-.004l.104-.074l.012-.016l.004-.017l-.017-.427q-.004-.016-.017-.018m.265-.113l-.013.002l-.185.093l-.01.01l-.003.011l.018.43l.005.012l.008.007l.201.093q.019.005.029-.008l.004-.014l-.034-.614q-.005-.018-.02-.022m-.715.002a.02.02 0 0 0-.027.006l-.006.014l-.034.614q.001.018.017.024l.015-.002l.201-.093l.01-.008l.004-.011l.017-.43l-.003-.012l-.01-.01z"/><path fill="currentColor" d="m13.299 3.148l8.634 14.954a1.5 1.5 0 0 1-1.299 2.25H3.366a1.5 1.5 0 0 1-1.299-2.25l8.634-14.954c.577-1 2.02-1 2.598 0M12 15a1 1 0 1 0 0 2a1 1 0 0 0 0-2m0-7a1 1 0 0 0-.993.883L11 9v4a1 1 0 0 0 1.993.117L13 13V9a1 1 0 0 0-1-1"/></g>
  </symbol>
  <symbol id="fishy-arrows-up-fill" viewBox="0 0 24 24">
    <g fill="none" fill-rule="evenodd"><path d="M24 0v24H0V0zM12.594 23.258l-.012.002l-.071.035l-.02.004l-.014-.004l-.071-.036q-.016-.004-.024.006l-.004.01l-.017.428l.005.02l.01.013l.104.074l.015.004l.012-.004l.104-.074l.012-.016l.004-.017l-.017-.427q-.004-.016-.016-.018m.264-.113l-.014.002l-.184.093l-.01.01l-.003.011l.018.43l.005.012l.008.008l.201.092q.019.005.029-.008l.004-.014l-.034-.614q-.005-.018-.02-.022m-.715.002a.02.02 0 0 0-.027.006l-.006.014l-.034.614q.001.018.017.024l.015-.002l.201-.093l.01-.008l.003-.011l.018-.43l-.003-.012l-.01-.01z"/><path fill="currentColor" d="M12 4.5a1.5 1.5 0 0 1 1.06.44l5 5a1.5 1.5 0 0 1-2.12 2.12L12 8.122l-3.94 3.94A1.5 1.5 0 0 1 5.94 9.94l5-5A1.5 1.5 0 0 1 12 4.5m0 6a1.5 1.5 0 0 1 1.06.44l5 5a1.5 1.5 0 0 1-2.12 2.12L12 14.122l-3.94 3.94a1.5 1.5 0 0 1-2.12-2.122l5-5A1.5 1.5 0 0 1 12 10.5"/></g>
  </symbol>
  <symbol id="fishy-bug-fill" viewBox="0 0 24 24">
    <g fill="none" fill-rule="evenodd"><path d="m12.593 23.258l-.011.002l-.071.035l-.02.004l-.014-.004l-.071-.035q-.016-.005-.024.005l-.004.01l-.017.428l.005.02l.01.013l.104.074l.015.004l.012-.004l.104-.074l.012-.016l.004-.017l-.017-.427q-.004-.016-.017-.018m.265-.113l-.013.002l-.185.093l-.01.01l-.003.011l.018.43l.005.012l.008.007l.201.093q.019.005.029-.008l.004-.014l-.034-.614q-.005-.018-.02-.022m-.715.002a.02.02 0 0 0-.027.006l-.006.014l-.034.614q.001.018.017.024l.015-.002l.201-.093l.01-.008l.004-.011l.017-.43l-.003-.012l-.01-.01z"/><path fill="currentColor" d="M7.67 5.5A5 5 0 0 1 12 3a5 5 0 0 1 4.33 2.5L17.2 7H6.8zm-4.117.606a1 1 0 0 1 1.341.447c.147.293.5.674.973.99C6.353 7.867 6.781 8 7 8h10c.219 0 .647-.133 1.133-.457c.474-.316.826-.697.973-.99a1 1 0 1 1 1.788.894c-.353.707-1 1.326-1.652 1.76a5.5 5.5 0 0 1-.966.516A9.8 9.8 0 0 1 18.892 12H21a1 1 0 1 1 0 2h-2.012a10 10 0 0 1-.74 3.327c.572.33.963.86 1.209 1.35A5.5 5.5 0 0 1 20 21a1 1 0 1 1-2 0c0-.374-.101-.966-.332-1.428c-.13-.26-.26-.409-.385-.49c-1.056 1.486-2.539 2.54-4.283 2.835V13a1 1 0 1 0-2 0v8.917c-1.744-.295-3.227-1.35-4.283-2.834c-.126.08-.255.23-.385.49A3.5 3.5 0 0 0 6 21a1 1 0 1 1-2 0a5.5 5.5 0 0 1 .543-2.322c.246-.492.637-1.02 1.209-1.35A10 10 0 0 1 5.012 14H3a1 1 0 1 1 0-2h2.108a9.8 9.8 0 0 1 .616-2.277a5.5 5.5 0 0 1-.966-.516c-.651-.434-1.3-1.053-1.652-1.76a1 1 0 0 1 .447-1.341"/></g>
  </symbol>
  <symbol id="fishy-chart-pie-2-fill" viewBox="0 0 24 24">
    <g fill="none"><path d="m12.594 23.258l-.012.002l-.071.035l-.02.004l-.014-.004l-.071-.036q-.016-.004-.024.006l-.004.01l-.017.428l.005.02l.01.013l.104.074l.015.004l.012-.004l.104-.074l.012-.016l.004-.017l-.017-.427q-.004-.016-.016-.018m.264-.113l-.014.002l-.184.093l-.01.01l-.003.011l.018.43l.005.012l.008.008l.201.092q.019.005.029-.008l.004-.014l-.034-.614q-.005-.019-.02-.022m-.715.002a.02.02 0 0 0-.027.006l-.006.014l-.034.614q.001.018.017.024l.015-.002l.201-.093l.01-.008l.003-.011l.018-.43l-.003-.012l-.01-.01z"/><path fill="currentColor" d="M8.667 2.57a1 1 0 0 1 1.326.821l.007.121V12a2 2 0 0 0 1.85 1.995L12 14h8.488a1 1 0 0 1 .943 1.333C20.058 19.216 16.356 22 12 22C6.477 22 2 17.523 2 12c0-4.356 2.784-8.058 6.667-9.43m4.322-.515l.12.006a10.004 10.004 0 0 1 8.83 8.83a1 1 0 0 1-.873 1.102l-.12.007H13a1 1 0 0 1-.993-.883L12 11V3.055a1 1 0 0 1 .989-1"/></g>
  </symbol>
  <symbol id="fishy-dinner-fill" viewBox="0 0 24 24">
    <g fill="none"><path d="m12.594 23.258l-.012.002l-.071.035l-.02.004l-.014-.004l-.071-.036q-.016-.004-.024.006l-.004.01l-.017.428l.005.02l.01.013l.104.074l.015.004l.012-.004l.104-.074l.012-.016l.004-.017l-.017-.427q-.004-.016-.016-.018m.264-.113l-.014.002l-.184.093l-.01.01l-.003.011l.018.43l.005.012l.008.008l.201.092q.019.005.029-.008l.004-.014l-.034-.614q-.005-.019-.02-.022m-.715.002a.02.02 0 0 0-.027.006l-.006.014l-.034.614q.001.018.017.024l.015-.002l.201-.093l.01-.008l.003-.011l.018-.43l-.003-.012l-.01-.01z"/><path fill="currentColor" d="M19.707 2.293a1 1 0 0 1 0 1.414L15.414 8h4.524a1 1 0 0 1 .992.876a9 9 0 0 1-5.336 9.377l.376 1.505A1 1 0 0 1 15 21H9a1 1 0 0 1-.97-1.242l.376-1.505A9 9 0 0 1 3.07 8.876A1 1 0 0 1 4.062 8h3.524l5.707-5.707a1 1 0 1 1 1.414 1.414L10.414 8h2.172l5.707-5.707a1 1 0 0 1 1.414 0"/></g>
  </symbol>
  <symbol id="fishy-filter-2-fill" viewBox="0 0 24 24">
    <g fill="none"><path d="m12.593 23.258l-.011.002l-.071.035l-.02.004l-.014-.004l-.071-.035q-.016-.005-.024.005l-.004.01l-.017.428l.005.02l.01.013l.104.074l.015.004l.012-.004l.104-.074l.012-.016l.004-.017l-.017-.427q-.004-.016-.017-.018m.265-.113l-.013.002l-.185.093l-.01.01l-.003.011l.018.43l.005.012l.008.007l.201.093q.019.005.029-.008l.004-.014l-.034-.614q-.005-.018-.02-.022m-.715.002a.02.02 0 0 0-.027.006l-.006.014l-.034.614q.001.018.017.024l.015-.002l.201-.093l.01-.008l.004-.011l.017-.43l-.003-.012l-.01-.01z"/><path fill="currentColor" d="M14 16.5a1.5 1.5 0 0 1 .144 2.993L14 19.5h-4a1.5 1.5 0 0 1-.144-2.993L10 16.5zm3-6a1.5 1.5 0 0 1 0 3H7a1.5 1.5 0 0 1 0-3zm3-6a1.5 1.5 0 0 1 0 3H4a1.5 1.5 0 1 1 0-3z"/></g>
  </symbol>
  <symbol id="fishy-adjustments-horizontal" viewBox="0 0 24 24">
    <g fill="none" fill-rule="evenodd"><path d="m12.593 23.258l-.011.002l-.071.035l-.02.004l-.014-.004l-.071-.035q-.016-.005-.024.005l-.004.01l-.017.428l.005.02l.01.013l.104.074l.015.004l.012-.004l.104-.074l.012-.016l.004-.017l-.017-.427q-.004-.016-.017-.018m.265-.113l-.013.002l-.185.093l-.01.01l-.003.011l.018.43l.005.012l.008.007l.201.093q.019.005.029-.008l.004-.014l-.034-.614q-.005-.018-.02-.022m-.715.002a.02.02 0 0 0-.027.006l-.006.014l-.034.614q.001.018.017.024l.015-.002l.201-.093l.01-.008l.004-.011l.017-.43l-.003-.012l-.01-.01z"/><path fill="currentColor" d="M9.965 2.809a1.51 1.51 0 0 0-1.401-.203a10 10 0 0 0-2.982 1.725a1.51 1.51 0 0 0-.524 1.313c.075.753-.058 1.48-.42 2.106c-.361.627-.925 1.106-1.615 1.417a1.51 1.51 0 0 0-.875 1.113a10 10 0 0 0 0 3.44c.093.537.46.926.875 1.114c.69.31 1.254.79 1.616 1.416c.361.627.494 1.353.419 2.106c-.045.452.107.964.524 1.313a10 10 0 0 0 2.982 1.725a1.51 1.51 0 0 0 1.4-.203c.615-.442 1.312-.691 2.036-.691s1.42.249 2.035.691c.37.266.89.39 1.401.203a10 10 0 0 0 2.982-1.725c.417-.349.57-.86.524-1.313c-.075-.753.057-1.48.42-2.106c.361-.627.925-1.105 1.615-1.416c.414-.187.782-.577.875-1.114a10 10 0 0 0 0-3.44a1.51 1.51 0 0 0-.875-1.113c-.69-.311-1.254-.79-1.616-1.417c-.362-.626-.494-1.353-.419-2.106a1.51 1.51 0 0 0-.524-1.313a10 10 0 0 0-2.982-1.725a1.51 1.51 0 0 0-1.4.203C13.42 3.25 12.723 3.5 12 3.5s-1.42-.249-2.035-.691M9 12a3 3 0 1 1 6 0a3 3 0 0 1-6 0"/></g>
  </symbol>
  <symbol id="fishy-information-circle" viewBox="0 0 24 24">
    <g fill="none"><path d="m12.593 23.258l-.011.002l-.071.035l-.02.004l-.014-.004l-.071-.035q-.016-.005-.024.005l-.004.01l-.017.428l.005.02l.01.013l.104.074l.015.004l.012-.004l.104-.074l.012-.016l.004-.017l-.017-.427q-.004-.016-.017-.018m.265-.113l-.013.002l-.185.093l-.01.01l-.003.011l.018.43l.005.012l.008.007l.201.093q.019.005.029-.008l.004-.014l-.034-.614q-.005-.018-.02-.022m-.715.002a.02.02 0 0 0-.027.006l-.006.014l-.034.614q.001.018.017.024l.015-.002l.201-.093l.01-.008l.004-.011l.017-.43l-.003-.012l-.01-.01z"/><path fill="currentColor" d="M4 16a1 1 0 0 1 .993.883L5 17v2h2a1 1 0 0 1 .117 1.993L7 21H5a2 2 0 0 1-1.995-1.85L3 19v-2a1 1 0 0 1 1-1m16 0a1 1 0 0 1 1 1v2a2 2 0 0 1-2 2h-2a1 1 0 1 1 0-2h2v-2a1 1 0 0 1 1-1m-4.358-8.955a1 1 0 0 1 1.357 1.186l-.044.127l-4.243 9.9a1 1 0 0 1-1.86-.057l-.034-.112l-.92-3.988l-3.987-.92a1 1 0 0 1-.273-1.841l.104-.052zM7 3a1 1 0 0 1 0 2H5v2a1 1 0 0 1-2 0V5a2 2 0 0 1 2-2zm12 0a2 2 0 0 1 2 2v2a1 1 0 1 1-2 0V5h-2a1 1 0 1 1 0-2z"/></g>
  </symbol>
  <symbol id="fishy-inspect-fill" viewBox="0 0 24 24">
    <g fill="none"><path d="m12.594 23.258l-.012.002l-.071.035l-.02.004l-.014-.004l-.071-.036q-.016-.004-.024.006l-.004.01l-.017.428l.005.02l.01.013l.104.074l.015.004l.012-.004l.104-.074l.012-.016l.004-.017l-.017-.427q-.004-.016-.016-.018m.264-.113l-.014.002l-.184.093l-.01.01l-.003.011l.018.43l.005.012l.008.008l.201.092q.019.005.029-.008l.004-.014l-.034-.614q-.005-.019-.02-.022m-.715.002a.02.02 0 0 0-.027.006l-.006.014l-.034.614q.001.018.017.024l.015-.002l.201-.093l.01-.008l.003-.011l.018-.43l-.003-.012l-.01-.01z"/><path fill="currentColor" d="M10.611 10.611a1 1 0 0 1 1.11-.208l8.839 3.889a1 1 0 0 1-.14 1.88l-2.787.76a1 1 0 0 0-.701.702l-.76 2.786a1 1 0 0 1-1.88.14l-3.89-8.84a1 1 0 0 1 .209-1.109M17 3a3 3 0 0 1 3 3v5.86l-7.474-3.288a3 3 0 0 0-3.954 3.954L11.861 20H6a3 3 0 0 1-3-3V6a3 3 0 0 1 3-3zm2.62 15.463a3 3 0 0 1-1.157 1.157l.248-.91z"/></g>
  </symbol>
  <symbol id="fishy-paw-fill" viewBox="0 0 24 24">
    <g fill="none" fill-rule="evenodd"><path d="m12.594 23.258l-.012.002l-.071.035l-.02.004l-.014-.004l-.071-.036q-.016-.004-.024.006l-.004.01l-.017.428l.005.02l.01.013l.104.074l.015.004l.012-.004l.104-.074l.012-.016l.004-.017l-.017-.427q-.004-.016-.016-.018m.264-.113l-.014.002l-.184.093l-.01.01l-.003.011l.018.43l.005.012l.008.008l.201.092q.019.005.029-.008l.004-.014l-.034-.614q-.005-.019-.02-.022m-.715.002a.02.02 0 0 0-.027.006l-.006.014l-.034.614q.001.018.017.024l.015-.002l.201-.093l.01-.008l.003-.011l.018-.43l-.003-.012l-.01-.01z"/><path fill="currentColor" d="M12 3a1 1 0 0 1 1 1v.19c1.257.504 2 1.93 2 3.31c0 1.713-1.146 3.5-3 3.5S9 9.213 9 7.5c0-1.38.743-2.806 2-3.31V4a1 1 0 0 1 1-1m6.6 3.543a2.56 2.56 0 0 0-1.093.307c-.608.325-1.115.878-1.431 1.556c-.316.677-.414 1.421-.272 2.095s.545 1.342 1.27 1.68c.724.338 1.495.218 2.103-.107c.607-.325 1.114-.878 1.43-1.555c.316-.678.414-1.422.272-2.096a2.6 2.6 0 0 0-.467-1.035a1 1 0 0 0-1.812-.845m-15.012.849c-.238.31-.39.67-.467 1.035c-.142.674-.044 1.418.272 2.095s.823 1.23 1.43 1.556c.608.325 1.379.445 2.103.107s1.128-1.006 1.27-1.68s.044-1.418-.272-2.096c-.316-.677-.823-1.23-1.43-1.555A2.6 2.6 0 0 0 5.4 6.547a1 1 0 0 0-1.813.845Zm3.563 6.227A8.07 8.07 0 0 1 12 12c1.89 0 3.6.666 4.849 1.619c1.213.925 2.151 2.255 2.151 3.659c0 1.407-1.184 2.335-2.349 2.857C15.406 20.692 13.76 21 12 21s-3.406-.308-4.651-.865C6.184 19.613 5 18.685 5 17.278c0-1.404.938-2.734 2.151-3.66Z"/></g>
  </symbol>
  <symbol id="fishy-squares-2x2" viewBox="0 0 24 24">
    <g fill="none"><path d="m12.594 23.258l-.012.002l-.071.035l-.02.004l-.014-.004l-.071-.036q-.016-.004-.024.006l-.004.01l-.017.428l.005.02l.01.013l.104.074l.015.004l.012-.004l.104-.074l.012-.016l.004-.017l-.017-.427q-.004-.016-.016-.018m.264-.113l-.014.002l-.184.093l-.01.01l-.003.011l.018.43l.005.012l.008.008l.201.092q.019.005.029-.008l.004-.014l-.034-.614q-.005-.019-.02-.022m-.715.002a.02.02 0 0 0-.027.006l-.006.014l-.034.614q.001.018.017.024l.015-.002l.201-.093l.01-.008l.003-.011l.018-.43l-.003-.012l-.01-.01z"/><path fill="currentColor" d="M18.01 9.378a2.5 2.5 0 0 1 2.985 2.29l.005.162v5.53a3 3 0 0 1-2.239 2.902l-.173.04l-5.598 1.12a2.5 2.5 0 0 1-2.985-2.29L10 18.97v-5.53a3 3 0 0 1 2.239-2.902l.173-.04zm-3.5-3.299a2.5 2.5 0 0 1 2.985 2.29l.005.162v.132L12.216 9.72a4 4 0 0 0-3.21 3.719L9 13.642v4.53a2.5 2.5 0 0 1-2.495-2.333l-.005-.168v-5.53a3 3 0 0 1 2.238-2.902l.174-.04zm-3.5-3.5a2.5 2.5 0 0 1 2.985 2.289L14 5.03v.132L8.716 6.218a4 4 0 0 0-3.21 3.72l-.006.203v4.53a2.5 2.5 0 0 1-2.495-2.333L3 12.17V6.64a3 3 0 0 1 2.238-2.902l.174-.04z"/></g>
  </symbol>
  <symbol id="fishy-search-field" viewBox="0 0 24 24">
    <g fill="none"><path d="M0 0h24v24H0z"/><path fill="currentColor" d="M10.5 2a8.5 8.5 0 0 1 6.676 13.762l3.652 3.652a1 1 0 0 1-1.414 1.414l-3.652-3.652A8.5 8.5 0 1 1 10.5 2m0 2a6.5 6.5 0 1 0 0 13a6.5 6.5 0 0 0 0-13m0 1a5.5 5.5 0 1 1 0 11a5.5 5.5 0 0 1 0-11"/></g>
  </symbol>
  <symbol id="fishy-map-view" viewBox="0 0 24 24">
    <g fill="none" fill-rule="evenodd"><path d="m12.593 23.258l-.011.002l-.071.035l-.02.004l-.014-.004l-.071-.035q-.016-.005-.024.005l-.004.01l-.017.428l.005.02l.01.013l.104.074l.015.004l.012-.004l.104-.074l.012-.016l.004-.017l-.017-.427q-.004-.016-.017-.018m.265-.113l-.013.002l-.185.093l-.01.01l-.003.011l.018.43l.005.012l.008.007l.201.093q.019.005.029-.008l.004-.014l-.034-.614q-.005-.018-.02-.022m-.715.002a.02.02 0 0 0-.027.006l-.006.014l-.034.614q.001.018.017.024l.015-.002l.201-.093l.01-.008l.004-.011l.017-.43l-.003-.012l-.01-.01z"/><path fill="currentColor" d="M9 5.054c-.065 1.642 0 11.973 0 11.973q.242 0 .474.077L15 18.946V6.973a1.5 1.5 0 0 1-.474-.077zm-.474-1.95a1.5 1.5 0 0 1 .948 0L15 4.946l5.289-1.763A1.3 1.3 0 0 1 22 4.416V17.64a1.5 1.5 0 0 1-1.026 1.423l-5.5 1.833c-.308.103-.64.103-.948 0L9 19.054l-5.289 1.763A1.3 1.3 0 0 1 2 19.584V6.36a1.5 1.5 0 0 1 1.026-1.423z"/></g>
  </symbol>
  <symbol id="fishy-trending-up-fill" viewBox="0 0 24 24">
    <g fill="none"><path d="M24 0v24H0V0zM12.594 23.258l-.012.002l-.071.035l-.02.004l-.014-.004l-.071-.036q-.016-.004-.024.006l-.004.01l-.017.428l.005.02l.01.013l.104.074l.015.004l.012-.004l.104-.074l.012-.016l.004-.017l-.017-.427q-.004-.016-.016-.018m.264-.113l-.014.002l-.184.093l-.01.01l-.003.011l.018.43l.005.012l.008.008l.201.092q.019.005.029-.008l.004-.014l-.034-.614q-.005-.018-.02-.022m-.715.002a.02.02 0 0 0-.027.006l-.006.014l-.034.614q.001.018.017.024l.015-.002l.201-.093l.01-.008l.003-.011l.018-.43l-.003-.012l-.01-.01z"/><path fill="currentColor" d="M17 5.5a1.5 1.5 0 0 0 0 3h.379L14 11.879l-3.44-3.44a1.5 1.5 0 0 0-2.12 0l-6.5 6.5a1.5 1.5 0 0 0 2.12 2.122l5.44-5.44l3.44 3.44a1.5 1.5 0 0 0 2.12 0l4.44-4.44V11a1.5 1.5 0 0 0 3 0V7A1.5 1.5 0 0 0 21 5.5z"/></g>
  </symbol>
  <symbol id="fishy-wheel-fill" viewBox="0 0 24 24">
    <g fill="none" fill-rule="evenodd"><path d="m12.593 23.258l-.011.002l-.071.035l-.02.004l-.014-.004l-.071-.035q-.016-.005-.024.005l-.004.01l-.017.428l.005.02l.01.013l.104.074l.015.004l.012-.004l.104-.074l.012-.016l.004-.017l-.017-.427q-.004-.016-.017-.018m.265-.113l-.013.002l-.185.093l-.01.01l-.003.011l.018.43l.005.012l.008.007l.201.093q.019.005.029-.008l.004-.014l-.034-.614q-.005-.018-.02-.022m-.715.002a.02.02 0 0 0-.027.006l-.006.014l-.034.614q.001.018.017.024l.015-.002l.201-.093l.01-.008l.004-.011l.017-.43l-.003-.012l-.01-.01z"/><path fill="currentColor" d="M12 2c5.523 0 10 4.477 10 10s-4.477 10-10 10S2 17.523 2 12S6.477 2 12 2m-1.47 13.197l-.747 1.12c-.317.476-.502 1.364.196 1.974c.415.363 1.075.71 2.021.71s1.606-.347 2.021-.71c.698-.61.513-1.498.196-1.973l-.747-1.121a1.767 1.767 0 0 0-2.94 0m6.262-3.971l-1.297.364a1.767 1.767 0 0 0-.909 2.796l.835 1.057c.354.448 1.142.9 1.938.424c.473-.283 1.007-.803 1.3-1.703c.292-.9.166-1.635-.051-2.142c-.364-.853-1.267-.951-1.816-.796m-9.584 0c-.55-.155-1.452-.057-1.816.796c-.217.507-.343 1.241-.05 2.142c.292.9.825 1.42 1.3 1.703c.748.447 1.49.074 1.87-.345l.067-.079l.835-1.057a1.767 1.767 0 0 0-.772-2.752l-.137-.044l-1.297-.365Zm.677-4.89c-.766.556-1.095 1.224-1.218 1.763c-.206.903.466 1.513 1.001 1.711l1.264.468A1.767 1.767 0 0 0 11.31 8.55l-.054-1.347c-.023-.57-.395-1.398-1.318-1.48c-.55-.05-1.288.057-2.053.613m8.23 0c-.765-.556-1.503-.663-2.052-.614c-.87.078-1.25.816-1.311 1.378l-.008.103l-.054 1.347a1.767 1.767 0 0 0 2.247 1.77l.131-.042l1.264-.468c.535-.198 1.207-.808 1.001-1.712c-.122-.538-.452-1.206-1.218-1.762"/></g>
  </symbol>
  <symbol id="fishy-cube-view" viewBox="0 0 24 24">
    <g fill="none" fill-rule="evenodd"><path d="m12.594 23.258l-.012.002l-.071.035l-.02.004l-.014-.004l-.071-.036q-.016-.004-.024.006l-.004.01l-.017.428l.005.02l.01.013l.104.074l.015.004l.012-.004l.104-.074l.012-.016l.004-.017l-.017-.427q-.004-.016-.016-.018m.264-.113l-.014.002l-.184.093l-.01.01l-.003.011l.018.43l.005.012l.008.008l.201.092q.019.005.029-.008l.004-.014l-.034-.614q-.005-.019-.02-.022m-.715.002a.02.02 0 0 0-.027.006l-.006.014l-.034.614q.001.018.017.024l.015-.002l.201-.093l.01-.008l.003-.011l.018-.43l-.003-.012l-.01-.01z"/><path fill="currentColor" d="M11.25 1.701a1.5 1.5 0 0 1 1.5 0l2 1.155a1.5 1.5 0 0 1-1.25 2.713V6a1.5 1.5 0 0 1-3 0v-.43a1.5 1.5 0 0 1-1.25-2.714zM7.18 7.487a1.5 1.5 0 0 0-1.724-2.44l-2 1.154a1.5 1.5 0 0 0-.75 1.299v2.31a1.5 1.5 0 0 0 2.975.272A1.5 1.5 0 0 0 7.18 7.487m9.315-1.892a1.5 1.5 0 0 1 2.05-.549l2 1.155a1.5 1.5 0 0 1 .75 1.3v2.308a1.5 1.5 0 0 1-2.976.273a1.5 1.5 0 0 1-1.498-2.595a1.5 1.5 0 0 1-.326-1.892M8.536 10a1.5 1.5 0 0 1 2.05-.55l1.414.818l1.415-.817a1.5 1.5 0 1 1 1.5 2.598l-1.415.817V14.5a1.5 1.5 0 1 1-3 0v-1.634l-1.415-.817a1.5 1.5 0 0 1-.549-2.05Zm-2.855 3.916a1.5 1.5 0 0 0-2.975.275V16.5a1.5 1.5 0 0 0 .75 1.299l2 1.155a1.5 1.5 0 0 0 1.725-2.44l.373-.215a1.5 1.5 0 1 0-1.5-2.598zm14.113-1.225a1.5 1.5 0 0 1 1.5 1.5v2.31a1.5 1.5 0 0 1-.75 1.298l-2 1.155a1.5 1.5 0 0 1-1.725-2.44l-.373-.215a1.5 1.5 0 1 1 1.5-2.598l.373.215a1.5 1.5 0 0 1 1.475-1.225M12 17a1.5 1.5 0 0 1 1.499 1.431a1.5 1.5 0 0 1 1.251 2.713l-2 1.155a1.5 1.5 0 0 1-1.5 0l-2-1.155a1.5 1.5 0 0 1 1.252-2.713A1.5 1.5 0 0 1 12 17"/></g>
  </symbol>
  <symbol id="fishy-hover-zone" viewBox="0 0 24 24">
    <g fill="none"><path d="m12.593 23.258l-.011.002l-.071.035l-.02.004l-.014-.004l-.071-.035q-.016-.005-.024.005l-.004.01l-.017.428l.005.02l.01.013l.104.074l.015.004l.012-.004l.104-.074l.012-.016l.004-.017l-.017-.427q-.004-.016-.017-.018m.265-.113l-.013.002l-.185.093l-.01.01l-.003.011l.018.43l.005.012l.008.007l.201.093q.019.005.029-.008l.004-.014l-.034-.614q-.005-.018-.02-.022m-.715.002a.02.02 0 0 0-.027.006l-.006.014l-.034.614q.001.018.017.024l.015-.002l.201-.093l.01-.008l.004-.011l.017-.43l-.003-.012l-.01-.01z"/><path fill="currentColor" d="M4 15a1 1 0 0 1 1 1v3h3a1 1 0 1 1 0 2H5a2 2 0 0 1-2-2v-3a1 1 0 0 1 1-1m16 0a1 1 0 0 1 .993.883L21 16v3a2 2 0 0 1-1.85 1.995L19 21h-3a1 1 0 0 1-.117-1.993L16 19h3v-3a1 1 0 0 1 1-1M19 3a2 2 0 0 1 1.995 1.85L21 5v3a1 1 0 0 1-1.993.117L19 8V5h-3a1 1 0 0 1-.117-1.993L16 3zM8 3a1 1 0 0 1 .117 1.993L8 5H5v3a1 1 0 0 1-1.993.117L3 8V5a2 2 0 0 1 1.85-1.995L5 3z"/></g>
  </symbol>
  <symbol id="fishy-crosshair" viewBox="0 0 24 24">
    <g fill="none" fill-rule="evenodd"><path d="m12.593 23.258l-.011.002l-.071.035l-.02.004l-.014-.004l-.071-.035q-.016-.005-.024.005l-.004.01l-.017.428l.005.02l.01.013l.104.074l.015.004l.012-.004l.104-.074l.012-.016l.004-.017l-.017-.427q-.004-.016-.017-.018m.265-.113l-.013.002l-.185.093l-.01.01l-.003.011l.018.43l.005.012l.008.007l.201.093q.019.005.029-.008l.004-.014l-.034-.614q-.005-.018-.02-.022m-.715.002a.02.02 0 0 0-.027.006l-.006.014l-.034.614q.001.018.017.024l.015-.002l.201-.093l.01-.008l.004-.011l.017-.43l-.003-.012l-.01-.01z"/><path fill="currentColor" d="M12 2a1 1 0 0 1 1 1v.055A9.004 9.004 0 0 1 20.945 11H21a1 1 0 1 1 0 2h-.055A9.004 9.004 0 0 1 13 20.945V21a1 1 0 1 1-2 0v-.055A9.004 9.004 0 0 1 3.055 13H3a1 1 0 1 1 0-2h.055A9.004 9.004 0 0 1 11 3.055V3a1 1 0 0 1 1-1m0 3a7 7 0 1 0 0 14a7 7 0 0 0 0-14m0 3a4 4 0 1 1 0 8a4 4 0 0 1 0-8m0 2a2 2 0 1 0 0 4a2 2 0 0 0 0-4"/></g>
  </symbol>
  <symbol id="fishy-hover-origin" viewBox="0 0 24 24">
    <g fill="none" fill-rule="evenodd"><path d="m12.593 23.258l-.011.002l-.071.035l-.02.004l-.014-.004l-.071-.035q-.016-.005-.024.005l-.004.01l-.017.428l.005.02l.01.013l.104.074l.015.004l.012-.004l.104-.074l.012-.016l.004-.017l-.017-.427q-.004-.016-.017-.018m.265-.113l-.013.002l-.185.093l-.01.01l-.003.011l.018.43l.005.012l.008.007l.201.093q.019.005.029-.008l.004-.014l-.034-.614q-.005-.018-.02-.022m-.715.002a.02.02 0 0 0-.027.006l-.006.014l-.034.614q.001.018.017.024l.015-.002l.201-.093l.01-.008l.004-.011l.017-.43l-.003-.012l-.01-.01z"/><path fill="currentColor" d="M7 7a5 5 0 1 1 6 4.9V17a1 1 0 1 1-2 0v-5.1A5 5 0 0 1 7 7m2.489 9.1a1 1 0 0 1-.838 1.14c-1.278.195-2.293.489-2.96.815c-.335.164-.534.313-.637.422l-.021.023c.033.039.09.096.19.169c.28.207.749.435 1.418.644C7.968 19.728 9.863 20 12 20s4.032-.272 5.359-.687c.67-.209 1.138-.437 1.418-.644c.1-.073.157-.13.19-.169l-.021-.023c-.103-.109-.302-.258-.637-.422c-.667-.326-1.682-.62-2.96-.815a1 1 0 1 1 .301-1.977c1.388.21 2.622.547 3.539.996c.457.224.884.5 1.208.842c.33.347.603.82.603 1.399c0 .811-.524 1.4-1.034 1.777c-.53.392-1.233.702-2.01.945c-1.57.49-3.674.778-5.956.778s-4.387-.288-5.955-.778c-.778-.243-1.48-.553-2.01-.945C3.524 19.9 3 19.311 3 18.5c0-.58.273-1.052.603-1.4c.325-.342.751-.617 1.208-.84c.917-.45 2.152-.786 3.538-.997a1 1 0 0 1 1.14.838Z"/></g>
  </symbol>
  <symbol id="fishy-trade-origin" viewBox="0 0 24 24">
    <g fill="none" fill-rule="evenodd"><path d="m12.593 23.258l-.011.002l-.071.035l-.02.004l-.014-.004l-.071-.035q-.016-.005-.024.005l-.004.01l-.017.428l.005.02l.01.013l.104.074l.015.004l.012-.004l.104-.074l.012-.016l.004-.017l-.017-.427q-.004-.016-.017-.018m.265-.113l-.013.002l-.185.093l-.01.01l-.003.011l.018.43l.005.012l.008.007l.201.093q.019.005.029-.008l.004-.014l-.034-.614q-.005-.018-.02-.022m-.715.002a.02.02 0 0 0-.027.006l-.006.014l-.034.614q.001.018.017.024l.015-.002l.201-.093l.01-.008l.004-.011l.017-.43l-.003-.012l-.01-.01z"/><path fill="currentColor" d="M12 2c5.523 0 10 4.477 10 10s-4.477 10-10 10S2 17.523 2 12S6.477 2 12 2m-1.47 13.197l-.747 1.12c-.317.476-.502 1.364.196 1.974c.415.363 1.075.71 2.021.71s1.606-.347 2.021-.71c.698-.61.513-1.498.196-1.973l-.747-1.121a1.767 1.767 0 0 0-2.94 0m6.262-3.971l-1.297.364a1.767 1.767 0 0 0-.909 2.796l.835 1.057c.354.448 1.142.9 1.938.424c.473-.283 1.007-.803 1.3-1.703c.292-.9.166-1.635-.051-2.142c-.364-.853-1.267-.951-1.816-.796m-9.584 0c-.55-.155-1.452-.057-1.816.796c-.217.507-.343 1.241-.05 2.142c.292.9.825 1.42 1.3 1.703c.748.447 1.49.074 1.87-.345l.067-.079l.835-1.057a1.767 1.767 0 0 0-.772-2.752l-.137-.044l-1.297-.365Zm.677-4.89c-.766.556-1.095 1.224-1.218 1.763c-.206.903.466 1.513 1.001 1.711l1.264.468A1.767 1.767 0 0 0 11.31 8.55l-.054-1.347c-.023-.57-.395-1.398-1.318-1.48c-.55-.05-1.288.057-2.053.613m8.23 0c-.765-.556-1.503-.663-2.052-.614c-.87.078-1.25.816-1.311 1.378l-.008.103l-.054 1.347a1.767 1.767 0 0 0 2.247 1.77l.131-.042l1.264-.468c.535-.198 1.207-.808 1.001-1.712c-.122-.538-.452-1.206-1.218-1.762"/></g>
  </symbol>
  <symbol id="fishy-hover-resources" viewBox="0 0 24 24">
    <g fill="none"><path d="m12.593 23.258l-.011.002l-.071.035l-.02.004l-.014-.004l-.071-.035q-.016-.005-.024.005l-.004.01l-.017.428l.005.02l.01.013l.104.074l.015.004l.012-.004l.104-.074l.012-.016l.004-.017l-.017-.427q-.004-.016-.017-.018m.265-.113l-.013.002l-.185.093l-.01.01l-.003.011l.018.43l.005.012l.008.007l.201.093q.019.005.029-.008l.004-.014l-.034-.614q-.005-.018-.02-.022m-.715.002a.02.02 0 0 0-.027.006l-.006.014l-.034.614q.001.018.017.024l.015-.002l.201-.093l.01-.008l.004-.011l.017-.43l-.003-.012l-.01-.01z"/><path fill="currentColor" d="M13 3a2 2 0 0 1 1.995 1.85L15 5v16H9V5a2 2 0 0 1 1.85-1.995L11 3zm7 5a2 2 0 0 1 2 2v9a2 2 0 0 1-2 2h-3V8zM7 11v10H4a2 2 0 0 1-2-2v-6a2 2 0 0 1 2-2z"/></g>
  </symbol>
  <symbol id="fishy-question-mark" viewBox="0 0 24 24">
    <g fill="none"><path d="m12.594 23.258l-.012.002l-.071.035l-.02.004l-.014-.004l-.071-.036q-.016-.004-.024.006l-.004.01l-.017.428l.005.02l.01.013l.104.074l.015.004l.012-.004l.104-.074l.012-.016l.004-.017l-.017-.427q-.004-.016-.016-.018m.264-.113l-.014.002l-.184.093l-.01.01l-.003.011l.018.43l.005.012l.008.008l.201.092q.019.005.029-.008l.004-.014l-.034-.614q-.005-.019-.02-.022m-.715.002a.02.02 0 0 0-.027.006l-.006.014l-.034.614q.001.018.017.024l.015-.002l.201-.093l.01-.008l.003-.011l.018-.43l-.003-.012l-.01-.01z"/><path fill="currentColor" d="M12.004 18.5a1.5 1.5 0 0 1 0 3H12a1.5 1.5 0 0 1 0-3zM12 2.5A6.5 6.5 0 0 1 18.5 9c0 1.896-1.174 3.605-2.88 4.578c-.637.364-1.2.782-1.589 1.23c-.38.437-.531.828-.531 1.192a1.5 1.5 0 0 1-3 0c0-1.293.567-2.354 1.266-3.16c.69-.795 1.566-1.41 2.368-1.867C15.093 10.425 15.5 9.618 15.5 9a3.5 3.5 0 1 0-7 0a1.5 1.5 0 1 1-3 0A6.5 6.5 0 0 1 12 2.5"/></g>
  </symbol>
  <symbol id="fishy-bookmark" viewBox="0 0 24 24">
    <g fill="none"><path d="m12.593 23.258l-.011.002l-.071.035l-.02.004l-.014-.004l-.071-.035q-.016-.005-.024.005l-.004.01l-.017.428l.005.02l.01.013l.104.074l.015.004l.012-.004l.104-.074l.012-.016l.004-.017l-.017-.427q-.004-.016-.017-.018m.265-.113l-.013.002l-.185.093l-.01.01l-.003.011l.018.43l.005.012l.008.007l.201.093q.019.005.029-.008l.004-.014l-.034-.614q-.005-.018-.02-.022m-.715.002a.02.02 0 0 0-.027.006l-.006.014l-.034.614q.001.018.017.024l.015-.002l.201-.093l.01-.008l.004-.011l.017-.43l-.003-.012l-.01-.01z"/><path fill="currentColor" d="M4 5a3 3 0 0 1 3-3h10a3 3 0 0 1 3 3v16.028c0 1.22-1.38 1.93-2.372 1.221L12 18.229l-5.628 4.02c-.993.71-2.372 0-2.372-1.22z"/></g>
  </symbol>
  <symbol id="fishy-bookmarks" viewBox="0 0 24 24">
    <g fill="none" fill-rule="evenodd"><path d="m12.594 23.258l-.012.002l-.071.035l-.02.004l-.014-.004l-.071-.036q-.016-.004-.024.006l-.004.01l-.017.428l.005.02l.01.013l.104.074l.015.004l.012-.004l.104-.074l.012-.016l.004-.017l-.017-.427q-.004-.016-.016-.018m.264-.113l-.014.002l-.184.093l-.01.01l-.003.011l.018.43l.005.012l.008.008l.201.092q.019.005.029-.008l.004-.014l-.034-.614q-.005-.019-.02-.022m-.715.002a.02.02 0 0 0-.027.006l-.006.014l-.034.614q.001.018.017.024l.015-.002l.201-.093l.01-.008l.003-.011l.018-.43l-.003-.012l-.01-.01z"/><path fill="currentColor" d="M10 2a3 3 0 0 0-3 3a3 3 0 0 0-3 3v13.018c0 1.226 1.39 1.934 2.382 1.213l4.118-2.995l4.118 2.995c.991.721 2.382.013 2.382-1.213v-2.236l.618.45c.991.72 2.382.012 2.382-1.214V5a3 3 0 0 0-3-3zm7 14.309l1 .727V5a1 1 0 0 0-1-1h-7a1 1 0 0 0-1 1h5a3 3 0 0 1 3 3z"/></g>
  </symbol>
  <symbol id="fishy-bookmark-add" viewBox="0 0 24 24">
    <g fill="none"><path d="m12.594 23.258l-.012.002l-.071.035l-.02.004l-.014-.004l-.071-.036q-.016-.004-.024.006l-.004.01l-.017.428l.005.02l.01.013l.104.074l.015.004l.012-.004l.104-.074l.012-.016l.004-.017l-.017-.427q-.004-.016-.016-.018m.264-.113l-.014.002l-.184.093l-.01.01l-.003.011l.018.43l.005.012l.008.008l.201.092q.019.005.029-.008l.004-.014l-.034-.614q-.005-.019-.02-.022m-.715.002a.02.02 0 0 0-.027.006l-.006.014l-.034.614q.001.018.017.024l.015-.002l.201-.093l.01-.008l.003-.011l.018-.43l-.003-.012l-.01-.01z"/><path fill="currentColor" d="M19 15a1 1 0 0 1 .993.883L20 16v2h2a1 1 0 0 1 .117 1.993L22 20h-2v2a1 1 0 0 1-1.993.117L18 22v-2h-2a1 1 0 0 1-.117-1.993L16 18h2v-2a1 1 0 0 1 1-1M16 2a3 3 0 0 1 3 3v8a3 3 0 0 0-3 3a3 3 0 0 0-2.997 2.87L12 18.202l-4.668 3.112C6.335 21.978 5 21.264 5 20.066V5a3 3 0 0 1 3-3z"/></g>
  </symbol>
  <symbol id="fishy-bookmark-edit" viewBox="0 0 24 24">
    <g fill="none"><path d="m12.594 23.258l-.012.002l-.071.035l-.02.004l-.014-.004l-.071-.036q-.016-.004-.024.006l-.004.01l-.017.428l.005.02l.01.013l.104.074l.015.004l.012-.004l.104-.074l.012-.016l.004-.017l-.017-.427q-.004-.016-.016-.018m.264-.113l-.014.002l-.184.093l-.01.01l-.003.011l.018.43l.005.012l.008.008l.201.092q.019.005.029-.008l.004-.014l-.034-.614q-.005-.019-.02-.022m-.715.002a.02.02 0 0 0-.027.006l-.006.014l-.034.614q.001.018.017.024l.015-.002l.201-.093l.01-.008l.003-.011l.018-.43l-.003-.012l-.01-.01z"/><path fill="currentColor" d="M18.677 15.034a2.5 2.5 0 0 1 3.657 3.404l-.122.131l-3.417 3.418a1.5 1.5 0 0 1-.69.393l-.159.031l-2.309.33a1 1 0 0 1-1.142-1.017l.01-.116l.33-2.308a1.5 1.5 0 0 1 .316-.728l.108-.12zM16 2a3 3 0 0 1 3 3v7.538a4.5 4.5 0 0 0-1.738 1.081l-3.417 3.418a3.5 3.5 0 0 0-.952 1.76L12 18.203l-4.668 3.112C6.335 21.978 5 21.264 5 20.066V5a3 3 0 0 1 3-3z"/></g>
  </symbol>
  <symbol id="fishy-pin" viewBox="0 0 24 24">
    <g fill="none"><path d="m12.593 23.258l-.011.002l-.071.035l-.02.004l-.014-.004l-.071-.035q-.016-.005-.024.005l-.004.01l-.017.428l.005.02l.01.013l.104.074l.015.004l.012-.004l.104-.074l.012-.016l.004-.017l-.017-.427q-.004-.016-.017-.018m.265-.113l-.013.002l-.185.093l-.01.01l-.003.011l.018.43l.005.012l.008.007l.201.093q.019.005.029-.008l.004-.014l-.034-.614q-.005-.018-.02-.022m-.715.002a.02.02 0 0 0-.027.006l-.006.014l-.034.614q.001.018.017.024l.015-.002l.201-.093l.01-.008l.004-.011l.017-.43l-.003-.012l-.01-.01z"/><path fill="currentColor" d="M16.735 2.835a2 2 0 0 0-2.615-.186l-2.913 2.185a9 9 0 0 1-4.127 1.71l-2.177.31c-.73.105-1.265.891-.913 1.662c.331.723 1.385 2.629 4.36 5.72l-4.178 4.178a1 1 0 1 0 1.414 1.414l4.178-4.178c3.091 2.975 4.997 4.029 5.72 4.36c.77.352 1.557-.183 1.661-.913l.311-2.177a9 9 0 0 1 1.71-4.127L21.35 9.88a2 2 0 0 0-.186-2.615z"/></g>
  </symbol>
  <symbol id="fishy-copy" viewBox="0 0 24 24">
    <g fill="none" fill-rule="evenodd"><path d="m12.593 23.258l-.011.002l-.071.035l-.02.004l-.014-.004l-.071-.035q-.016-.005-.024.005l-.004.01l-.017.428l.005.02l.01.013l.104.074l.015.004l.012-.004l.104-.074l.012-.016l.004-.017l-.017-.427q-.004-.016-.017-.018m.265-.113l-.013.002l-.185.093l-.01.01l-.003.011l.018.43l.005.012l.008.007l.201.093q.019.005.029-.008l.004-.014l-.034-.614q-.005-.018-.02-.022m-.715.002a.02.02 0 0 0-.027.006l-.006.014l-.034.614q.001.018.017.024l.015-.002l.201-.093l.01-.008l.004-.011l.017-.43l-.003-.012l-.01-.01z"/><path fill="currentColor" d="M9 2a2 2 0 0 0-2 2v2h2V4h11v11h-2v2h2a2 2 0 0 0 2-2V4a2 2 0 0 0-2-2zM4 7a2 2 0 0 0-2 2v11a2 2 0 0 0 2 2h11a2 2 0 0 0 2-2V9a2 2 0 0 0-2-2z"/></g>
  </symbol>
  <symbol id="fishy-export" viewBox="0 0 24 24">
    <g fill="none"><path d="m12.593 23.258l-.011.002l-.071.035l-.02.004l-.014-.004l-.071-.035q-.016-.005-.024.005l-.004.01l-.017.428l.005.02l.01.013l.104.074l.015.004l.012-.004l.104-.074l.012-.016l.004-.017l-.017-.427q-.004-.016-.017-.018m.265-.113l-.013.002l-.185.093l-.01.01l-.003.011l.018.43l.005.012l.008.007l.201.093q.019.005.029-.008l.004-.014l-.034-.614q-.005-.018-.02-.022m-.715.002a.02.02 0 0 0-.027.006l-.006.014l-.034.614q.001.018.017.024l.015-.002l.201-.093l.01-.008l.004-.011l.017-.43l-.003-.012l-.01-.01z"/><path fill="currentColor" d="M12 11a1 1 0 0 1 1 1v6.584l1.293-1.292a1 1 0 0 1 1.414 1.416l-2.824 2.819c-.253.252-.5.473-.883.473c-.336 0-.566-.169-.788-.38l-2.919-2.912a1 1 0 0 1 1.414-1.416L11 18.584V12a1 1 0 0 1 1-1m-.5-9c2.784 0 5.16 1.75 6.086 4.212a6.003 6.003 0 0 1 .395 11.453a3 3 0 0 0-.858-1.785a3 3 0 0 0-1.914-.873L15 15v-3a3 3 0 0 0-5.995-.176L9 12v3a3 3 0 0 0-2.123.88a3 3 0 0 0-.875 2.02A5.002 5.002 0 0 1 5 8.416A6.5 6.5 0 0 1 11.5 2"/></g>
  </symbol>
  <symbol id="fishy-import" viewBox="0 0 24 24">
    <g fill="none"><path d="m12.593 23.258l-.011.002l-.071.035l-.02.004l-.014-.004l-.071-.035q-.016-.005-.024.005l-.004.01l-.017.428l.005.02l.01.013l.104.074l.015.004l.012-.004l.104-.074l.012-.016l.004-.017l-.017-.427q-.004-.016-.017-.018m.265-.113l-.013.002l-.185.093l-.01.01l-.003.011l.018.43l.005.012l.008.007l.201.093q.019.005.029-.008l.004-.014l-.034-.614q-.005-.018-.02-.022m-.715.002a.02.02 0 0 0-.027.006l-.006.014l-.034.614q.001.018.017.024l.015-.002l.201-.093l.01-.008l.004-.011l.017-.43l-.003-.012l-.01-.01z"/><path fill="currentColor" d="M11.117 9.473a1.25 1.25 0 0 1 1.665-.09l.101.09l2.824 2.82a1 1 0 0 1-1.32 1.498l-.094-.083L13 12.416V21a1 1 0 0 1-1.993.117L11 21v-8.584l-1.293 1.292a1 1 0 0 1-1.497-1.321l.083-.095zM11.5 2c2.784 0 5.16 1.75 6.086 4.212a6 6 0 0 1-1.36 11.784L16 18h-1v-2a3 3 0 0 0 2.255-4.979l-.135-.144l-2.824-2.819a3.25 3.25 0 0 0-4.448-.135l-.144.135l-2.824 2.82a3 3 0 0 0 1.91 5.115L9 16v2H7a5 5 0 0 1-2-9.584A6.5 6.5 0 0 1 11.5 2"/></g>
  </symbol>
  <symbol id="fishy-select-all" viewBox="0 0 24 24">
    <g fill="none" fill-rule="evenodd"><path d="m12.594 23.258l-.012.002l-.071.035l-.02.004l-.014-.004l-.071-.036q-.016-.004-.024.006l-.004.01l-.017.428l.005.02l.01.013l.104.074l.015.004l.012-.004l.104-.074l.012-.016l.004-.017l-.017-.427q-.004-.016-.016-.018m.264-.113l-.014.002l-.184.093l-.01.01l-.003.011l.018.43l.005.012l.008.008l.201.092q.019.005.029-.008l.004-.014l-.034-.614q-.005-.019-.02-.022m-.715.002a.02.02 0 0 0-.027.006l-.006.014l-.034.614q.001.018.017.024l.015-.002l.201-.093l.01-.008l.003-.011l.018-.43l-.003-.012l-.01-.01z"/><path fill="currentColor" d="M19.495 3.133a1 1 0 0 1 1.352.309l.99 1.51a1 1 0 0 1-.155 1.279l-.003.004l-.014.013l-.057.053l-.225.215a84 84 0 0 0-3.62 3.736c-2.197 2.416-4.806 5.578-6.562 8.646c-.49.856-1.687 1.04-2.397.301l-6.485-6.738a1 1 0 0 1 .051-1.436l1.96-1.768A1 1 0 0 1 5.6 9.2l3.309 2.481c5.169-5.097 8.1-7.053 10.586-8.548"/></g>
  </symbol>
  <symbol id="fishy-clear" viewBox="0 0 24 24">
    <g fill="none"><path d="m12.593 23.258l-.011.002l-.071.035l-.02.004l-.014-.004l-.071-.035q-.016-.005-.024.005l-.004.01l-.017.428l.005.02l.01.013l.104.074l.015.004l.012-.004l.104-.074l.012-.016l.004-.017l-.017-.427q-.004-.016-.017-.018m.265-.113l-.013.002l-.185.093l-.01.01l-.003.011l.018.43l.005.012l.008.007l.201.093q.019.005.029-.008l.004-.014l-.034-.614q-.005-.018-.02-.022m-.715.002a.02.02 0 0 0-.027.006l-.006.014l-.034.614q.001.018.017.024l.015-.002l.201-.093l.01-.008l.004-.011l.017-.43l-.003-.012l-.01-.01z"/><path fill="currentColor" d="M12 2c5.523 0 10 4.477 10 10s-4.477 10-10 10S2 17.523 2 12S6.477 2 12 2M9.879 8.464a1 1 0 0 0-1.498 1.32l.084.095l2.12 2.12l-2.12 2.122a1 1 0 0 0 1.32 1.498l.094-.083L12 13.414l2.121 2.122a1 1 0 0 0 1.498-1.32l-.083-.095L13.414 12l2.122-2.121a1 1 0 0 0-1.32-1.498l-.095.083L12 10.586z"/></g>
  </symbol>
  <symbol id="fishy-trash" viewBox="0 0 24 24">
    <g fill="none" fill-rule="evenodd"><path d="m12.593 23.258l-.011.002l-.071.035l-.02.004l-.014-.004l-.071-.035q-.016-.005-.024.005l-.004.01l-.017.428l.005.02l.01.013l.104.074l.015.004l.012-.004l.104-.074l.012-.016l.004-.017l-.017-.427q-.004-.016-.017-.018m.265-.113l-.013.002l-.185.093l-.01.01l-.003.011l.018.43l.005.012l.008.007l.201.093q.019.005.029-.008l.004-.014l-.034-.614q-.005-.018-.02-.022m-.715.002a.02.02 0 0 0-.027.006l-.006.014l-.034.614q.001.018.017.024l.015-.002l.201-.093l.01-.008l.004-.011l.017-.43l-.003-.012l-.01-.01z"/><path fill="currentColor" d="M14.28 2a2 2 0 0 1 1.897 1.368L16.72 5H20a1 1 0 1 1 0 2l-.003.071l-.867 12.143A3 3 0 0 1 16.138 22H7.862a3 3 0 0 1-2.992-2.786L4.003 7.07L4 7a1 1 0 0 1 0-2h3.28l.543-1.632A2 2 0 0 1 9.721 2zM9 10a1 1 0 0 0-.993.883L8 11v6a1 1 0 0 0 1.993.117L10 17v-6a1 1 0 0 0-1-1m6 0a1 1 0 0 0-1 1v6a1 1 0 1 0 2 0v-6a1 1 0 0 0-1-1m-.72-6H9.72l-.333 1h5.226z"/></g>
  </symbol>
  <symbol id="fishy-eye" viewBox="0 0 24 24">
    <g fill="none" fill-rule="evenodd"><path d="m12.593 23.258l-.011.002l-.071.035l-.02.004l-.014-.004l-.071-.035q-.016-.005-.024.005l-.004.01l-.017.428l.005.02l.01.013l.104.074l.015.004l.012-.004l.104-.074l.012-.016l.004-.017l-.017-.427q-.004-.016-.017-.018m.265-.113l-.013.002l-.185.093l-.01.01l-.003.011l.018.43l.005.012l.008.007l.201.093q.019.005.029-.008l.004-.014l-.034-.614q-.005-.018-.02-.022m-.715.002a.02.02 0 0 0-.027.006l-.006.014l-.034.614q.001.018.017.024l.015-.002l.201-.093l.01-.008l.004-.011l.017-.43l-.003-.012l-.01-.01z"/><path fill="currentColor" d="M12 4C9.213 4 6.737 5.257 4.974 6.813C4.09 7.594 3.36 8.47 2.846 9.344C2.34 10.201 2 11.13 2 12s.34 1.799.846 2.656c.514.873 1.243 1.75 2.128 2.531C6.737 18.743 9.214 20 12 20c2.787 0 5.263-1.257 7.026-2.813c.885-.781 1.614-1.658 2.128-2.531C21.66 13.799 22 12.87 22 12s-.34-1.799-.846-2.656c-.514-.873-1.243-1.75-2.128-2.531C17.263 5.257 14.786 4 12 4m2 8c.36 0 .697-.095.989-.261A3 3 0 1 1 12.26 9.01A2 2 0 0 0 14 12"/></g>
  </symbol>
  <symbol id="fishy-eye-slash" viewBox="0 0 24 24">
    <g fill="none" fill-rule="evenodd"><path d="m12.593 23.258l-.011.002l-.071.035l-.02.004l-.014-.004l-.071-.035q-.016-.005-.024.005l-.004.01l-.017.428l.005.02l.01.013l.104.074l.015.004l.012-.004l.104-.074l.012-.016l.004-.017l-.017-.427q-.004-.016-.017-.018m.265-.113l-.013.002l-.185.093l-.01.01l-.003.011l.018.43l.005.012l.008.007l.201.093q.019.005.029-.008l.004-.014l-.034-.614q-.005-.018-.02-.022m-.715.002a.02.02 0 0 0-.027.006l-.006.014l-.034.614q.001.018.017.024l.015-.002l.201-.093l.01-.008l.004-.011l.017-.43l-.003-.012l-.01-.01z"/><path fill="currentColor" d="M2.5 9a1.5 1.5 0 0 1 2.945-.404c1.947 6.502 11.158 6.503 13.109.005a1.5 1.5 0 1 1 2.877.85a10.1 10.1 0 0 1-1.623 3.236l.96.96a1.5 1.5 0 1 1-2.122 2.12l-1.01-1.01a9.6 9.6 0 0 1-1.67.915l.243.906a1.5 1.5 0 0 1-2.897.776l-.251-.935c-.705.073-1.417.073-2.122 0l-.25.935a1.5 1.5 0 0 1-2.898-.776l.242-.907a9.6 9.6 0 0 1-1.669-.914l-1.01 1.01a1.5 1.5 0 1 1-2.122-2.12l.96-.96a10.1 10.1 0 0 1-1.62-3.23A1.5 1.5 0 0 1 2.5 9"/></g>
  </symbol>
  <symbol id="fishy-drag-handle" viewBox="0 0 24 24">
    <g fill="none"><path d="M24 0v24H0V0zM12.593 23.258l-.011.002l-.071.035l-.02.004l-.014-.004l-.071-.035q-.016-.005-.024.005l-.004.01l-.017.428l.005.02l.01.013l.104.074l.015.004l.012-.004l.104-.074l.012-.016l.004-.017l-.017-.427q-.004-.016-.017-.018m.265-.113l-.013.002l-.185.093l-.01.01l-.003.011l.018.43l.005.012l.008.007l.201.093q.019.005.029-.008l.004-.014l-.034-.614q-.005-.019-.02-.022m-.715.002a.02.02 0 0 0-.027.006l-.006.014l-.034.614q.001.018.017.024l.015-.002l.201-.093l.01-.008l.004-.011l.017-.43l-.003-.012l-.01-.01z"/><path fill="currentColor" d="M8.11 7.06a1.5 1.5 0 0 1 0-2.12l2.758-2.758a1.6 1.6 0 0 1 2.263 0l2.758 2.757a1.5 1.5 0 1 1-2.121 2.122l-.268-.268V10.5h3.707l-.268-.268a1.5 1.5 0 0 1 2.122-2.121l2.757 2.758a1.6 1.6 0 0 1 0 2.262l-2.757 2.758a1.5 1.5 0 0 1-2.122-2.121l.268-.268H13.5v3.707l.268-.268a1.5 1.5 0 0 1 2.121 2.122l-2.758 2.757a1.6 1.6 0 0 1-2.263 0l-2.757-2.757a1.5 1.5 0 0 1 2.121-2.122l.268.268V13.5H6.793l.268.268a1.5 1.5 0 1 1-2.122 2.121l-2.757-2.758a1.6 1.6 0 0 1 0-2.262L4.939 8.11a1.5 1.5 0 1 1 2.122 2.121l-.268.268H10.5V6.793l-.268.268a1.5 1.5 0 0 1-2.121 0Z"/></g>
  </symbol>
  <symbol id="fishy-settings-1" viewBox="0 0 24 24">
    <g fill="none"><path d="m12.593 23.258l-.011.002l-.071.035l-.02.004l-.014-.004l-.071-.035q-.016-.005-.024.005l-.004.01l-.017.428l.005.02l.01.013l.104.074l.015.004l.012-.004l.104-.074l.012-.016l.004-.017l-.017-.427q-.004-.016-.017-.018m.265-.113l-.013.002l-.185.093l-.01.01l-.003.011l.018.43l.005.012l.008.007l.201.093q.019.005.029-.008l.004-.014l-.034-.614q-.005-.018-.02-.022m-.715.002a.02.02 0 0 0-.027.006l-.006.014l-.034.614q.001.018.017.024l.015-.002l.201-.093l.01-.008l.004-.011l.017-.43l-.003-.012l-.01-.01z"/><path fill="currentColor" d="M10.75 2.567a2.5 2.5 0 0 1 2.5 0L19.544 6.2a2.5 2.5 0 0 1 1.25 2.165v7.268a2.5 2.5 0 0 1-1.25 2.165l-6.294 3.634a2.5 2.5 0 0 1-2.5 0l-6.294-3.634a2.5 2.5 0 0 1-1.25-2.165V8.366A2.5 2.5 0 0 1 4.456 6.2zM12 9a3 3 0 1 0 0 6a3 3 0 0 0 0-6"/></g>
  </symbol>
  <symbol id="fishy-user-4" viewBox="0 0 24 24">
    <g fill="none" fill-rule="evenodd"><path d="m12.594 23.258l-.012.002l-.071.035l-.02.004l-.014-.004l-.071-.036q-.016-.004-.024.006l-.004.01l-.017.428l.005.02l.01.013l.104.074l.015.004l.012-.004l.104-.074l.012-.016l.004-.017l-.017-.427q-.004-.016-.016-.018m.264-.113l-.014.002l-.184.093l-.01.01l-.003.011l.018.43l.005.012l.008.008l.201.092q.019.005.029-.008l.004-.014l-.034-.614q-.005-.019-.02-.022m-.715.002a.02.02 0 0 0-.027.006l-.006.014l-.034.614q.001.018.017.024l.015-.002l.201-.093l.01-.008l.003-.011l.018-.43l-.003-.012l-.01-.01z"/><path fill="currentColor" d="M12 2C6.477 2 2 6.477 2 12s4.477 10 10 10s10-4.477 10-10S17.523 2 12 2M8.5 9.5a3.5 3.5 0 1 1 7 0a3.5 3.5 0 0 1-7 0m9.758 7.484A7.99 7.99 0 0 1 12 20a7.99 7.99 0 0 1-6.258-3.016C7.363 15.821 9.575 15 12 15s4.637.821 6.258 1.984"/></g>
  </symbol>
  <symbol id="fishy-broom-fill" viewBox="0 0 24 24">
    <g fill="none" fill-rule="evenodd"><path d="m12.594 23.258l-.012.002l-.071.035l-.02.004l-.014-.004l-.071-.036q-.016-.004-.024.006l-.004.01l-.017.428l.005.02l.01.013l.104.074l.015.004l.012-.004l.104-.074l.012-.016l.004-.017l-.017-.427q-.004-.016-.016-.018m.264-.113l-.014.002l-.184.093l-.01.01l-.003.011l.018.43l.005.012l.008.008l.201.092q.019.005.029-.008l.004-.014l-.034-.614q-.005-.019-.02-.022m-.715.002a.02.02 0 0 0-.027.006l-.006.014l-.034.614q.001.018.017.024l.015-.002l.201-.093l.01-.008l.003-.011l.018-.43l-.003-.012l-.01-.01z"/><path fill="currentColor" d="M17.278 2.613a1 1 0 0 1 1.89.643l-.038.11l-2.61 6.42l.657.175c1.05.281 1.924 1.134 2.09 2.298c.142 1 .275 2.52.092 4.086c-.182 1.552-.69 3.278-1.947 4.546c-.462.466-1.125.54-1.573.548c-.511.008-1.1-.07-1.705-.19c-1.216-.242-2.675-.69-4.054-1.166l-.414-.145l-.813-.294l-.78-.291l-.734-.283l-.978-.388a70 70 0 0 1-1.648-.684a1 1 0 0 1-.22-1.704c1.378-1.08 2.67-2.322 3.762-3.469l.528-.564q.13-.139.251-.274l.472-.527l.22-.252l.594-.695l.337-.406a3.1 3.1 0 0 1 2.981-1.087l.199.046l.737.197zm-3.959 8.385a1.09 1.09 0 0 0-1.116.378l-.243.293l5.398 1.446l-.047-.392l-.025-.182c-.036-.253-.215-.491-.51-.61l-.116-.038zM5.565 7.716l.064.14A3.26 3.26 0 0 0 6.866 9.22l.1.058a.068.068 0 0 1 0 .118l-.1.058A3.26 3.26 0 0 0 5.63 10.82l-.064.139a.071.071 0 0 1-.13 0l-.064-.14a3.26 3.26 0 0 0-1.237-1.364l-.1-.058a.068.068 0 0 1 0-.118l.1-.058A3.26 3.26 0 0 0 5.37 7.855l.064-.139a.071.071 0 0 1 .13 0Zm2.832-4.859c.04-.09.166-.09.206 0l.102.222a5.2 5.2 0 0 0 1.97 2.171l.157.093a.108.108 0 0 1 0 .189l-.158.092a5.2 5.2 0 0 0-1.97 2.172l-.1.222a.113.113 0 0 1-.207 0l-.102-.222a5.2 5.2 0 0 0-1.97-2.172l-.158-.092a.108.108 0 0 1 0-.189l.159-.093a5.2 5.2 0 0 0 1.97-2.171l.1-.222Z"/></g>
  </symbol>
  <symbol id="fishy-stopwatch" viewBox="0 0 24 24">
    <g fill="none" fill-rule="evenodd"><path d="m12.594 23.258l-.012.002l-.071.035l-.02.004l-.014-.004l-.071-.036q-.016-.004-.024.006l-.004.01l-.017.428l.005.02l.01.013l.104.074l.015.004l.012-.004l.104-.074l.012-.016l.004-.017l-.017-.427q-.004-.016-.016-.018m.264-.113l-.014.002l-.184.093l-.01.01l-.003.011l.018.43l.005.012l.008.008l.201.092q.019.005.029-.008l.004-.014l-.034-.614q-.005-.019-.02-.022m-.715.002a.02.02 0 0 0-.027.006l-.006.014l-.034.614q.001.018.017.024l.015-.002l.201-.093l.01-.008l.003-.011l.018-.43l-.003-.012l-.01-.01z"/><path fill="currentColor" d="M14 2a1 1 0 1 1 0 2h-1v.057a8.95 8.95 0 0 1 4.041 1.487l.568-.567a1 1 0 1 1 1.414 1.414l-.458.457a9 9 0 1 1-13.132 0l-.456-.457A1 1 0 1 1 6.39 4.977l.567.567A8.95 8.95 0 0 1 11 4.057V4h-1a1 1 0 0 1 0-2zm-2 6a1 1 0 0 0-1 1v4a1 1 0 0 0 .293.707l2 2a1 1 0 1 0 1.414-1.414L13 12.586V9a1 1 0 0 0-1-1"/></g>
  </symbol>
  <symbol id="fishy-check-badge-outline" viewBox="0 0 24 24">
    <path fill="none" stroke="currentColor" stroke-linecap="round" stroke-linejoin="round" stroke-width="1.5" d="M9 12.75 11.25 15 15 9.75M21 12c0 1.268-.63 2.39-1.593 3.068a3.745 3.745 0 0 1-1.043 3.296 3.745 3.745 0 0 1-3.296 1.043A3.745 3.745 0 0 1 12 21c-1.268 0-2.39-.63-3.068-1.593a3.746 3.746 0 0 1-3.296-1.043 3.745 3.745 0 0 1-1.043-3.296A3.745 3.745 0 0 1 3 12c0-1.268.63-2.39 1.593-3.068a3.745 3.745 0 0 1 1.043-3.296 3.746 3.746 0 0 1 3.296-1.043A3.746 3.746 0 0 1 12 3c1.268 0 2.39.63 3.068 1.593a3.746 3.746 0 0 1 3.296 1.043 3.746 3.746 0 0 1 1.043 3.296A3.745 3.745 0 0 1 21 12Z"/>
  </symbol>
  <symbol id="fishy-check-badge-solid" viewBox="0 0 24 24">
    <path fill="currentColor" fill-rule="evenodd" clip-rule="evenodd" d="M8.603 3.799A4.49 4.49 0 0 1 12 2.25c1.357 0 2.573.6 3.397 1.549a4.49 4.49 0 0 1 3.498 1.307 4.491 4.491 0 0 1 1.307 3.497A4.49 4.49 0 0 1 21.75 12a4.49 4.49 0 0 1-1.549 3.397 4.491 4.491 0 0 1-1.307 3.497 4.491 4.491 0 0 1-3.497 1.307A4.49 4.49 0 0 1 12 21.75a4.49 4.49 0 0 1-3.397-1.549 4.49 4.49 0 0 1-3.498-1.306 4.491 4.491 0 0 1-1.307-3.498A4.49 4.49 0 0 1 2.25 12c0-1.357.6-2.573 1.549-3.397a4.49 4.49 0 0 1 1.307-3.497 4.49 4.49 0 0 1 3.497-1.307Zm7.007 6.387a.75.75 0 1 0-1.22-.872l-3.236 4.53L9.53 12.22a.75.75 0 0 0-1.06 1.06l2.25 2.25a.75.75 0 0 0 1.14-.094l3.75-5.25Z"/>
  </symbol>
  <symbol id="fishy-check-circle-dash-fill" viewBox="0 0 24 24">
    <g fill="none"><path d="m12.594 23.258l-.012.002l-.071.035l-.02.004l-.014-.004l-.071-.036q-.016-.004-.024.006l-.004.01l-.017.428l.005.02l.01.013l.104.074l.015.004l.012-.004l.104-.074l.012-.016l.004-.017l-.017-.427q-.004-.016-.016-.018m.264-.113l-.014.002l-.184.093l-.01.01l-.003.011l.018.43l.005.012l.008.008l.201.092q.019.005.029-.008l.004-.014l-.034-.614q-.005-.019-.02-.022m-.715.002a.02.02 0 0 0-.027.006l-.006.014l-.034.614q.001.018.017.024l.015-.002l.201-.093l.01-.008l.003-.011l.018-.43l-.003-.012l-.01-.01z"/><path fill="currentColor" d="M6.342 19.161a1.5 1.5 0 0 1 2.036-.593a7.6 7.6 0 0 0 1.544.64a1.5 1.5 0 0 1-.835 2.881a10.6 10.6 0 0 1-2.153-.89a1.5 1.5 0 0 1-.592-2.038m9.285-.596a1.5 1.5 0 0 1 1.448 2.628a10.6 10.6 0 0 1-2.153.893a1.5 1.5 0 0 1-.838-2.88a7.6 7.6 0 0 0 1.543-.64M2.935 13.064a1.5 1.5 0 0 1 1.86 1.021a7.6 7.6 0 0 0 .639 1.543a1.5 1.5 0 1 1-2.628 1.447a10.6 10.6 0 0 1-.893-2.152a1.5 1.5 0 0 1 1.022-1.86m16.272 1.014a1.5 1.5 0 0 1 2.882.835a10.6 10.6 0 0 1-.89 2.153a1.5 1.5 0 0 1-2.63-1.444a7.6 7.6 0 0 0 .638-1.544m-4.025-6.05a1.5 1.5 0 1 1 2.121 2.122l-5.657 5.656a1.5 1.5 0 0 1-2.121 0l-2.828-2.828a1.5 1.5 0 1 1 2.12-2.121l1.768 1.767zM2.802 6.934a1.5 1.5 0 0 1 2.629 1.444a7.6 7.6 0 0 0-.639 1.544a1.5 1.5 0 0 1-2.88-.835a10.6 10.6 0 0 1 .89-2.153m16.354-.599a1.5 1.5 0 0 1 2.038.59a10.6 10.6 0 0 1 .892 2.152a1.5 1.5 0 0 1-2.88.838a7.6 7.6 0 0 0-.64-1.543a1.5 1.5 0 0 1 .59-2.037M9.078 1.913a1.5 1.5 0 0 1 .837 2.881a7.6 7.6 0 0 0-1.543.64a1.5 1.5 0 0 1-1.446-2.628a10.6 10.6 0 0 1 2.152-.893m3.976 1.02a1.5 1.5 0 0 1 1.858-1.022a10.6 10.6 0 0 1 2.154.89a1.5 1.5 0 0 1-1.444 2.63a7.6 7.6 0 0 0-1.544-.639a1.5 1.5 0 0 1-1.024-1.858"/></g>
  </symbol>
  <symbol id="fishy-check-circle-dash-line" viewBox="0 0 24 24">
    <g fill="none"><path d="m12.594 23.258l-.012.002l-.071.035l-.02.004l-.014-.004l-.071-.036q-.016-.004-.024.006l-.004.01l-.017.428l.005.02l.01.013l.104.074l.015.004l.012-.004l.104-.074l.012-.016l.004-.017l-.017-.427q-.004-.016-.016-.018m.264-.113l-.014.002l-.184.093l-.01.01l-.003.011l.018.43l.005.012l.008.008l.201.092q.019.005.029-.008l.004-.014l-.034-.614q-.005-.019-.02-.022m-.715.002a.02.02 0 0 0-.027.006l-.006.014l-.034.614q.001.018.017.024l.015-.002l.201-.093l.01-.008l.003-.011l.018-.43l-.003-.012l-.01-.01z"/><path fill="currentColor" d="M6.483 19.184a1 1 0 0 1 1.373-.34a8 8 0 0 0 2.235.927a1 1 0 1 1-.48 1.941a10 10 0 0 1-2.789-1.155a1 1 0 0 1-.34-1.373m9.662-.34a1 1 0 0 1 1.033 1.713a10 10 0 0 1-2.79 1.155a1 1 0 0 1-.479-1.942a8 8 0 0 0 2.236-.926M3.019 13.179a1 1 0 0 1 1.21.73a8 8 0 0 0 .926 2.236a1 1 0 0 1-1.711 1.033a10 10 0 0 1-1.156-2.79a1 1 0 0 1 .73-1.21m16.75.73a1 1 0 0 1 1.943.48q-.18.727-.474 1.437q-.295.711-.681 1.352a1 1 0 0 1-1.713-1.034a8 8 0 0 0 .926-2.235M15.535 8.38a1 1 0 0 1 1.414 1.414l-5.656 5.657c-.39.39-1.024.39-1.415 0L7.05 12.623a1 1 0 0 1 1.414-1.414l2.121 2.121zM3.444 6.822a1 1 0 1 1 1.711 1.034a8 8 0 0 0-.925 2.235a1 1 0 0 1-1.942-.48a10 10 0 0 1 1.156-2.789m15.74-.34a1 1 0 0 1 1.373.34a10 10 0 0 1 1.155 2.789a1 1 0 0 1-1.942.48a8 8 0 0 0-.926-2.235a1 1 0 0 1 .34-1.373M13.179 3.02a1 1 0 0 1 1.21-.73a10 10 0 0 1 2.789 1.155a1 1 0 0 1-1.034 1.711a8 8 0 0 0-2.235-.925a1 1 0 0 1-.73-1.211m-3.568-.73a1 1 0 0 1 .48 1.94a8 8 0 0 0-2.235.926a1 1 0 0 1-1.034-1.711a10 10 0 0 1 2.789-1.156"/></g>
  </symbol>
  <symbol id="fishy-heart-fill" viewBox="0 0 24 24">
    <g fill="none"><path d="m12.593 23.258l-.011.002l-.071.035l-.02.004l-.014-.004l-.071-.035q-.016-.005-.024.005l-.004.01l-.017.428l.005.02l.01.013l.104.074l.015.004l.012-.004l.104-.074l.012-.016l.004-.017l-.017-.427q-.004-.016-.017-.018m.265-.113l-.013.002l-.185.093l-.01.01l-.003.011l.018.43l.005.012l.008.007l.201.093q.019.005.029-.008l.004-.014l-.034-.614q-.005-.018-.02-.022m-.715.002a.02.02 0 0 0-.027.006l-.006.014l-.034.614q.001.018.017.024l.015-.002l.201-.093l.01-.008l.004-.011l.017-.43l-.003-.012l-.01-.01z"/><path fill="currentColor" d="M18.494 3.801c2.095 1.221 3.569 3.7 3.504 6.592C21.86 16.5 13.5 21 12 21s-9.861-4.5-9.998-10.607c-.065-2.892 1.409-5.37 3.504-6.592C7.466 2.66 9.928 2.653 12 4.338c2.072-1.685 4.534-1.679 6.494-.537"/></g>
  </symbol>
  <symbol id="fishy-heart-line" viewBox="0 0 24 24">
    <g fill="none" fill-rule="evenodd"><path d="m12.593 23.258l-.011.002l-.071.035l-.02.004l-.014-.004l-.071-.035q-.016-.005-.024.005l-.004.01l-.017.428l.005.02l.01.013l.104.074l.015.004l.012-.004l.104-.074l.012-.016l.004-.017l-.017-.427q-.004-.016-.017-.018m.265-.113l-.013.002l-.185.093l-.01.01l-.003.011l.018.43l.005.012l.008.007l.201.093q.019.005.029-.008l.004-.014l-.034-.614q-.005-.018-.02-.022m-.715.002a.02.02 0 0 0-.027.006l-.006.014l-.034.614q.001.018.017.024l.015-.002l.201-.093l.01-.008l.004-.011l.017-.43l-.003-.012l-.01-.01z"/><path fill="currentColor" d="M18.494 3.801c2.095 1.221 3.569 3.7 3.504 6.592c-.081 3.61-2.89 6.794-7.679 9.638c-.71.422-1.458.969-2.319.969c-.845 0-1.625-.557-2.32-.97c-4.787-2.843-7.597-6.028-7.678-9.637c-.065-2.892 1.409-5.37 3.504-6.592C7.466 2.66 9.928 2.653 12 4.338c2.072-1.685 4.534-1.679 6.494-.537M17.487 5.53c-1.394-.812-3.136-.783-4.644.743a1.19 1.19 0 0 1-1.686 0c-1.508-1.526-3.25-1.555-4.644-.743c-1.444.842-2.56 2.628-2.511 4.82c.056 2.511 2.04 5.194 6.7 7.962c.408.243.834.554 1.298.683c.464-.129.89-.44 1.298-.683c4.66-2.768 6.644-5.45 6.7-7.963c.05-2.19-1.067-3.977-2.511-4.819"/></g>
  </symbol>
  <symbol id="fishy-coin-stack" viewBox="0 0 24 24">
    <g fill="none"><path d="m12.593 23.258l-.011.002l-.071.035l-.02.004l-.014-.004l-.071-.035q-.016-.005-.024.005l-.004.01l-.017.428l.005.02l.01.013l.104.074l.015.004l.012-.004l.104-.074l.012-.016l.004-.017l-.017-.427q-.004-.016-.017-.018m.265-.113l-.013.002l-.185.093l-.01.01l-.003.011l.018.43l.005.012l.008.007l.201.093q.019.005.029-.008l.004-.014l-.034-.614q-.005-.018-.02-.022m-.715.002a.02.02 0 0 0-.027.006l-.006.014l-.034.614q.001.018.017.024l.015-.002l.201-.093l.01-.008l.004-.011l.017-.43l-.003-.012l-.01-.01z"/><path fill="currentColor" d="M21 16.143V17.5c0 .814-.381 1.51-.91 2.057c-.523.542-1.233.984-2.032 1.334C16.456 21.591 14.314 22 12 22s-4.456-.408-6.058-1.109c-.799-.35-1.509-.792-2.032-1.334c-.485-.5-.845-1.128-.902-1.856L3 17.5v-1.357q.697.398 1.494.695c2.03.751 4.685 1.17 7.506 1.17s5.476-.419 7.506-1.17q.598-.222 1.139-.503zm-18-5.5q.697.398 1.494.695c2.03.751 4.685 1.17 7.506 1.17s5.476-.419 7.506-1.17A10 10 0 0 0 21 10.643v3.105a8.3 8.3 0 0 1-2.188 1.214c-1.755.65-4.164 1.047-6.812 1.047c-2.647 0-5.056-.397-6.812-1.047A8.3 8.3 0 0 1 3 13.748zM12 3c2.314 0 4.456.408 6.058 1.109c.799.35 1.509.792 2.032 1.334c.485.5.845 1.128.902 1.856L21 7.5v.748a8.3 8.3 0 0 1-2.188 1.214c-1.755.65-4.164 1.047-6.812 1.047c-2.647 0-5.056-.397-6.812-1.047a8.3 8.3 0 0 1-1.905-1.006L3 8.248V7.5c0-.814.381-1.51.91-2.057c.523-.542 1.233-.984 2.032-1.334C7.544 3.409 9.686 3 12 3"/></g>
  </symbol>
  <symbol id="fishy-coin-2-fill" viewBox="0 0 24 24">
    <g fill="none"><path d="m12.593 23.258l-.011.002l-.071.035l-.02.004l-.014-.004l-.071-.035q-.016-.005-.024.005l-.004.01l-.017.428l.005.02l.01.013l.104.074l.015.004l.012-.004l.104-.074l.012-.016l.004-.017l-.017-.427q-.004-.016-.017-.018m.265-.113l-.013.002l-.185.093l-.01.01l-.003.011l.018.43l.005.012l.008.007l.201.093q.019.005.029-.008l.004-.014l-.034-.614q-.005-.018-.02-.022m-.715.002a.02.02 0 0 0-.027.006l-.006.014l-.034.614q.001.018.017.024l.015-.002l.201-.093l.01-.008l.004-.011l.017-.43l-.003-.012l-.01-.01z"/><path fill="currentColor" d="M21 16.143V17.5c0 .814-.381 1.51-.91 2.057c-.523.542-1.233.984-2.032 1.334C16.456 21.591 14.314 22 12 22s-4.456-.408-6.058-1.109c-.799-.35-1.509-.792-2.032-1.334c-.485-.5-.845-1.128-.902-1.856L3 17.5v-1.357q.697.398 1.494.695c2.03.751 4.685 1.17 7.506 1.17s5.476-.419 7.506-1.17q.598-.222 1.139-.503zm-18-5.5q.697.398 1.494.695c2.03.751 4.685 1.17 7.506 1.17s5.476-.419 7.506-1.17A10 10 0 0 0 21 10.643v3.105a8.3 8.3 0 0 1-2.188 1.214c-1.755.65-4.164 1.047-6.812 1.047c-2.647 0-5.056-.397-6.812-1.047A8.3 8.3 0 0 1 3 13.748zM12 3c2.314 0 4.456.408 6.058 1.109c.799.35 1.509.792 2.032 1.334c.485.5.845 1.128.902 1.856L21 7.5v.748a8.3 8.3 0 0 1-2.188 1.214c-1.755.65-4.164 1.047-6.812 1.047c-2.647 0-5.056-.397-6.812-1.047a8.3 8.3 0 0 1-1.905-1.006L3 8.248V7.5c0-.814.381-1.51.91-2.057c.523-.542 1.233-.984 2.032-1.334C7.544 3.409 9.686 3 12 3"/></g>
  </symbol>
  <symbol id="fishy-calendar-2-fill" viewBox="0 0 24 24">
    <g fill="none" fill-rule="evenodd"><path d="m12.594 23.258l-.012.002l-.071.035l-.02.004l-.014-.004l-.071-.036q-.016-.004-.024.006l-.004.01l-.017.428l.005.02l.01.013l.104.074l.015.004l.012-.004l.104-.074l.012-.016l.004-.017l-.017-.427q-.004-.016-.016-.018m.264-.113l-.014.002l-.184.093l-.01.01l-.003.011l.018.43l.005.012l.008.008l.201.092q.019.005.029-.008l.004-.014l-.034-.614q-.005-.019-.02-.022m-.715.002a.02.02 0 0 0-.027.006l-.006.014l-.034.614q.001.018.017.024l.015-.002l.201-.093l.01-.008l.003-.011l.018-.43l-.003-.012l-.01-.01z"/><path fill="currentColor" d="M16 3a1 1 0 0 1 1 1v1h2a2 2 0 0 1 2 2v12a2 2 0 0 1-2 2H5a2 2 0 0 1-2-2V7a2 2 0 0 1 2-2h2V4a1 1 0 0 1 2 0v1h6V4a1 1 0 0 1 1-1M8.01 16H8a1 1 0 0 0-.117 1.993L8.01 18a1 1 0 1 0 0-2m4 0H12a1 1 0 0 0-.117 1.993l.127.007a1 1 0 1 0 0-2m4 0H16a1 1 0 0 0-.117 1.993l.127.007a1 1 0 1 0 0-2m-8-4H8a1 1 0 0 0-.117 1.993L8.01 14a1 1 0 1 0 0-2m4 0H12a1 1 0 0 0-.117 1.993l.127.007a1 1 0 1 0 0-2m4 0H16a1 1 0 0 0-.117 1.993l.127.007a1 1 0 1 0 0-2M19 7H5v2h14z"/></g>
  </symbol>
  <symbol id="fishy-arrow-up-fill" viewBox="0 0 24 24">
    <g fill="none"><path d="M24 0v24H0V0zM12.593 23.258l-.011.002l-.071.035l-.02.004l-.014-.004l-.071-.035q-.016-.005-.024.005l-.004.01l-.017.428l.005.02l.01.013l.104.074l.015.004l.012-.004l.104-.074l.012-.016l.004-.017l-.017-.427q-.004-.016-.017-.018m.265-.113l-.013.002l-.185.093l-.01.01l-.003.011l.018.43l.005.012l.008.007l.201.093q.019.005.029-.008l.004-.014l-.034-.614q-.005-.019-.02-.022m-.715.002a.02.02 0 0 0-.027.006l-.006.014l-.034.614q.001.018.017.024l.015-.002l.201-.093l.01-.008l.004-.011l.017-.43l-.003-.012l-.01-.01z"/><path fill="currentColor" d="M13.06 3.283a1.5 1.5 0 0 0-2.12 0L5.281 8.939a1.5 1.5 0 0 0 2.122 2.122L10.5 7.965V19.5a1.5 1.5 0 0 0 3 0V7.965l3.096 3.096a1.5 1.5 0 1 0 2.122-2.122z"/></g>
  </symbol>
  <symbol id="fishy-arrow-down-fill" viewBox="0 0 24 24">
    <g fill="none"><path d="M24 0v24H0V0zM12.593 23.258l-.011.002l-.071.035l-.02.004l-.014-.004l-.071-.035q-.016-.005-.024.005l-.004.01l-.017.428l.005.02l.01.013l.104.074l.015.004l.012-.004l.104-.074l.012-.016l.004-.017l-.017-.427q-.004-.016-.017-.018m.265-.113l-.013.002l-.185.093l-.01.01l-.003.011l.018.43l.005.012l.008.007l.201.093q.019.005.029-.008l.004-.014l-.034-.614q-.005-.019-.02-.022m-.715.002a.02.02 0 0 0-.027.006l-.006.014l-.034.614q.001.018.017.024l.015-.002l.201-.093l.01-.008l.004-.011l.017-.43l-.003-.012l-.01-.01z"/><path fill="currentColor" d="M10.5 16.035L7.404 12.94a1.5 1.5 0 1 0-2.122 2.121l5.657 5.657a1.5 1.5 0 0 0 2.122 0l5.657-5.656a1.5 1.5 0 1 0-2.122-2.122L13.5 16.035V4.5a1.5 1.5 0 0 0-3 0z"/></g>
  </symbol>
  <symbol id="fishy-up-small-fill" viewBox="0 0 24 24">
    <g fill="none" fill-rule="evenodd"><path d="M24 0v24H0V0zM12.594 23.258l-.012.002l-.071.035l-.02.004l-.014-.004l-.071-.036q-.016-.004-.024.006l-.004.01l-.017.428l.005.02l.01.013l.104.074l.015.004l.012-.004l.104-.074l.012-.016l.004-.017l-.017-.427q-.004-.016-.016-.018m.264-.113l-.014.002l-.184.093l-.01.01l-.003.011l.018.43l.005.012l.008.008l.201.092q.019.005.029-.008l.004-.014l-.034-.614q-.005-.018-.02-.022m-.715.002a.02.02 0 0 0-.027.006l-.006.014l-.034.614q.001.018.017.024l.015-.002l.201-.093l.01-.008l.003-.011l.018-.43l-.003-.012l-.01-.01z"/><path fill="currentColor" d="M11.293 9.464a1 1 0 0 1 1.414 0l2.829 2.829A1 1 0 0 1 14.828 14H9.172a1 1 0 0 1-.708-1.707z"/></g>
  </symbol>
  <symbol id="fishy-down-small-fill" viewBox="0 0 24 24">
    <g fill="none" fill-rule="evenodd"><path d="M24 0v24H0V0zM12.594 23.258l-.012.002l-.071.035l-.02.004l-.014-.004l-.071-.035q-.016-.005-.024.005l-.004.01l-.017.428l.005.02l.01.013l.105.074l.014.004l.012-.004l.104-.074l.012-.016l.004-.017l-.017-.427q-.004-.016-.016-.018m.264-.113l-.013.002l-.185.093l-.01.01l-.003.011l.018.43l.005.012l.008.008l.201.092q.019.005.029-.008l.004-.014l-.034-.614q-.005-.018-.02-.022m-.715.002a.02.02 0 0 0-.027.006l-.006.014l-.034.614q.001.018.017.024l.015-.002l.201-.092l.01-.009l.004-.011l.017-.43l-.003-.012l-.01-.01z"/><path fill="currentColor" d="M12.707 14.536a1 1 0 0 1-1.414 0l-2.829-2.829A1 1 0 0 1 9.172 10h5.656a1 1 0 0 1 .708 1.707z"/></g>
  </symbol>
  <symbol id="fishy-az-sort-ascending-letters-fill" viewBox="0 0 24 24">
    <g fill="none" fill-rule="evenodd"><path d="m12.593 23.258l-.011.002l-.071.035l-.02.004l-.014-.004l-.071-.035q-.016-.005-.024.005l-.004.01l-.017.428l.005.02l.01.013l.104.074l.015.004l.012-.004l.104-.074l.012-.016l.004-.017l-.017-.427q-.004-.016-.017-.018m.265-.113l-.013.002l-.185.093l-.01.01l-.003.011l.018.43l.005.012l.008.007l.201.093q.019.005.029-.008l.004-.014l-.034-.614q-.005-.018-.02-.022m-.715.002a.02.02 0 0 0-.027.006l-.006.014l-.034.614q.001.018.017.024l.015-.002l.201-.093l.01-.008l.004-.011l.017-.43l-.003-.012l-.01-.01z"/><path fill="currentColor" d="M10.759 13c1.377 0 2.09 1.61 1.226 2.628l-.095.103L8.62 19H11a1.5 1.5 0 0 1 .144 2.993L11 22H5.24c-1.378 0-2.09-1.61-1.226-2.628l.095-.103L7.379 16h-2.38a1.5 1.5 0 0 1-.144-2.993L5 13zm6.24-10a1.5 1.5 0 0 1 1.5 1.5v11.707l.269-.268a1.5 1.5 0 1 1 2.121 2.122l-2.828 2.828a1.5 1.5 0 0 1-2.122 0l-2.828-2.828a1.5 1.5 0 1 1 2.121-2.122l.268.268V4.5A1.5 1.5 0 0 1 17 3ZM8 2a2.21 2.21 0 0 1 2.017 1.305l.065.161l2.332 6.53a1.5 1.5 0 0 1-2.77 1.142L9.585 11H6.414a1.501 1.501 0 0 1-2.869-.866l.042-.139L5.92 3.467A2.21 2.21 0 0 1 8 2m0 4.56L7.487 8h1.028z"/></g>
  </symbol>
  <symbol id="fishy-za-sort-descending-letters-fill" viewBox="0 0 24 24">
    <g fill="none"><path d="m12.593 23.258l-.011.002l-.071.035l-.02.004l-.014-.004l-.071-.035q-.016-.005-.024.005l-.004.01l-.017.428l.005.02l.01.013l.104.074l.015.004l.012-.004l.104-.074l.012-.016l.004-.017l-.017-.427q-.004-.016-.017-.018m.265-.113l-.013.002l-.185.093l-.01.01l-.003.011l.018.43l.005.012l.008.007l.201.093q.019.005.029-.008l.004-.014l-.034-.614q-.005-.018-.02-.022m-.715.002a.02.02 0 0 0-.027.006l-.006.014l-.034.614q.001.018.017.024l.015-.002l.201-.093l.01-.008l.004-.011l.017-.43l-.003-.012l-.01-.01z"/><path fill="currentColor" d="M8 12a2.21 2.21 0 0 1 2.016 1.305l.065.161l2.332 6.53a1.5 1.5 0 0 1-2.77 1.142l-.056-.134l-.18-.504H6.593l-.18.505a1.5 1.5 0 0 1-2.868-.871l.042-.139l2.332-6.529A2.21 2.21 0 0 1 8 12m9-9a1.5 1.5 0 0 1 1.5 1.5v11.707l.268-.268a1.5 1.5 0 1 1 2.121 2.122l-2.828 2.828a1.5 1.5 0 0 1-2.122 0l-2.828-2.828a1.5 1.5 0 1 1 2.121-2.122l.268.268V4.5A1.5 1.5 0 0 1 17 3M8 16.56l-.336.94h.672zM10.758 2c1.378 0 2.091 1.61 1.227 2.628l-.095.103L8.62 8H11a1.5 1.5 0 0 1 .144 2.993L11 11H5.24c-1.378 0-2.09-1.61-1.226-2.628l.095-.103L7.379 5h-2.38a1.5 1.5 0 0 1-.144-2.993L5 2h5.759Z"/></g>
  </symbol>
</svg>
